<svg width="781" height="472" xmlns="http://www.w3.org/2000/svg" xmlns:xlink="http://www.w3.org/1999/xlink" overflow="hidden"><defs><clipPath id="clip0"><path d="M193 100 974 100 974 572 193 572Z" fill-rule="evenodd" clip-rule="evenodd"/></clipPath></defs><g clip-path="url(#clip0)" transform="translate(-193 -100)"><path d="M630.5 376C630.5 368.544 636.32 362.5 643.5 362.5 650.68 362.5 656.5 368.544 656.5 376 656.5 383.456 650.68 389.5 643.5 389.5 636.32 389.5 630.5 383.456 630.5 376Z" stroke="#000000" stroke-width="0" stroke-linejoin="round" stroke-miterlimit="10" fill="#FFFF66" fill-rule="evenodd"/><path d="M634.33 366.477 652.711 385.565M652.711 366.477 634.33 385.565M630.5 376.021C630.5 368.57 636.345 362.5 643.52 362.5 650.695 362.5 656.5 368.57 656.5 376.021 656.5 383.472 650.695 389.5 643.52 389.5 636.345 389.5 630.5 383.472 630.5 376.021Z" stroke="#000000" stroke-width="0.666667" stroke-linecap="round" stroke-linejoin="round" stroke-miterlimit="10" fill="none" fill-rule="evenodd"/><path d="M629.5 340C629.5 332.544 635.544 326.5 643 326.5 650.456 326.5 656.5 332.544 656.5 340 656.5 347.456 650.456 353.5 643 353.5 635.544 353.5 629.5 347.456 629.5 340Z" stroke="#000000" stroke-width="0" stroke-linejoin="round" stroke-miterlimit="10" fill="#FFFF66" fill-rule="evenodd"/><path d="M633.441 330.477 652.559 349.523M652.559 330.477 633.441 349.523M629.5 339.979C629.5 332.528 635.537 326.5 643 326.5 650.463 326.5 656.5 332.528 656.5 339.979 656.5 347.43 650.463 353.5 643 353.5 635.537 353.5 629.5 347.43 629.5 339.979Z" stroke="#000000" stroke-width="0.666667" stroke-linecap="round" stroke-linejoin="round" stroke-miterlimit="10" fill="none" fill-rule="evenodd"/><rect x="622.5" y="317.5" width="112" height="81" stroke="#000000" stroke-width="0.666667" stroke-linecap="round" stroke-linejoin="round" stroke-miterlimit="10" fill="none"/><path d="M703.5 376C703.5 368.544 709.544 362.5 717 362.5 724.456 362.5 730.5 368.544 730.5 376 730.5 383.456 724.456 389.5 717 389.5 709.544 389.5 703.5 383.456 703.5 376Z" stroke="#000000" stroke-width="0" stroke-linejoin="round" stroke-miterlimit="10" fill="#FFFF66" fill-rule="evenodd"/><path d="M707.477 366.441 726.565 385.559M726.565 366.441 707.477 385.559M703.5 376C703.5 368.537 709.57 362.5 717.021 362.5 724.472 362.5 730.5 368.537 730.5 376 730.5 383.463 724.472 389.5 717.021 389.5 709.57 389.5 703.5 383.463 703.5 376Z" stroke="#000000" stroke-width="0.666667" stroke-linecap="round" stroke-linejoin="round" stroke-miterlimit="10" fill="none" fill-rule="evenodd"/><path d="M667.5 360C667.5 352.544 673.544 346.5 681 346.5 688.456 346.5 694.5 352.544 694.5 360 694.5 367.456 688.456 373.5 681 373.5 673.544 373.5 667.5 367.456 667.5 360Z" stroke="#000000" stroke-width="0" stroke-linejoin="round" stroke-miterlimit="10" fill="#FFFF66" fill-rule="evenodd"/><path d="M671.435 350.441 690.523 369.559M690.523 350.441 671.435 369.559M667.5 360C667.5 352.537 673.528 346.5 680.979 346.5 688.43 346.5 694.5 352.537 694.5 360 694.5 367.463 688.43 373.5 680.979 373.5 673.528 373.5 667.5 367.463 667.5 360Z" stroke="#000000" stroke-width="0.666667" stroke-linecap="round" stroke-linejoin="round" stroke-miterlimit="10" fill="none" fill-rule="evenodd"/><path d="M703.5 340C703.5 332.544 709.544 326.5 717 326.5 724.456 326.5 730.5 332.544 730.5 340 730.5 347.456 724.456 353.5 717 353.5 709.544 353.5 703.5 347.456 703.5 340Z" stroke="#000000" stroke-width="0" stroke-linejoin="round" stroke-miterlimit="10" fill="#FFFF66" fill-rule="evenodd"/><path d="M707.435 330.477 726.523 349.523M726.523 330.477 707.435 349.523M703.5 339.979C703.5 332.528 709.528 326.5 716.979 326.5 724.43 326.5 730.5 332.528 730.5 339.979 730.5 347.43 724.43 353.5 716.979 353.5 709.528 353.5 703.5 347.43 703.5 339.979Z" stroke="#000000" stroke-width="0.666667" stroke-linecap="round" stroke-linejoin="round" stroke-miterlimit="10" fill="none" fill-rule="evenodd"/><text font-family="Calibri,Calibri_MSFontService,sans-serif" font-weight="400" font-size="14" transform="translate(604.617 414)">Grupo de iluminación N<tspan x="134.333" y="0">°</tspan><tspan x="139" y="0">2</tspan></text><rect x="636.5" y="278.5" width="14" height="29" stroke="#000000" stroke-width="0.666667" stroke-linecap="round" stroke-linejoin="round" stroke-miterlimit="10" fill="none"/><path d="M0 0 14 29" stroke="#000000" stroke-width="0.666667" stroke-linecap="round" stroke-linejoin="round" stroke-miterlimit="10" fill="none" fill-rule="evenodd" transform="matrix(1 0 0 -1 636.5 307.5)"/><path d="M636.5 278.5 650.5 307.5" stroke="#000000" stroke-width="0.666667" stroke-linecap="round" stroke-linejoin="round" stroke-miterlimit="10" fill="none" fill-rule="evenodd"/><rect x="650.5" y="278.5" width="57" height="29" stroke="#000000" stroke-width="0.666667" stroke-linecap="round" stroke-linejoin="round" stroke-miterlimit="10" fill="none"/><text font-family="Arial,Arial_MSFontService,sans-serif" font-weight="400" font-size="11" transform="translate(656.117 296)">Lights_2</text><path d="M678.5 307.5 678.5 317.5" stroke="#FF0000" stroke-linecap="round" stroke-linejoin="round" stroke-miterlimit="10" fill="none" fill-rule="evenodd"/><rect x="310" y="488" width="121" height="58" fill="#EBF1DF"/><path d="M325.02 532 416.98 532M325.02 503 416.98 503M325.02 517.5 416.98 517.5M416.98 488.5 416.98 546.5M325.02 488.5 325.02 546.5M310.5 546.5 431.5 546.5 431.5 488.5 310.5 488.5 310.5 546.5" stroke="#3F3F3F" stroke-width="1.33333" stroke-linecap="round" stroke-linejoin="round" stroke-miterlimit="10" fill="none" fill-rule="evenodd"/><text font-family="Calibri,Calibri_MSFontService,sans-serif" font-weight="400" font-size="14" transform="translate(301.117 559)">Aire acondicionado N°<tspan x="126.167" y="0">1</tspan></text><path d="M319.063 445.282C320.641 439.641 323.84 438.035 326.228 441.7 327.593 443.759 328.446 447.259 328.574 451.088 328.531 457.759 330.834 463.194 333.649 463.277 335.952 463.318 337.956 459.859 338.638 454.712M314.5 465.5 343.5 465.5 343.5 437.5 314.5 437.5 314.5 465.5Z" stroke="#000000" stroke-width="0.666667" stroke-linecap="round" stroke-linejoin="round" stroke-miterlimit="10" fill="none" fill-rule="evenodd"/><rect x="343.5" y="437.5" width="56" height="28" stroke="#000000" stroke-width="0.666667" stroke-linecap="round" stroke-linejoin="round" stroke-miterlimit="10" fill="none"/><text font-family="Arial,Arial_MSFontService,sans-serif" font-weight="400" font-size="11" transform="translate(348.45 455)">HVAC_1</text><path d="M0 0 0.000104987 23" stroke="#0000FF" stroke-linecap="round" stroke-linejoin="round" stroke-miterlimit="10" fill="none" fill-rule="evenodd" transform="matrix(1 0 0 -1 371.5 488.5)"/><rect x="532" y="488" width="121" height="58" fill="#EBF1DF"/><path d="M547.167 532 639 532M547.167 503 639 503M547.167 517.5 639 517.5M639 488.5 639 546.5M547.167 488.5 547.167 546.5M532.5 546.5 653.5 546.5 653.5 488.5 532.5 488.5 532.5 546.5" stroke="#3F3F3F" stroke-width="1.33333" stroke-linecap="round" stroke-linejoin="round" stroke-miterlimit="10" fill="none" fill-rule="evenodd"/><text font-family="Calibri,Calibri_MSFontService,sans-serif" font-weight="400" font-size="14" transform="translate(522.617 559)">Aire acondicionado N°<tspan x="126.167" y="0">2</tspan></text><path d="M540.906 447.271C542.388 441.679 545.477 440.076 547.782 443.694 549.141 445.791 549.965 449.245 550.047 453.068 550.047 459.729 552.229 465.198 554.988 465.239 557.212 465.28 559.147 461.826 559.806 456.687M536.5 467.5 564.5 467.5 564.5 439.5 536.5 439.5 536.5 467.5Z" stroke="#000000" stroke-width="0.666667" stroke-linecap="round" stroke-linejoin="round" stroke-miterlimit="10" fill="none" fill-rule="evenodd"/><rect x="564.5" y="439.5" width="57" height="28" stroke="#000000" stroke-width="0.666667" stroke-linecap="round" stroke-linejoin="round" stroke-miterlimit="10" fill="none"/><text font-family="Arial,Arial_MSFontService,sans-serif" font-weight="400" font-size="11" transform="translate(569.283 456)">HVAC_2</text><path d="M592.5 467.5 592.5 488.5" stroke="#FF0000" stroke-linecap="round" stroke-linejoin="round" stroke-miterlimit="10" fill="none" fill-rule="evenodd"/><rect x="742" y="488" width="121" height="58" fill="#EBF1DF"/><path d="M757.02 532 848.98 532M757.02 503 848.98 503M757.02 517.5 848.98 517.5M848.98 488.5 848.98 546.5M757.02 488.5 757.02 546.5M742.5 546.5 863.5 546.5 863.5 488.5 742.5 488.5 742.5 546.5" stroke="#3F3F3F" stroke-width="1.33333" stroke-linecap="round" stroke-linejoin="round" stroke-miterlimit="10" fill="none" fill-rule="evenodd"/><text font-family="Calibri,Calibri_MSFontService,sans-serif" font-weight="400" font-size="14" transform="translate(732.45 559)">Aire acondicionado N°<tspan x="126.167" y="0">4</tspan></text><path d="M750.063 447.271C751.641 441.679 754.797 440.076 757.228 443.694 758.593 445.791 759.446 449.245 759.574 453.068 759.531 459.729 761.791 465.198 764.649 465.239 766.952 465.28 768.956 461.826 769.638 456.687M745.5 467.5 774.5 467.5 774.5 439.5 745.5 439.5 745.5 467.5Z" stroke="#000000" stroke-width="0.666667" stroke-linecap="round" stroke-linejoin="round" stroke-miterlimit="10" fill="none" fill-rule="evenodd"/><rect x="774.5" y="439.5" width="57" height="28" stroke="#000000" stroke-width="0.666667" stroke-linecap="round" stroke-linejoin="round" stroke-miterlimit="10" fill="none"/><text font-family="Arial,Arial_MSFontService,sans-serif" font-weight="400" font-size="11" transform="translate(779.117 456)">HVAC_4</text><path d="M802.5 467.5 802.5 488.5" stroke="#000000" stroke-linecap="round" stroke-linejoin="round" stroke-miterlimit="10" fill="none" fill-rule="evenodd"/><path d="M233.5 124.479C230.003 124.479 227.181 127.341 227.181 130.833 227.181 134.326 230.003 137.146 233.5 137.146M233.5 111.812C236.997 111.812 239.819 114.674 239.819 118.167 239.819 121.66 236.997 124.479 233.5 124.479M233.5 105.5C243.99 105.5 252.5 114.001 252.5 124.479 252.5 134.999 243.99 143.5 233.5 143.5 223.01 143.5 214.5 134.999 214.5 124.479 214.5 114.001 223.01 105.5 233.5 105.5Z" stroke="#000000" stroke-width="1.33333" stroke-linecap="round" stroke-linejoin="round" stroke-miterlimit="10" fill="none" fill-rule="evenodd"/><text font-family="Arial,Arial_MSFontService,sans-serif" font-weight="400" transform="translate(200.783 129)">R</text><path d="M252.5 123.5 940.5 123.5" stroke="#000000" stroke-linecap="round" stroke-linejoin="round" stroke-miterlimit="10" fill="none" fill-rule="evenodd"/><path d="M233.5 171.98C230.003 171.98 227.181 174.766 227.181 178.167 227.181 181.568 230.003 184.313 233.5 184.313M233.5 159.646C236.997 159.646 239.819 162.432 239.819 165.833 239.819 169.234 236.997 171.98 233.5 171.98M233.5 153.5C243.99 153.5 252.5 161.777 252.5 171.98 252.5 182.223 243.99 190.5 233.5 190.5 223.01 190.5 214.5 182.223 214.5 171.98 214.5 161.777 223.01 153.5 233.5 153.5Z" stroke="#FF0000" stroke-width="1.33333" stroke-linecap="round" stroke-linejoin="round" stroke-miterlimit="10" fill="none" fill-rule="evenodd"/><text font-family="Arial,Arial_MSFontService,sans-serif" font-weight="400" transform="translate(201.45 177)">S</text><path d="M252.5 171.5 940.5 171.5" stroke="#FF0000" stroke-linecap="round" stroke-linejoin="round" stroke-miterlimit="10" fill="none" fill-rule="evenodd"/><path d="M233.5 223.521C230.003 223.521 227.181 226.341 227.181 229.833 227.181 233.368 230.003 236.188 233.5 236.188M233.5 210.854C236.997 210.854 239.819 213.674 239.819 217.167 239.819 220.702 236.997 223.521 233.5 223.521M233.5 204.5C243.99 204.5 252.5 213.043 252.5 223.521 252.5 233.999 243.99 242.5 233.5 242.5 223.01 242.5 214.5 233.999 214.5 223.521 214.5 213.043 223.01 204.5 233.5 204.5Z" stroke="#0000FF" stroke-width="1.33333" stroke-linecap="round" stroke-linejoin="round" stroke-miterlimit="10" fill="none" fill-rule="evenodd"/><text font-family="Arial,Arial_MSFontService,sans-serif" font-weight="400" transform="translate(202.117 229)">T</text><path d="M252.5 223.5 940.5 223.5" stroke="#0000FF" stroke-linecap="round" stroke-linejoin="round" stroke-miterlimit="10" fill="none" fill-rule="evenodd"/><rect x="264" y="109" width="28" height="28" fill="#FFFFFF"/><path d="M268.906 117.241C270.429 111.641 273.518 110.035 275.824 113.659 277.141 115.759 277.965 119.218 278.088 123.047 278.047 129.718 280.271 135.194 282.988 135.235 285.212 135.318 287.147 131.818 287.806 126.712M264.5 137.5 292.5 137.5 292.5 109.5 264.5 109.5 264.5 137.5Z" stroke="#000000" stroke-width="0.666667" stroke-linecap="round" stroke-linejoin="round" stroke-miterlimit="10" fill="none" fill-rule="evenodd"/><rect x="292" y="109" width="57" height="28" fill="#FFFFFF"/><rect x="292.5" y="109.5" width="57" height="28" stroke="#000000" stroke-width="0.666667" stroke-linecap="round" stroke-linejoin="round" stroke-miterlimit="10" fill="none"/><rect x="293" y="114" width="53" height="19" fill="#FFFFFF"/><text font-family="Arial,Arial_MSFontService,sans-serif" font-weight="400" font-size="11" transform="translate(299.617 126)">Main_R</text><rect x="263" y="158" width="29" height="29" fill="#FFFFFF"/><path d="M268.099 166.518C269.632 160.718 272.826 159.054 275.211 162.807 276.616 164.982 277.468 168.607 277.553 172.574 277.553 179.482 279.81 185.112 282.663 185.197 284.963 185.24 286.964 181.615 287.645 176.327M263.5 187.5 292.5 187.5 292.5 158.5 263.5 158.5 263.5 187.5Z" stroke="#000000" stroke-width="0.666667" stroke-linecap="round" stroke-linejoin="round" stroke-miterlimit="10" fill="none" fill-rule="evenodd"/><rect x="292" y="158" width="56" height="29" fill="#FFFFFF"/><rect x="292.5" y="158.5" width="56" height="29" stroke="#000000" stroke-width="0.666667" stroke-linecap="round" stroke-linejoin="round" stroke-miterlimit="10" fill="none"/><rect x="293" y="163" width="53" height="19" fill="#FFFFFF"/><text font-family="Arial,Arial_MSFontService,sans-serif" font-weight="400" font-size="11" transform="translate(299.117 176)">Main_S</text><rect x="263" y="209" width="29" height="28" fill="#FFFFFF"/><path d="M268.099 217.241C269.632 211.641 272.826 210.035 275.211 213.659 276.616 215.759 277.468 219.259 277.553 223.088 277.553 229.759 279.81 235.194 282.663 235.277 284.963 235.318 286.964 231.818 287.645 226.712M263.5 237.5 292.5 237.5 292.5 209.5 263.5 209.5 263.5 237.5Z" stroke="#000000" stroke-width="0.666667" stroke-linecap="round" stroke-linejoin="round" stroke-miterlimit="10" fill="none" fill-rule="evenodd"/><rect x="292" y="209" width="56" height="28" fill="#FFFFFF"/><rect x="292.5" y="209.5" width="56" height="28" stroke="#000000" stroke-width="0.666667" stroke-linecap="round" stroke-linejoin="round" stroke-miterlimit="10" fill="none"/><rect x="293" y="214" width="53" height="19" fill="#FFFFFF"/><text font-family="Arial,Arial_MSFontService,sans-serif" font-weight="400" font-size="11" transform="translate(299.45 227)">Main_T</text><path d="M373.5 223.5 371.5 223.5 371.5 437.5" stroke="#0000FF" stroke-linecap="round" stroke-linejoin="round" stroke-miterlimit="10" fill="none" fill-rule="evenodd"/><path d="M0 0 0.000104987 157" stroke="#000000" stroke-linecap="round" stroke-linejoin="round" stroke-miterlimit="10" fill="none" fill-rule="evenodd" transform="matrix(1 0 0 -1 449.5 280.5)"/><path d="M0 0 0.000104987 107" stroke="#FF0000" stroke-linecap="round" stroke-linejoin="round" stroke-miterlimit="10" fill="none" fill-rule="evenodd" transform="matrix(1 0 0 -1 678.5 278.5)"/><path d="M0 0 0.000104987 316" stroke="#000000" stroke-linecap="round" stroke-linejoin="round" stroke-miterlimit="10" fill="none" fill-rule="evenodd" transform="matrix(1 0 0 -1 802.5 439.5)"/><path d="M0 0 0.000104987 103" stroke="#FF0000" stroke-linecap="round" stroke-linejoin="round" stroke-miterlimit="10" fill="none" fill-rule="evenodd" transform="matrix(1 0 0 -1 902.5 274.5)"/><path d="M0 0 0.000104987 9" stroke="#000000" stroke-linecap="round" stroke-linejoin="round" stroke-miterlimit="10" fill="none" fill-rule="evenodd" transform="matrix(1 0 0 -1 449.5 317.5)"/><path d="M400.5 376C400.5 368.544 406.544 362.5 414 362.5 421.456 362.5 427.5 368.544 427.5 376 427.5 383.456 421.456 389.5 414 389.5 406.544 389.5 400.5 383.456 400.5 376Z" stroke="#000000" stroke-width="0" stroke-linejoin="round" stroke-miterlimit="10" fill="#FFFF66" fill-rule="evenodd"/><path d="M404.423 366.458 423.577 385.542M423.577 366.458 404.423 385.542M400.5 376C400.5 368.542 406.551 362.5 414.021 362.5 421.449 362.5 427.5 368.542 427.5 376 427.5 383.458 421.449 389.5 414.021 389.5 406.551 389.5 400.5 383.458 400.5 376Z" stroke="#000000" stroke-width="0.666667" stroke-linecap="round" stroke-linejoin="round" stroke-miterlimit="10" fill="none" fill-rule="evenodd"/><path d="M400.5 340C400.5 332.544 406.544 326.5 414 326.5 421.456 326.5 427.5 332.544 427.5 340 427.5 347.456 421.456 353.5 414 353.5 406.544 353.5 400.5 347.456 400.5 340Z" stroke="#000000" stroke-width="0" stroke-linejoin="round" stroke-miterlimit="10" fill="#FFFF66" fill-rule="evenodd"/><path d="M404.458 330.458 423.542 349.542M423.542 330.458 404.458 349.542M400.5 340C400.5 332.542 406.542 326.5 414 326.5 421.458 326.5 427.5 332.542 427.5 340 427.5 347.458 421.458 353.5 414 353.5 406.542 353.5 400.5 347.458 400.5 340Z" stroke="#000000" stroke-width="0.666667" stroke-linecap="round" stroke-linejoin="round" stroke-miterlimit="10" fill="none" fill-rule="evenodd"/><rect x="393.5" y="317.5" width="152" height="81" stroke="#000000" stroke-width="0.666667" stroke-linecap="round" stroke-linejoin="round" stroke-miterlimit="10" fill="none"/><path d="M436.5 376C436.5 368.544 442.544 362.5 450 362.5 457.456 362.5 463.5 368.544 463.5 376 463.5 383.456 457.456 389.5 450 389.5 442.544 389.5 436.5 383.456 436.5 376Z" stroke="#000000" stroke-width="0" stroke-linejoin="round" stroke-miterlimit="10" fill="#FFFF66" fill-rule="evenodd"/><path d="M440.458 366.458 459.542 385.542M459.542 366.458 440.458 385.542M436.5 376C436.5 368.542 442.542 362.5 450 362.5 457.458 362.5 463.5 368.542 463.5 376 463.5 383.458 457.458 389.5 450 389.5 442.542 389.5 436.5 383.458 436.5 376Z" stroke="#000000" stroke-width="0.666667" stroke-linecap="round" stroke-linejoin="round" stroke-miterlimit="10" fill="none" fill-rule="evenodd"/><path d="M436.5 340C436.5 332.544 442.544 326.5 450 326.5 457.456 326.5 463.5 332.544 463.5 340 463.5 347.456 457.456 353.5 450 353.5 442.544 353.5 436.5 347.456 436.5 340Z" stroke="#000000" stroke-width="0" stroke-linejoin="round" stroke-miterlimit="10" fill="#FFFF66" fill-rule="evenodd"/><path d="M440.458 330.458 459.542 349.542M459.542 330.458 440.458 349.542M436.5 340C436.5 332.542 442.542 326.5 450 326.5 457.458 326.5 463.5 332.542 463.5 340 463.5 347.458 457.458 353.5 450 353.5 442.542 353.5 436.5 347.458 436.5 340Z" stroke="#000000" stroke-width="0.666667" stroke-linecap="round" stroke-linejoin="round" stroke-miterlimit="10" fill="none" fill-rule="evenodd"/><path d="M474.5 376C474.5 368.544 480.544 362.5 488 362.5 495.456 362.5 501.5 368.544 501.5 376 501.5 383.456 495.456 389.5 488 389.5 480.544 389.5 474.5 383.456 474.5 376Z" stroke="#000000" stroke-width="0" stroke-linejoin="round" stroke-miterlimit="10" fill="#FFFF66" fill-rule="evenodd"/><path d="M478.458 366.458 497.542 385.542M497.542 366.458 478.458 385.542M474.5 376C474.5 368.542 480.542 362.5 488 362.5 495.458 362.5 501.5 368.542 501.5 376 501.5 383.458 495.458 389.5 488 389.5 480.542 389.5 474.5 383.458 474.5 376Z" stroke="#000000" stroke-width="0.666667" stroke-linecap="round" stroke-linejoin="round" stroke-miterlimit="10" fill="none" fill-rule="evenodd"/><path d="M474.5 340C474.5 332.544 480.544 326.5 488 326.5 495.456 326.5 501.5 332.544 501.5 340 501.5 347.456 495.456 353.5 488 353.5 480.544 353.5 474.5 347.456 474.5 340Z" stroke="#000000" stroke-width="0" stroke-linejoin="round" stroke-miterlimit="10" fill="#FFFF66" fill-rule="evenodd"/><path d="M478.458 330.458 497.542 349.542M497.542 330.458 478.458 349.542M474.5 340C474.5 332.542 480.542 326.5 488 326.5 495.458 326.5 501.5 332.542 501.5 340 501.5 347.458 495.458 353.5 488 353.5 480.542 353.5 474.5 347.458 474.5 340Z" stroke="#000000" stroke-width="0.666667" stroke-linecap="round" stroke-linejoin="round" stroke-miterlimit="10" fill="none" fill-rule="evenodd"/><path d="M510.5 376C510.5 368.544 516.544 362.5 524 362.5 531.456 362.5 537.5 368.544 537.5 376 537.5 383.456 531.456 389.5 524 389.5 516.544 389.5 510.5 383.456 510.5 376Z" stroke="#000000" stroke-width="0" stroke-linejoin="round" stroke-miterlimit="10" fill="#FFFF66" fill-rule="evenodd"/><path d="M514.417 366.458 533.542 385.542M533.542 366.458 514.417 385.542M510.5 376C510.5 368.542 516.542 362.5 524 362.5 531.417 362.5 537.5 368.542 537.5 376 537.5 383.458 531.417 389.5 524 389.5 516.542 389.5 510.5 383.458 510.5 376Z" stroke="#000000" stroke-width="0.666667" stroke-linecap="round" stroke-linejoin="round" stroke-miterlimit="10" fill="none" fill-rule="evenodd"/><path d="M510.5 340C510.5 332.544 516.544 326.5 524 326.5 531.456 326.5 537.5 332.544 537.5 340 537.5 347.456 531.456 353.5 524 353.5 516.544 353.5 510.5 347.456 510.5 340Z" stroke="#000000" stroke-width="0" stroke-linejoin="round" stroke-miterlimit="10" fill="#FFFF66" fill-rule="evenodd"/><path d="M514.458 330.458 533.542 349.542M533.542 330.458 514.458 349.542M510.5 340C510.5 332.542 516.542 326.5 524 326.5 531.458 326.5 537.5 332.542 537.5 340 537.5 347.458 531.458 353.5 524 353.5 516.542 353.5 510.5 347.458 510.5 340Z" stroke="#000000" stroke-width="0.666667" stroke-linecap="round" stroke-linejoin="round" stroke-miterlimit="10" fill="none" fill-rule="evenodd"/><text font-family="Calibri,Calibri_MSFontService,sans-serif" font-weight="400" font-size="14" transform="translate(392.617 414)">Grupo de iluminación N<tspan x="134.333" y="0">°</tspan><tspan x="139" y="0">2</tspan></text><rect x="406.5" y="280.5" width="14" height="28" stroke="#000000" stroke-width="0.666667" stroke-linecap="round" stroke-linejoin="round" stroke-miterlimit="10" fill="none"/><path d="M0 0 14 28" stroke="#000000" stroke-width="0.666667" stroke-linecap="round" stroke-linejoin="round" stroke-miterlimit="10" fill="none" fill-rule="evenodd" transform="matrix(1 0 0 -1 406.5 308.5)"/><path d="M406.5 280.5 420.5 308.5" stroke="#000000" stroke-width="0.666667" stroke-linecap="round" stroke-linejoin="round" stroke-miterlimit="10" fill="none" fill-rule="evenodd"/><rect x="420.5" y="280.5" width="57" height="28" stroke="#000000" stroke-width="0.666667" stroke-linecap="round" stroke-linejoin="round" stroke-miterlimit="10" fill="none"/><text font-family="Arial,Arial_MSFontService,sans-serif" font-weight="400" font-size="11" transform="translate(426.283 297)">Lights_1</text><path d="M592.5 171.5 592.5 439.5" stroke="#FF0000" stroke-linecap="round" stroke-linejoin="round" stroke-miterlimit="10" fill="none" fill-rule="evenodd"/><path d="M903.5 302.5 903.5 316.5" stroke="#FF0000" stroke-linecap="round" stroke-linejoin="round" stroke-miterlimit="10" fill="none" fill-rule="evenodd"/><rect x="867" y="316" width="101" height="132" fill="#FFFFFF"/><path d="M867.5 448.5 968.5 448.5 968.5 316.5 867.5 316.5 867.5 448.5ZM918.083 448.5 918.083 316.5 918.083 448.5Z" stroke="#000000" stroke-linecap="round" stroke-linejoin="round" stroke-miterlimit="10" fill="none" fill-rule="evenodd"/><path d="M938.378 356.457 960.834 356.457 960.834 328.499 938.378 328.499 938.378 356.457ZM902.283 339.815 905.277 339.815 905.277 328 902.283 328 902.283 339.815ZM902.283 356.956 905.277 356.956 905.277 345.141 902.283 345.141 902.283 356.956ZM895.131 339.815 898.125 339.815 898.125 328 895.131 328 895.131 339.815ZM895.131 356.956 898.125 356.956 898.125 345.141 895.131 345.141 895.131 356.956ZM884.152 339.815 887.313 339.815 887.313 328 884.152 328 884.152 339.815ZM884.152 356.956 887.313 356.956 887.313 345.141 884.152 345.141 884.152 356.956ZM877 339.815 879.994 339.815 879.994 328 877 328 877 339.815ZM877 356.956 879.994 356.956 879.994 345.141 877 345.141 877 356.956ZM934.552 421.525 934.552 423.855 961 423.855 961 421.525 934.552 421.525ZM934.552 428.681 934.552 431.011 961 431.011 961 428.681 934.552 428.681ZM934.552 435.67 934.552 438 961 438 961 435.67 934.552 435.67ZM881.99 423.855 908.438 423.855 908.438 421.525 881.99 421.525 881.99 423.855ZM881.99 431.011 908.438 431.011 908.438 428.681 881.99 428.681 881.99 431.011ZM881.99 438 908.438 438 908.438 435.67 881.99 435.67 881.99 438Z" fill-rule="evenodd"/><path d="M955.592 333.108C955.218 334.179 955.717 335.333 956.673 335.746 957.671 336.158 958.752 335.622 959.126 334.55 959.126 334.55 959.126 334.55 959.126 334.509 959.5 333.479 959.001 332.283 958.004 331.912 957.047 331.5 955.967 332.036 955.592 333.066 955.592 333.108 955.592 333.108 955.592 333.108ZM955.592 339.167C955.218 340.197 955.676 341.393 956.632 341.846 957.588 342.258 958.669 341.763 959.084 340.733 959.084 340.733 959.084 340.733 959.084 340.733 959.5 339.661 959.043 338.466 958.087 338.054 957.131 337.6 956.008 338.095 955.634 339.126 955.592 339.126 955.592 339.167 955.592 339.167ZM955.634 345.226C955.218 346.256 955.634 347.452 956.59 347.946 957.546 348.4 958.669 347.905 959.084 346.875 959.084 346.875 959.084 346.875 959.084 346.875 959.5 345.844 959.084 344.649 958.128 344.195 957.172 343.701 956.05 344.195 955.634 345.226 955.634 345.226 955.634 345.226 955.634 345.226ZM955.634 351.367C955.218 352.398 955.634 353.593 956.59 354.047 957.546 354.5 958.669 354.047 959.084 353.016 959.084 353.016 959.084 352.975 959.084 352.975 959.5 351.945 959.084 350.749 958.128 350.296 957.172 349.842 956.05 350.296 955.634 351.326 955.634 351.326 955.634 351.326 955.634 351.367ZM948.692 333.19C948.359 334.262 948.9 335.416 949.897 335.787 950.895 336.117 951.934 335.539 952.267 334.468 952.267 334.468 952.267 334.427 952.267 334.427 952.599 333.355 952.059 332.201 951.061 331.871 950.064 331.5 949.024 332.118 948.692 333.19 948.692 333.19 948.692 333.19 948.692 333.19ZM948.692 339.249C948.359 340.321 948.858 341.475 949.856 341.887 950.812 342.258 951.893 341.681 952.267 340.651 952.267 340.609 952.267 340.609 952.267 340.609 952.599 339.538 952.101 338.384 951.144 338.013 950.147 337.6 949.066 338.177 948.692 339.249 948.692 339.249 948.692 339.249 948.692 339.249ZM948.733 345.35C948.359 346.38 948.816 347.575 949.814 347.988 950.77 348.358 951.851 347.864 952.225 346.792 952.225 346.792 952.267 346.792 952.267 346.751 952.641 345.72 952.142 344.525 951.144 344.154 950.188 343.742 949.107 344.278 948.733 345.308 948.733 345.308 948.733 345.308 948.733 345.35ZM948.733 351.45C948.359 352.522 948.816 353.676 949.814 354.088 950.77 354.5 951.851 353.964 952.225 352.893 952.225 352.893 952.267 352.893 952.267 352.893 952.641 351.821 952.142 350.667 951.144 350.255 950.188 349.842 949.107 350.378 948.733 351.45 948.733 351.45 948.733 351.45 948.733 351.45ZM941.791 333.314C941.5 334.385 942.124 335.498 943.121 335.787 944.119 336.117 945.158 335.457 945.449 334.344 945.449 334.344 945.449 334.344 945.449 334.344 945.699 333.231 945.117 332.118 944.119 331.83 943.08 331.541 942.082 332.201 941.791 333.272 941.791 333.272 941.791 333.272 941.791 333.314ZM941.791 339.373C941.5 340.445 942.082 341.599 943.08 341.887 944.077 342.217 945.117 341.599 945.408 340.527 945.408 340.527 945.408 340.527 945.408 340.527 945.74 339.414 945.158 338.301 944.161 337.971 943.163 337.642 942.124 338.26 941.791 339.332 941.791 339.332 941.791 339.332 941.791 339.373ZM941.791 345.432C941.5 346.504 942.04 347.658 943.038 348.029 944.036 348.358 945.075 347.74 945.408 346.669 945.408 346.669 945.408 346.669 945.408 346.669 945.74 345.597 945.2 344.443 944.202 344.113 943.204 343.742 942.124 344.36 941.833 345.432 941.791 345.432 941.791 345.432 941.791 345.432ZM941.791 351.574C941.5 352.645 942.04 353.799 943.038 354.129 944.036 354.459 945.075 353.882 945.408 352.81 945.408 352.81 945.408 352.769 945.408 352.769 945.74 351.697 945.2 350.543 944.202 350.213 943.204 349.884 942.124 350.461 941.833 351.532 941.791 351.532 941.791 351.574 941.791 351.574Z" stroke="#000000" stroke-width="0" stroke-linejoin="round" stroke-miterlimit="10" fill="#C05046" fill-rule="evenodd"/><text font-family="Calibri,Calibri_MSFontService,sans-serif" font-weight="400" font-size="14" transform="translate(869.45 466)">Rack de equipos <tspan x="10.8333" y="17">informáticos</tspan></text><path d="M871.783 281.56C873.211 275.718 876.192 274.054 878.418 277.85 879.719 279.982 880.517 283.607 880.601 287.574 880.601 294.482 882.701 300.112 885.346 300.197 887.488 300.24 889.377 296.615 890.007 291.327M867.5 302.5 894.5 302.5 894.5 273.5 867.5 273.5 867.5 302.5Z" stroke="#000000" stroke-width="0.666667" stroke-linecap="round" stroke-linejoin="round" stroke-miterlimit="10" fill="none" fill-rule="evenodd"/><rect x="894.5" y="273.5" width="54" height="29" stroke="#000000" stroke-width="0.666667" stroke-linecap="round" stroke-linejoin="round" stroke-miterlimit="10" fill="none"/><text font-family="Arial,Arial_MSFontService,sans-serif" font-weight="400" font-size="11" transform="translate(906.117 290)">Rack</text><path d="M260.836 103.497 260.836 112.816C260.836 113.191 260.544 113.482 260.168 113.482 259.792 113.482 259.5 113.191 259.5 112.816L259.5 103.497C259.5 103.123 259.792 102.831 260.168 102.831 260.544 102.831 260.836 103.123 260.836 103.497ZM260.836 119.473 260.836 128.792C260.836 129.166 260.544 129.457 260.168 129.457 259.792 129.457 259.5 129.166 259.5 128.792L259.5 119.473C259.5 119.098 259.792 118.807 260.168 118.807 260.544 118.807 260.836 119.098 260.836 119.473ZM260.836 135.448 260.836 144.767C260.836 145.142 260.544 145.433 260.168 145.433 259.792 145.433 259.5 145.142 259.5 144.767L259.5 135.448C259.5 135.074 259.792 134.783 260.168 134.783 260.544 134.783 260.836 135.074 260.836 135.448ZM260.836 151.424 260.836 160.743C260.836 161.118 260.544 161.409 260.168 161.409 259.792 161.409 259.5 161.118 259.5 160.743L259.5 151.424C259.5 151.05 259.792 150.758 260.168 150.758 260.544 150.758 260.836 151.05 260.836 151.424ZM260.836 167.4 260.836 176.719C260.836 177.093 260.544 177.384 260.168 177.384 259.792 177.384 259.5 177.093 259.5 176.719L259.5 167.4C259.5 167.025 259.792 166.734 260.168 166.734 260.544 166.734 260.836 167.025 260.836 167.4ZM260.836 183.375 260.836 192.694C260.836 193.069 260.544 193.36 260.168 193.36 259.792 193.36 259.5 193.069 259.5 192.694L259.5 183.375C259.5 183.001 259.792 182.71 260.168 182.71 260.544 182.71 260.836 183.001 260.836 183.375ZM260.836 199.351 260.836 208.67C260.836 209.044 260.544 209.336 260.168 209.336 259.792 209.336 259.5 209.044 259.5 208.67L259.5 199.351C259.5 198.976 259.792 198.685 260.168 198.685 260.544 198.685 260.836 198.976 260.836 199.351ZM260.836 215.327 260.836 224.646C260.836 225.02 260.544 225.311 260.168 225.311 259.792 225.311 259.5 225.02 259.5 224.646L259.5 215.327C259.5 214.952 259.792 214.661 260.168 214.661 260.544 214.661 260.836 214.952 260.836 215.327ZM260.836 231.302 260.836 240.621C260.836 240.996 260.544 241.287 260.168 241.287 259.792 241.287 259.5 240.996 259.5 240.621L259.5 231.302C259.5 230.928 259.792 230.637 260.168 230.637 260.544 230.637 260.836 230.928 260.836 231.302ZM260.836 247.278 260.836 256.597C260.836 256.971 260.544 257.263 260.168 257.263 259.792 257.263 259.5 256.971 259.5 256.597L259.5 247.278C259.5 246.903 259.792 246.612 260.168 246.612 260.544 246.612 260.836 246.903 260.836 247.278ZM260.836 263.253 260.836 264.834 260.168 264.169 267.931 264.169C268.307 264.169 268.599 264.46 268.599 264.834 268.599 265.209 268.307 265.5 267.931 265.5L260.168 265.5C259.792 265.5 259.5 265.209 259.5 264.834L259.5 263.253C259.5 262.879 259.792 262.588 260.168 262.588 260.544 262.588 260.836 262.879 260.836 263.253ZM274.61 264.169 283.959 264.169C284.335 264.169 284.627 264.46 284.627 264.834 284.627 265.209 284.335 265.5 283.959 265.5L274.61 265.5C274.234 265.5 273.942 265.209 273.942 264.834 273.942 264.46 274.234 264.169 274.61 264.169ZM290.637 264.169 299.987 264.169C300.363 264.169 300.655 264.46 300.655 264.834 300.655 265.209 300.363 265.5 299.987 265.5L290.637 265.5C290.262 265.5 289.97 265.209 289.97 264.834 289.97 264.46 290.262 264.169 290.637 264.169ZM306.665 264.169 316.015 264.169C316.391 264.169 316.683 264.46 316.683 264.834 316.683 265.209 316.391 265.5 316.015 265.5L306.665 265.5C306.29 265.5 305.997 265.209 305.997 264.834 305.997 264.46 306.29 264.169 306.665 264.169ZM322.693 264.169 332.043 264.169C332.418 264.169 332.711 264.46 332.711 264.834 332.711 265.209 332.418 265.5 332.043 265.5L322.693 265.5C322.317 265.5 322.025 265.209 322.025 264.834 322.025 264.46 322.317 264.169 322.693 264.169ZM338.721 264.169 348.07 264.169C348.446 264.169 348.738 264.46 348.738 264.834 348.738 265.209 348.446 265.5 348.07 265.5L338.721 265.5C338.345 265.5 338.053 265.209 338.053 264.834 338.053 264.46 338.345 264.169 338.721 264.169ZM354.749 264.169 354.832 264.169 354.164 264.834 354.164 255.557C354.164 255.182 354.457 254.891 354.832 254.891 355.166 254.891 355.5 255.182 355.5 255.557L355.5 264.834C355.5 265.209 355.166 265.5 354.832 265.5L354.749 265.5C354.373 265.5 354.081 265.209 354.081 264.834 354.081 264.46 354.373 264.169 354.749 264.169ZM354.164 248.9 354.164 239.581C354.164 239.207 354.457 238.916 354.832 238.916 355.166 238.916 355.5 239.207 355.5 239.581L355.5 248.9C355.5 249.275 355.166 249.566 354.832 249.566 354.457 249.566 354.164 249.275 354.164 248.9ZM354.164 232.925 354.164 223.606C354.164 223.231 354.457 222.94 354.832 222.94 355.166 222.94 355.5 223.231 355.5 223.606L355.5 232.925C355.5 233.299 355.166 233.59 354.832 233.59 354.457 233.59 354.164 233.299 354.164 232.925ZM354.164 216.949 354.164 207.63C354.164 207.255 354.457 206.964 354.832 206.964 355.166 206.964 355.5 207.255 355.5 207.63L355.5 216.949C355.5 217.323 355.166 217.615 354.832 217.615 354.457 217.615 354.164 217.323 354.164 216.949ZM354.164 200.973 354.164 191.654C354.164 191.28 354.457 190.989 354.832 190.989 355.166 190.989 355.5 191.28 355.5 191.654L355.5 200.973C355.5 201.348 355.166 201.639 354.832 201.639 354.457 201.639 354.164 201.348 354.164 200.973ZM354.164 184.998 354.164 175.679C354.164 175.304 354.457 175.013 354.832 175.013 355.166 175.013 355.5 175.304 355.5 175.679L355.5 184.998C355.5 185.372 355.166 185.663 354.832 185.663 354.457 185.663 354.164 185.372 354.164 184.998ZM354.164 169.022 354.164 159.703C354.164 159.329 354.457 159.037 354.832 159.037 355.166 159.037 355.5 159.329 355.5 159.703L355.5 169.022C355.5 169.397 355.166 169.688 354.832 169.688 354.457 169.688 354.164 169.397 354.164 169.022ZM354.164 153.046 354.164 143.727C354.164 143.353 354.457 143.062 354.832 143.062 355.166 143.062 355.5 143.353 355.5 143.727L355.5 153.046C355.5 153.421 355.166 153.712 354.832 153.712 354.457 153.712 354.164 153.421 354.164 153.046ZM354.164 137.071 354.164 127.752C354.164 127.377 354.457 127.086 354.832 127.086 355.166 127.086 355.5 127.377 355.5 127.752L355.5 137.071C355.5 137.445 355.166 137.736 354.832 137.736 354.457 137.736 354.164 137.445 354.164 137.071ZM354.164 121.095 354.164 111.776C354.164 111.402 354.457 111.11 354.832 111.11 355.166 111.11 355.5 111.402 355.5 111.776L355.5 121.095C355.5 121.47 355.166 121.761 354.832 121.761 354.457 121.761 354.164 121.47 354.164 121.095ZM354.164 105.12 354.164 102.166 354.832 102.831 348.404 102.831C348.029 102.831 347.737 102.54 347.737 102.166 347.737 101.791 348.029 101.5 348.404 101.5L354.832 101.5C355.166 101.5 355.5 101.791 355.5 102.166L355.5 105.12C355.5 105.494 355.166 105.785 354.832 105.785 354.457 105.785 354.164 105.494 354.164 105.12ZM341.726 102.831 332.377 102.831C332.001 102.831 331.709 102.54 331.709 102.166 331.709 101.791 332.001 101.5 332.377 101.5L341.726 101.5C342.102 101.5 342.394 101.791 342.394 102.166 342.394 102.54 342.102 102.831 341.726 102.831ZM325.698 102.831 316.349 102.831C315.973 102.831 315.681 102.54 315.681 102.166 315.681 101.791 315.973 101.5 316.349 101.5L325.698 101.5C326.074 101.5 326.366 101.791 326.366 102.166 326.366 102.54 326.074 102.831 325.698 102.831ZM309.671 102.831 300.321 102.831C299.945 102.831 299.653 102.54 299.653 102.166 299.653 101.791 299.945 101.5 300.321 101.5L309.671 101.5C310.046 101.5 310.338 101.791 310.338 102.166 310.338 102.54 310.046 102.831 309.671 102.831ZM293.643 102.831 284.293 102.831C283.917 102.831 283.625 102.54 283.625 102.166 283.625 101.791 283.917 101.5 284.293 101.5L293.643 101.5C294.018 101.5 294.31 101.791 294.31 102.166 294.31 102.54 294.018 102.831 293.643 102.831ZM277.615 102.831 268.265 102.831C267.89 102.831 267.597 102.54 267.597 102.166 267.597 101.791 267.89 101.5 268.265 101.5L277.615 101.5C277.991 101.5 278.283 101.791 278.283 102.166 278.283 102.54 277.991 102.831 277.615 102.831ZM261.587 102.831 260.168 102.831C259.792 102.831 259.5 102.54 259.5 102.166 259.5 101.791 259.792 101.5 260.168 101.5L261.587 101.5C261.963 101.5 262.255 101.791 262.255 102.166 262.255 102.54 261.963 102.831 261.587 102.831Z" stroke="#3F3F3F" stroke-width="0" stroke-linejoin="round" stroke-miterlimit="10" fill="#3F3F3F" fill-rule="evenodd"/><rect x="251" y="248" width="37" height="28" fill="#FFFFFF"/><path d="M257.349 256.282C259.341 250.641 263.41 249.077 266.461 252.7 268.199 254.759 269.301 258.259 269.428 262.088 269.428 268.759 272.31 274.235 275.955 274.277 278.879 274.318 281.465 270.859 282.312 265.712M251.5 276.5 288.5 276.5 288.5 248.5 251.5 248.5 251.5 276.5Z" stroke="#000000" stroke-width="0.666667" stroke-linecap="round" stroke-linejoin="round" stroke-miterlimit="10" fill="none" fill-rule="evenodd"/><rect x="288" y="248" width="73" height="28" fill="#FFFFFF"/><rect x="288.5" y="248.5" width="73" height="28" stroke="#000000" stroke-width="0.666667" stroke-linecap="round" stroke-linejoin="round" stroke-miterlimit="10" fill="none"/><rect x="289" y="253" width="68" height="19" fill="#FFFFFF"/><text font-family="Arial,Arial_MSFontService,sans-serif" font-weight="400" font-size="11" transform="translate(295.117 265)">Main_RST</text><path d="M446.5 124C446.5 122.619 447.619 121.5 449 121.5 450.381 121.5 451.5 122.619 451.5 124 451.5 125.381 450.381 126.5 449 126.5 447.619 126.5 446.5 125.381 446.5 124Z" stroke="#000000" stroke-width="0" stroke-linejoin="round" stroke-miterlimit="10" fill-rule="evenodd"/><path d="M446.5 124C446.5 122.619 447.619 121.5 449 121.5 450.381 121.5 451.5 122.619 451.5 124 451.5 125.381 450.381 126.5 449 126.5 447.619 126.5 446.5 125.381 446.5 124Z" stroke="#000000" stroke-width="0.666667" stroke-linecap="round" stroke-linejoin="round" stroke-miterlimit="10" fill="none" fill-rule="evenodd"/><path d="M800.5 124C800.5 122.619 801.396 121.5 802.5 121.5 803.605 121.5 804.5 122.619 804.5 124 804.5 125.381 803.605 126.5 802.5 126.5 801.396 126.5 800.5 125.381 800.5 124Z" stroke="#000000" stroke-width="0" stroke-linejoin="round" stroke-miterlimit="10" fill-rule="evenodd"/><path d="M800.5 124C800.5 122.619 801.396 121.5 802.5 121.5 803.605 121.5 804.5 122.619 804.5 124 804.5 125.381 803.605 126.5 802.5 126.5 801.396 126.5 800.5 125.381 800.5 124Z" stroke="#000000" stroke-width="0.666667" stroke-linecap="round" stroke-linejoin="round" stroke-miterlimit="10" fill="none" fill-rule="evenodd"/><path d="M369.5 223.5C369.5 222.395 370.395 221.5 371.5 221.5 372.605 221.5 373.5 222.395 373.5 223.5 373.5 224.605 372.605 225.5 371.5 225.5 370.395 225.5 369.5 224.605 369.5 223.5Z" stroke="#000000" stroke-width="0" stroke-linejoin="round" stroke-miterlimit="10" fill="#0000FF" fill-rule="evenodd"/><path d="M369.5 223.5C369.5 222.395 370.395 221.5 371.5 221.5 372.605 221.5 373.5 222.395 373.5 223.5 373.5 224.605 372.605 225.5 371.5 225.5 370.395 225.5 369.5 224.605 369.5 223.5Z" stroke="#0000FF" stroke-width="0.666667" stroke-linecap="round" stroke-linejoin="round" stroke-miterlimit="10" fill="none" fill-rule="evenodd"/><path d="M590.5 171.5C590.5 170.395 591.619 169.5 593 169.5 594.381 169.5 595.5 170.395 595.5 171.5 595.5 172.605 594.381 173.5 593 173.5 591.619 173.5 590.5 172.605 590.5 171.5Z" stroke="#000000" stroke-width="0" stroke-linejoin="round" stroke-miterlimit="10" fill="#FF0000" fill-rule="evenodd"/><path d="M590.5 171.5C590.5 170.395 591.619 169.5 593 169.5 594.381 169.5 595.5 170.395 595.5 171.5 595.5 172.605 594.381 173.5 593 173.5 591.619 173.5 590.5 172.605 590.5 171.5Z" stroke="#FF0000" stroke-width="0.666667" stroke-linecap="round" stroke-linejoin="round" stroke-miterlimit="10" fill="none" fill-rule="evenodd"/><path d="M676.5 171.5C676.5 170.395 677.619 169.5 679 169.5 680.381 169.5 681.5 170.395 681.5 171.5 681.5 172.605 680.381 173.5 679 173.5 677.619 173.5 676.5 172.605 676.5 171.5Z" stroke="#000000" stroke-width="0" stroke-linejoin="round" stroke-miterlimit="10" fill="#FF0000" fill-rule="evenodd"/><path d="M676.5 171.5C676.5 170.395 677.619 169.5 679 169.5 680.381 169.5 681.5 170.395 681.5 171.5 681.5 172.605 680.381 173.5 679 173.5 677.619 173.5 676.5 172.605 676.5 171.5Z" stroke="#FF0000" stroke-width="0.666667" stroke-linecap="round" stroke-linejoin="round" stroke-miterlimit="10" fill="none" fill-rule="evenodd"/><path d="M900.5 171.5C900.5 170.395 901.619 169.5 903 169.5 904.381 169.5 905.5 170.395 905.5 171.5 905.5 172.605 904.381 173.5 903 173.5 901.619 173.5 900.5 172.605 900.5 171.5Z" stroke="#000000" stroke-width="0" stroke-linejoin="round" stroke-miterlimit="10" fill="#FF0000" fill-rule="evenodd"/><path d="M900.5 171.5C900.5 170.395 901.619 169.5 903 169.5 904.381 169.5 905.5 170.395 905.5 171.5 905.5 172.605 904.381 173.5 903 173.5 901.619 173.5 900.5 172.605 900.5 171.5Z" stroke="#FF0000" stroke-width="0.666667" stroke-linecap="round" stroke-linejoin="round" stroke-miterlimit="10" fill="none" fill-rule="evenodd"/><path d="M311.835 430.493 311.835 439.793C311.835 440.167 311.543 440.458 311.168 440.458 310.834 440.458 310.5 440.167 310.5 439.793L310.5 430.493C310.5 430.161 310.834 429.829 311.168 429.829 311.543 429.829 311.835 430.161 311.835 430.493ZM311.835 446.436 311.835 455.737C311.835 456.11 311.543 456.401 311.168 456.401 310.834 456.401 310.5 456.11 310.5 455.737L310.5 446.436C310.5 446.104 310.834 445.772 311.168 445.772 311.543 445.772 311.835 446.104 311.835 446.436ZM311.835 462.38 311.835 471.68C311.835 472.054 311.543 472.345 311.168 472.345 310.834 472.345 310.5 472.054 310.5 471.68L310.5 462.38C310.5 462.048 310.834 461.716 311.168 461.716 311.543 461.716 311.835 462.048 311.835 462.38ZM314.713 474.171 324.058 474.171C324.433 474.171 324.725 474.462 324.725 474.836 324.725 475.209 324.433 475.5 324.058 475.5L314.713 475.5C314.338 475.5 314.046 475.209 314.046 474.836 314.046 474.462 314.338 474.171 314.713 474.171ZM330.732 474.171 340.076 474.171C340.452 474.171 340.744 474.462 340.744 474.836 340.744 475.209 340.452 475.5 340.076 475.5L330.732 475.5C330.357 475.5 330.065 475.209 330.065 474.836 330.065 474.462 330.357 474.171 330.732 474.171ZM346.751 474.171 356.095 474.171C356.471 474.171 356.763 474.462 356.763 474.836 356.763 475.209 356.471 475.5 356.095 475.5L346.751 475.5C346.375 475.5 346.083 475.209 346.083 474.836 346.083 474.462 346.375 474.171 346.751 474.171ZM362.77 474.171 372.114 474.171C372.489 474.171 372.781 474.462 372.781 474.836 372.781 475.209 372.489 475.5 372.114 475.5L362.77 475.5C362.394 475.5 362.102 475.209 362.102 474.836 362.102 474.462 362.394 474.171 362.77 474.171ZM378.788 474.171 388.133 474.171C388.508 474.171 388.8 474.462 388.8 474.836 388.8 475.209 388.508 475.5 388.133 475.5L378.788 475.5C378.413 475.5 378.121 475.209 378.121 474.836 378.121 474.462 378.413 474.171 378.788 474.171ZM394.807 474.171 404.152 474.171C404.527 474.171 404.819 474.462 404.819 474.836 404.819 475.209 404.527 475.5 404.152 475.5L394.807 475.5C394.432 475.5 394.14 475.209 394.14 474.836 394.14 474.462 394.432 474.171 394.807 474.171ZM410.826 474.171 420.17 474.171C420.546 474.171 420.838 474.462 420.838 474.836 420.838 475.209 420.546 475.5 420.17 475.5L410.826 475.5C410.451 475.5 410.159 475.209 410.159 474.836 410.159 474.462 410.451 474.171 410.826 474.171ZM426.845 474.171 436.189 474.171C436.565 474.171 436.857 474.462 436.857 474.836 436.857 475.209 436.565 475.5 436.189 475.5L426.845 475.5C426.469 475.5 426.177 475.209 426.177 474.836 426.177 474.462 426.469 474.171 426.845 474.171ZM442.864 474.171 452.208 474.171C452.583 474.171 452.875 474.462 452.875 474.836 452.875 475.209 452.583 475.5 452.208 475.5L442.864 475.5C442.488 475.5 442.196 475.209 442.196 474.836 442.196 474.462 442.488 474.171 442.864 474.171ZM458.882 474.171 468.227 474.171C468.602 474.171 468.894 474.462 468.894 474.836 468.894 475.209 468.602 475.5 468.227 475.5L458.882 475.5C458.507 475.5 458.215 475.209 458.215 474.836 458.215 474.462 458.507 474.171 458.882 474.171ZM474.901 474.171 484.245 474.171C484.621 474.171 484.913 474.462 484.913 474.836 484.913 475.209 484.621 475.5 484.245 475.5L474.901 475.5C474.526 475.5 474.234 475.209 474.234 474.836 474.234 474.462 474.526 474.171 474.901 474.171ZM490.92 474.171 500.264 474.171C500.64 474.171 500.932 474.462 500.932 474.836 500.932 475.209 500.64 475.5 500.264 475.5L490.92 475.5C490.544 475.5 490.253 475.209 490.253 474.836 490.253 474.462 490.544 474.171 490.92 474.171ZM506.939 474.171 516.283 474.171C516.658 474.171 516.95 474.462 516.95 474.836 516.95 475.209 516.658 475.5 516.283 475.5L506.939 475.5C506.563 475.5 506.271 475.209 506.271 474.836 506.271 474.462 506.563 474.171 506.939 474.171ZM522.958 474.171 532.302 474.171C532.677 474.171 532.969 474.462 532.969 474.836 532.969 475.209 532.677 475.5 532.302 475.5L522.958 475.5C522.582 475.5 522.29 475.209 522.29 474.836 522.29 474.462 522.582 474.171 522.958 474.171ZM538.976 474.171 548.321 474.171C548.696 474.171 548.988 474.462 548.988 474.836 548.988 475.209 548.696 475.5 548.321 475.5L538.976 475.5C538.601 475.5 538.309 475.209 538.309 474.836 538.309 474.462 538.601 474.171 538.976 474.171ZM554.995 474.171 564.339 474.171C564.715 474.171 565.007 474.462 565.007 474.836 565.007 475.209 564.715 475.5 564.339 475.5L554.995 475.5C554.62 475.5 554.328 475.209 554.328 474.836 554.328 474.462 554.62 474.171 554.995 474.171ZM571.014 474.171 580.358 474.171C580.734 474.171 581.026 474.462 581.026 474.836 581.026 475.209 580.734 475.5 580.358 475.5L571.014 475.5C570.638 475.5 570.346 475.209 570.346 474.836 570.346 474.462 570.638 474.171 571.014 474.171ZM587.033 474.171 596.377 474.171C596.752 474.171 597.044 474.462 597.044 474.836 597.044 475.209 596.752 475.5 596.377 475.5L587.033 475.5C586.657 475.5 586.365 475.209 586.365 474.836 586.365 474.462 586.657 474.171 587.033 474.171ZM603.051 474.171 612.396 474.171C612.771 474.171 613.063 474.462 613.063 474.836 613.063 475.209 612.771 475.5 612.396 475.5L603.051 475.5C602.676 475.5 602.384 475.209 602.384 474.836 602.384 474.462 602.676 474.171 603.051 474.171ZM619.07 474.171 628.415 474.171C628.79 474.171 629.082 474.462 629.082 474.836 629.082 475.209 628.79 475.5 628.415 475.5L619.07 475.5C618.695 475.5 618.403 475.209 618.403 474.836 618.403 474.462 618.695 474.171 619.07 474.171ZM635.089 474.171 644.433 474.171C644.809 474.171 645.101 474.462 645.101 474.836 645.101 475.209 644.809 475.5 644.433 475.5L635.089 475.5C634.714 475.5 634.422 475.209 634.422 474.836 634.422 474.462 634.714 474.171 635.089 474.171ZM651.108 474.171 660.452 474.171C660.828 474.171 661.12 474.462 661.12 474.836 661.12 475.209 660.828 475.5 660.452 475.5L651.108 475.5C650.732 475.5 650.44 475.209 650.44 474.836 650.44 474.462 650.732 474.171 651.108 474.171ZM667.127 474.171 676.471 474.171C676.846 474.171 677.138 474.462 677.138 474.836 677.138 475.209 676.846 475.5 676.471 475.5L667.127 475.5C666.751 475.5 666.459 475.209 666.459 474.836 666.459 474.462 666.751 474.171 667.127 474.171ZM683.145 474.171 692.49 474.171C692.865 474.171 693.157 474.462 693.157 474.836 693.157 475.209 692.865 475.5 692.49 475.5L683.145 475.5C682.77 475.5 682.478 475.209 682.478 474.836 682.478 474.462 682.77 474.171 683.145 474.171ZM699.164 474.171 708.508 474.171C708.884 474.171 709.176 474.462 709.176 474.836 709.176 475.209 708.884 475.5 708.508 475.5L699.164 475.5C698.789 475.5 698.497 475.209 698.497 474.836 698.497 474.462 698.789 474.171 699.164 474.171ZM715.183 474.171 724.527 474.171C724.903 474.171 725.195 474.462 725.195 474.836 725.195 475.209 724.903 475.5 724.527 475.5L715.183 475.5C714.807 475.5 714.515 475.209 714.515 474.836 714.515 474.462 714.807 474.171 715.183 474.171ZM731.202 474.171 740.546 474.171C740.921 474.171 741.213 474.462 741.213 474.836 741.213 475.209 740.921 475.5 740.546 475.5L731.202 475.5C730.826 475.5 730.534 475.209 730.534 474.836 730.534 474.462 730.826 474.171 731.202 474.171ZM747.22 474.171 756.565 474.171C756.94 474.171 757.232 474.462 757.232 474.836 757.232 475.209 756.94 475.5 756.565 475.5L747.22 475.5C746.845 475.5 746.553 475.209 746.553 474.836 746.553 474.462 746.845 474.171 747.22 474.171ZM763.239 474.171 772.584 474.171C772.959 474.171 773.251 474.462 773.251 474.836 773.251 475.209 772.959 475.5 772.584 475.5L763.239 475.5C762.864 475.5 762.572 475.209 762.572 474.836 762.572 474.462 762.864 474.171 763.239 474.171ZM779.258 474.171 788.602 474.171C788.978 474.171 789.27 474.462 789.27 474.836 789.27 475.209 788.978 475.5 788.602 475.5L779.258 475.5C778.883 475.5 778.591 475.209 778.591 474.836 778.591 474.462 778.883 474.171 779.258 474.171ZM795.277 474.171 804.621 474.171C804.997 474.171 805.289 474.462 805.289 474.836 805.289 475.209 804.997 475.5 804.621 475.5L795.277 475.5C794.901 475.5 794.609 475.209 794.609 474.836 794.609 474.462 794.901 474.171 795.277 474.171ZM811.296 474.171 820.64 474.171C821.015 474.171 821.307 474.462 821.307 474.836 821.307 475.209 821.015 475.5 820.64 475.5L811.296 475.5C810.92 475.5 810.628 475.209 810.628 474.836 810.628 474.462 810.92 474.171 811.296 474.171ZM827.314 474.171 836.659 474.171C837.034 474.171 837.326 474.462 837.326 474.836 837.326 475.209 837.034 475.5 836.659 475.5L827.314 475.5C826.939 475.5 826.647 475.209 826.647 474.836 826.647 474.462 826.939 474.171 827.314 474.171ZM842.165 474.338 842.165 465.037C842.165 464.663 842.457 464.373 842.833 464.373 843.208 464.373 843.5 464.663 843.5 465.037L843.5 474.338C843.5 474.67 843.208 475.002 842.833 475.002 842.457 475.002 842.165 474.67 842.165 474.338ZM842.165 458.394 842.165 449.094C842.165 448.72 842.457 448.429 842.833 448.429 843.208 448.429 843.5 448.72 843.5 449.094L843.5 458.394C843.5 458.726 843.208 459.058 842.833 459.058 842.457 459.058 842.165 458.726 842.165 458.394ZM842.165 442.451 842.165 433.15C842.165 432.777 842.457 432.486 842.833 432.486 843.208 432.486 843.5 432.777 843.5 433.15L843.5 442.451C843.5 442.783 843.208 443.115 842.833 443.115 842.457 443.115 842.165 442.783 842.165 442.451ZM840.121 429.829 830.777 429.829C830.401 429.829 830.109 429.538 830.109 429.164 830.109 428.832 830.401 428.5 830.777 428.5L840.121 428.5C840.497 428.5 840.789 428.832 840.789 429.164 840.789 429.538 840.497 429.829 840.121 429.829ZM824.102 429.829 814.758 429.829C814.383 429.829 814.091 429.538 814.091 429.164 814.091 428.832 814.383 428.5 814.758 428.5L824.102 428.5C824.478 428.5 824.77 428.832 824.77 429.164 824.77 429.538 824.478 429.829 824.102 429.829ZM808.083 429.829 798.739 429.829C798.364 429.829 798.072 429.538 798.072 429.164 798.072 428.832 798.364 428.5 798.739 428.5L808.083 428.5C808.459 428.5 808.751 428.832 808.751 429.164 808.751 429.538 808.459 429.829 808.083 429.829ZM792.065 429.829 782.72 429.829C782.345 429.829 782.053 429.538 782.053 429.164 782.053 428.832 782.345 428.5 782.72 428.5L792.065 428.5C792.44 428.5 792.732 428.832 792.732 429.164 792.732 429.538 792.44 429.829 792.065 429.829ZM776.046 429.829 766.702 429.829C766.326 429.829 766.034 429.538 766.034 429.164 766.034 428.832 766.326 428.5 766.702 428.5L776.046 428.5C776.421 428.5 776.713 428.832 776.713 429.164 776.713 429.538 776.421 429.829 776.046 429.829ZM760.027 429.829 750.683 429.829C750.307 429.829 750.015 429.538 750.015 429.164 750.015 428.832 750.307 428.5 750.683 428.5L760.027 428.5C760.403 428.5 760.695 428.832 760.695 429.164 760.695 429.538 760.403 429.829 760.027 429.829ZM744.008 429.829 734.664 429.829C734.289 429.829 733.997 429.538 733.997 429.164 733.997 428.832 734.289 428.5 734.664 428.5L744.008 428.5C744.384 428.5 744.676 428.832 744.676 429.164 744.676 429.538 744.384 429.829 744.008 429.829ZM727.99 429.829 718.645 429.829C718.27 429.829 717.978 429.538 717.978 429.164 717.978 428.832 718.27 428.5 718.645 428.5L727.99 428.5C728.365 428.5 728.657 428.832 728.657 429.164 728.657 429.538 728.365 429.829 727.99 429.829ZM711.971 429.829 702.627 429.829C702.251 429.829 701.959 429.538 701.959 429.164 701.959 428.832 702.251 428.5 702.627 428.5L711.971 428.5C712.346 428.5 712.638 428.832 712.638 429.164 712.638 429.538 712.346 429.829 711.971 429.829ZM695.952 429.829 686.608 429.829C686.232 429.829 685.94 429.538 685.94 429.164 685.94 428.832 686.232 428.5 686.608 428.5L695.952 428.5C696.328 428.5 696.62 428.832 696.62 429.164 696.62 429.538 696.328 429.829 695.952 429.829ZM679.933 429.829 670.589 429.829C670.214 429.829 669.922 429.538 669.922 429.164 669.922 428.832 670.214 428.5 670.589 428.5L679.933 428.5C680.309 428.5 680.601 428.832 680.601 429.164 680.601 429.538 680.309 429.829 679.933 429.829ZM663.914 429.829 654.57 429.829C654.195 429.829 653.903 429.538 653.903 429.164 653.903 428.832 654.195 428.5 654.57 428.5L663.914 428.5C664.29 428.5 664.582 428.832 664.582 429.164 664.582 429.538 664.29 429.829 663.914 429.829ZM647.896 429.829 638.551 429.829C638.176 429.829 637.884 429.538 637.884 429.164 637.884 428.832 638.176 428.5 638.551 428.5L647.896 428.5C648.271 428.5 648.563 428.832 648.563 429.164 648.563 429.538 648.271 429.829 647.896 429.829ZM631.877 429.829 622.533 429.829C622.157 429.829 621.865 429.538 621.865 429.164 621.865 428.832 622.157 428.5 622.533 428.5L631.877 428.5C632.252 428.5 632.544 428.832 632.544 429.164 632.544 429.538 632.252 429.829 631.877 429.829ZM615.858 429.829 606.514 429.829C606.138 429.829 605.846 429.538 605.846 429.164 605.846 428.832 606.138 428.5 606.514 428.5L615.858 428.5C616.234 428.5 616.526 428.832 616.526 429.164 616.526 429.538 616.234 429.829 615.858 429.829ZM599.839 429.829 590.495 429.829C590.12 429.829 589.828 429.538 589.828 429.164 589.828 428.832 590.12 428.5 590.495 428.5L599.839 428.5C600.215 428.5 600.507 428.832 600.507 429.164 600.507 429.538 600.215 429.829 599.839 429.829ZM583.821 429.829 574.476 429.829C574.101 429.829 573.809 429.538 573.809 429.164 573.809 428.832 574.101 428.5 574.476 428.5L583.821 428.5C584.196 428.5 584.488 428.832 584.488 429.164 584.488 429.538 584.196 429.829 583.821 429.829ZM567.802 429.829 558.457 429.829C558.082 429.829 557.79 429.538 557.79 429.164 557.79 428.832 558.082 428.5 558.457 428.5L567.802 428.5C568.177 428.5 568.469 428.832 568.469 429.164 568.469 429.538 568.177 429.829 567.802 429.829ZM551.783 429.829 542.439 429.829C542.063 429.829 541.771 429.538 541.771 429.164 541.771 428.832 542.063 428.5 542.439 428.5L551.783 428.5C552.158 428.5 552.45 428.832 552.45 429.164 552.45 429.538 552.158 429.829 551.783 429.829ZM535.764 429.829 526.42 429.829C526.044 429.829 525.752 429.538 525.752 429.164 525.752 428.832 526.044 428.5 526.42 428.5L535.764 428.5C536.14 428.5 536.432 428.832 536.432 429.164 536.432 429.538 536.14 429.829 535.764 429.829ZM519.745 429.829 510.401 429.829C510.026 429.829 509.734 429.538 509.734 429.164 509.734 428.832 510.026 428.5 510.401 428.5L519.745 428.5C520.121 428.5 520.413 428.832 520.413 429.164 520.413 429.538 520.121 429.829 519.745 429.829ZM503.727 429.829 494.382 429.829C494.007 429.829 493.715 429.538 493.715 429.164 493.715 428.832 494.007 428.5 494.382 428.5L503.727 428.5C504.102 428.5 504.394 428.832 504.394 429.164 504.394 429.538 504.102 429.829 503.727 429.829ZM487.708 429.829 478.364 429.829C477.988 429.829 477.696 429.538 477.696 429.164 477.696 428.832 477.988 428.5 478.364 428.5L487.708 428.5C488.083 428.5 488.375 428.832 488.375 429.164 488.375 429.538 488.083 429.829 487.708 429.829ZM471.689 429.829 462.345 429.829C461.969 429.829 461.677 429.538 461.677 429.164 461.677 428.832 461.969 428.5 462.345 428.5L471.689 428.5C472.065 428.5 472.357 428.832 472.357 429.164 472.357 429.538 472.065 429.829 471.689 429.829ZM455.67 429.829 446.326 429.829C445.951 429.829 445.659 429.538 445.659 429.164 445.659 428.832 445.951 428.5 446.326 428.5L455.67 428.5C456.046 428.5 456.338 428.832 456.338 429.164 456.338 429.538 456.046 429.829 455.67 429.829ZM439.651 429.829 430.307 429.829C429.932 429.829 429.64 429.538 429.64 429.164 429.64 428.832 429.932 428.5 430.307 428.5L439.651 428.5C440.027 428.5 440.319 428.832 440.319 429.164 440.319 429.538 440.027 429.829 439.651 429.829ZM423.633 429.829 414.288 429.829C413.913 429.829 413.621 429.538 413.621 429.164 413.621 428.832 413.913 428.5 414.288 428.5L423.633 428.5C424.008 428.5 424.3 428.832 424.3 429.164 424.3 429.538 424.008 429.829 423.633 429.829ZM407.614 429.829 398.27 429.829C397.894 429.829 397.602 429.538 397.602 429.164 397.602 428.832 397.894 428.5 398.27 428.5L407.614 428.5C407.989 428.5 408.281 428.832 408.281 429.164 408.281 429.538 407.989 429.829 407.614 429.829ZM391.595 429.829 382.251 429.829C381.875 429.829 381.583 429.538 381.583 429.164 381.583 428.832 381.875 428.5 382.251 428.5L391.595 428.5C391.971 428.5 392.263 428.832 392.263 429.164 392.263 429.538 391.971 429.829 391.595 429.829ZM375.576 429.829 366.232 429.829C365.857 429.829 365.565 429.538 365.565 429.164 365.565 428.832 365.857 428.5 366.232 428.5L375.576 428.5C375.952 428.5 376.244 428.832 376.244 429.164 376.244 429.538 375.952 429.829 375.576 429.829ZM359.558 429.829 350.213 429.829C349.838 429.829 349.546 429.538 349.546 429.164 349.546 428.832 349.838 428.5 350.213 428.5L359.558 428.5C359.933 428.5 360.225 428.832 360.225 429.164 360.225 429.538 359.933 429.829 359.558 429.829ZM343.539 429.829 334.195 429.829C333.819 429.829 333.527 429.538 333.527 429.164 333.527 428.832 333.819 428.5 334.195 428.5L343.539 428.5C343.914 428.5 344.206 428.832 344.206 429.164 344.206 429.538 343.914 429.829 343.539 429.829ZM327.52 429.829 318.176 429.829C317.8 429.829 317.508 429.538 317.508 429.164 317.508 428.832 317.8 428.5 318.176 428.5L327.52 428.5C327.895 428.5 328.187 428.832 328.187 429.164 328.187 429.538 327.895 429.829 327.52 429.829ZM311.501 429.829 311.168 429.829C310.834 429.829 310.5 429.538 310.5 429.164 310.5 428.832 310.834 428.5 311.168 428.5L311.501 428.5C311.877 428.5 312.169 428.832 312.169 429.164 312.169 429.538 311.877 429.829 311.501 429.829Z" stroke="#3F3F3F" stroke-width="0" stroke-linejoin="round" stroke-miterlimit="10" fill="#3F3F3F" fill-rule="evenodd"/></g></svg>