<svg width="878" height="202" xmlns="http://www.w3.org/2000/svg" xmlns:xlink="http://www.w3.org/1999/xlink" overflow="hidden"><defs><clipPath id="clip0"><path d="M145 148 1023 148 1023 350 145 350Z" fill-rule="evenodd" clip-rule="evenodd"/></clipPath></defs><g clip-path="url(#clip0)" transform="translate(-145 -148)"><path d="M235.5 286.5 253.5 286.5 253.5 188.5 235.5 188.5Z" stroke="#000000" stroke-width="0.555381" stroke-miterlimit="8" fill="#000080" fill-rule="evenodd"/><path d="M391.5 286.5 409.5 286.5 409.5 189.5 391.5 189.5Z" stroke="#000000" stroke-width="0.555381" stroke-miterlimit="8" fill="#000080" fill-rule="evenodd"/><path d="M547.5 286.5 565.5 286.5 565.5 189.5 547.5 189.5Z" stroke="#000000" stroke-width="0.555381" stroke-miterlimit="8" fill="#000080" fill-rule="evenodd"/><path d="M703.5 286.5 722.5 286.5 722.5 189.5 703.5 189.5Z" stroke="#000000" stroke-width="0.555381" stroke-miterlimit="8" fill="#000080" fill-rule="evenodd"/><path d="M859.5 286.5 878.5 286.5 878.5 192.5 859.5 192.5Z" stroke="#000000" stroke-width="0.555381" stroke-miterlimit="8" fill="#000080" fill-rule="evenodd"/><path d="M253.5 286.5 272.5 286.5 272.5 173.5 253.5 173.5Z" stroke="#000000" stroke-width="0.555381" stroke-miterlimit="8" fill="#004CFF" fill-rule="evenodd"/><path d="M409.5 286.5 428.5 286.5 428.5 174.5 409.5 174.5Z" stroke="#000000" stroke-width="0.555381" stroke-miterlimit="8" fill="#004CFF" fill-rule="evenodd"/><path d="M565.5 286.5 584.5 286.5 584.5 191.5 565.5 191.5Z" stroke="#000000" stroke-width="0.555381" stroke-miterlimit="8" fill="#004CFF" fill-rule="evenodd"/><path d="M722.5 286.5 740.5 286.5 740.5 188.5 722.5 188.5Z" stroke="#000000" stroke-width="0.555381" stroke-miterlimit="8" fill="#004CFF" fill-rule="evenodd"/><path d="M878.5 286.5 896.5 286.5 896.5 188.5 878.5 188.5Z" stroke="#000000" stroke-width="0.555381" stroke-miterlimit="8" fill="#004CFF" fill-rule="evenodd"/><path d="M272.5 286.5 290.5 286.5 290.5 192.5 272.5 192.5Z" stroke="#000000" stroke-width="0.555381" stroke-miterlimit="8" fill="#29FFCE" fill-rule="evenodd"/><path d="M428.5 286.5 446.5 286.5 446.5 196.5 428.5 196.5Z" stroke="#000000" stroke-width="0.555381" stroke-miterlimit="8" fill="#29FFCE" fill-rule="evenodd"/><path d="M584.5 286.5 602.5 286.5 602.5 189.5 584.5 189.5Z" stroke="#000000" stroke-width="0.555381" stroke-miterlimit="8" fill="#29FFCE" fill-rule="evenodd"/><path d="M740.5 286.5 758.5 286.5 758.5 205.5 740.5 205.5Z" stroke="#000000" stroke-width="0.555381" stroke-miterlimit="8" fill="#29FFCE" fill-rule="evenodd"/><path d="M896.5 286.5 914.5 286.5 914.5 193.5 896.5 193.5Z" stroke="#000000" stroke-width="0.555381" stroke-miterlimit="8" fill="#29FFCE" fill-rule="evenodd"/><path d="M290.5 286.5 308.5 286.5 308.5 206.5 290.5 206.5Z" stroke="#000000" stroke-width="0.555381" stroke-miterlimit="8" fill="#CEFF29" fill-rule="evenodd"/><path d="M446.5 286.5 464.5 286.5 464.5 206.5 446.5 206.5Z" stroke="#000000" stroke-width="0.555381" stroke-miterlimit="8" fill="#CEFF29" fill-rule="evenodd"/><path d="M602.5 286.5 620.5 286.5 620.5 206.5 602.5 206.5Z" stroke="#000000" stroke-width="0.555381" stroke-miterlimit="8" fill="#CEFF29" fill-rule="evenodd"/><path d="M758.5 286.5 776.5 286.5 776.5 204.5 758.5 204.5Z" stroke="#000000" stroke-width="0.555381" stroke-miterlimit="8" fill="#CEFF29" fill-rule="evenodd"/><path d="M914.5 286.5 932.5 286.5 932.5 198.5 914.5 198.5Z" stroke="#000000" stroke-width="0.555381" stroke-miterlimit="8" fill="#CEFF29" fill-rule="evenodd"/><path d="M308.5 286.5 326.5 286.5 326.5 209.5 308.5 209.5Z" stroke="#000000" stroke-width="0.555381" stroke-miterlimit="8" fill="#FF6800" fill-rule="evenodd"/><path d="M464.5 286.5 482.5 286.5 482.5 201.5 464.5 201.5Z" stroke="#000000" stroke-width="0.555381" stroke-miterlimit="8" fill="#FF6800" fill-rule="evenodd"/><path d="M620.5 286.5 638.5 286.5 638.5 206.5 620.5 206.5Z" stroke="#000000" stroke-width="0.555381" stroke-miterlimit="8" fill="#FF6800" fill-rule="evenodd"/><path d="M776.5 286.5 794.5 286.5 794.5 204.5 776.5 204.5Z" stroke="#000000" stroke-width="0.555381" stroke-miterlimit="8" fill="#FF6800" fill-rule="evenodd"/><path d="M932.5 286.5 950.5 286.5 950.5 231.5 932.5 231.5Z" stroke="#000000" stroke-width="0.555381" stroke-miterlimit="8" fill="#FF6800" fill-rule="evenodd"/><path d="M326.5 286.5 344.5 286.5 344.5 209.5 326.5 209.5Z" stroke="#000000" stroke-width="0.555381" stroke-miterlimit="8" fill="#800000" fill-rule="evenodd"/><path d="M482.5 286.5 500.5 286.5 500.5 207.5 482.5 207.5Z" stroke="#000000" stroke-width="0.555381" stroke-miterlimit="8" fill="#800000" fill-rule="evenodd"/><path d="M638.5 286.5 657.5 286.5 657.5 199.5 638.5 199.5Z" stroke="#000000" stroke-width="0.555381" stroke-miterlimit="8" fill="#800000" fill-rule="evenodd"/><path d="M794.5 286.5 813.5 286.5 813.5 189.5 794.5 189.5Z" stroke="#000000" stroke-width="0.555381" stroke-miterlimit="8" fill="#800000" fill-rule="evenodd"/><path d="M950.5 286.5 969.5 286.5 969.5 197.5 950.5 197.5Z" stroke="#000000" stroke-width="0.555381" stroke-miterlimit="8" fill="#800000" fill-rule="evenodd"/><path d="M290.511 286.58 290.511 281.58" stroke="#000000" stroke-width="0.888609" stroke-linejoin="round" stroke-miterlimit="10" fill="none" fill-rule="evenodd"/><path d="M0.23902 1.31882 2.83701 1.31882 2.83701 9.71147 0.00977405 9.18102 0.00977405 10.5366 2.82191 11.067 4.41191 11.067 4.41191 1.31882 7.00977 1.31882 7.00977 0.0670043 0.23902 0.0670043Z" fill-rule="evenodd" transform="matrix(1 0 0 -1 277 302)"/><path d="M4.00943 10.8311C3.20405 10.8311 2.59798 10.4345 2.1911 9.6413 1.78597 8.84969 1.5834 7.65822 1.5834 6.06677 1.5834 4.48193 1.78597 3.29296 2.1911 2.49973 2.59798 1.70651 3.20405 1.30989 4.00943 1.30989 4.82144 1.30989 5.43001 1.70651 5.83527 2.49973 6.24202 3.29296 6.44546 4.48193 6.44546 6.06677 6.44546 7.65822 6.24202 8.84969 5.83527 9.6413 5.43001 10.4345 4.82144 10.8311 4.00943 10.8311ZM4.00943 12.0706C5.30767 12.0706 6.29913 11.5574 6.98368 10.5312 7.66835 9.50664 8.01075 8.01849 8.01075 6.06677 8.01075 4.12005 7.66835 2.63365 6.98368 1.60732 6.29913 0.582743 5.30767 0.0704538 4.00943 0.0704538 2.71294 0.0704538 1.72224 0.582743 1.03757 1.60732 0.35302 2.63365 0.0106218 4.12005 0.0106218 6.06677 0.0106218 8.01849 0.35302 9.50664 1.03757 10.5312 1.72224 11.5574 2.71294 12.0706 4.00943 12.0706Z" fill-rule="evenodd" transform="matrix(1 0 0 -1 287 302)"/><path d="M5.58939 8.61297 5.58939 7.28071C5.226 7.48484 4.84771 7.6375 4.45449 7.7387 4.06264 7.84163 3.65598 7.89297 3.23429 7.89297 2.59419 7.89297 2.1142 7.78609 1.7942 7.57222 1.47421 7.35834 1.31421 7.03672 1.31421 6.60724 1.31421 6.28081 1.42856 6.02448 1.65737 5.83824 1.88618 5.65214 2.34674 5.47504 3.03904 5.30682L3.48095 5.19908C4.39608 4.9852 5.04657 4.68321 5.43244 4.29297 5.8182 3.90274 6.01107 3.35823 6.01107 2.65946 6.01107 1.86269 5.72249 1.23168 5.14533 0.766404 4.56805 0.302736 3.77484 0.0708399 2.76548 0.0708399 2.34527 0.0708399 1.90708 0.115763 1.45105 0.205609 0.995009 0.295331 0.514906 0.429235 0.0110732 0.607199L0.0110732 2.06189C0.488013 1.79087 0.957609 1.5876 1.41963 1.45209 1.88166 1.31819 2.34007 1.2513 2.79464 1.2513 3.40174 1.2513 3.86829 1.36484 4.19427 1.59168 4.52172 1.81864 4.68545 2.13865 4.68545 2.55172 4.68545 2.93381 4.56737 3.22679 4.3311 3.43092 4.09631 3.63505 3.57892 3.83177 2.77893 4.02109L2.33035 4.13624C1.53184 4.31914 0.954558 4.60077 0.598746 4.98113 0.244289 5.36149 0.0671174 5.88317 0.0671174 6.54603 0.0671174 7.35266 0.328807 7.97467 0.852187 8.41218 1.37557 8.85141 2.11872 9.07096 3.08175 9.07096 3.55722 9.07096 4.00512 9.03258 4.42534 8.95582 4.84703 8.88078 5.23504 8.7665 5.58939 8.61297Z" fill-rule="evenodd" transform="matrix(1 0 0 -1 297 302)"/><path d="M446.522 286.58 446.522 281.58" stroke="#000000" stroke-width="0.888609" stroke-linejoin="round" stroke-miterlimit="10" fill="none" fill-rule="evenodd"/><path d="M4.8298 6.53284C5.51818 6.37257 6.05533 6.03866 6.44126 5.53137 6.82879 5.0257 7.02251 4.40099 7.02251 3.65735 7.02251 2.5171 6.66161 1.6338 5.93982 1.00746 5.21802 0.382874 4.19228 0.0704538 2.8626 0.0704538 2.41742 0.0704538 1.95847 0.118422 1.48584 0.214234 1.01322 0.310047 0.525442 0.453827 0.0225058 0.645576L0.0225058 2.15521C0.420606 1.90238 0.856714 1.7115 1.33083 1.58259 1.80655 1.45367 2.3034 1.38921 2.82161 1.38921 3.72276 1.38921 4.40953 1.58259 4.88216 1.96933 5.35478 2.35595 5.59109 2.91871 5.59109 3.65735 5.59109 4.3399 5.37154 4.8728 4.93233 5.25618 4.49313 5.6413 3.88225 5.8338 3.09972 5.8338L1.85972 5.8338 1.85972 7.12033 3.15667 7.12033C3.86331 7.12033 4.40425 7.27398 4.77962 7.5814 5.15498 7.8887 5.34261 8.33166 5.34261 8.91003 5.34261 9.50326 5.1489 9.95859 4.76136 10.2759 4.37543 10.5948 3.82151 10.7543 3.09972 10.7543 2.7046 10.7543 2.28136 10.7072 1.83009 10.613 1.37871 10.5205 0.88255 10.3767 0.341606 10.1817L0.341606 11.5748C0.888636 11.74 1.40076 11.864 1.87797 11.9467 2.35507 12.0292 2.80485 12.0706 3.22729 12.0706 4.31997 12.0706 5.1838 11.8004 5.81902 11.26 6.45573 10.7212 6.77414 9.99244 6.77414 9.07367 6.77414 8.43247 6.60546 7.8912 6.2681 7.44999 5.93074 7.00878 5.45123 6.70298 4.8298 6.53284Z" fill-rule="evenodd" transform="matrix(1 0 0 -1 433 302)"/><path d="M4.02418 10.8311C3.21879 10.8311 2.61272 10.4345 2.20585 9.6413 1.80072 8.84969 1.59815 7.65822 1.59815 6.06677 1.59815 4.48193 1.80072 3.29296 2.20585 2.49973 2.61272 1.70651 3.21879 1.30989 4.02418 1.30989 4.83619 1.30989 5.44476 1.70651 5.85001 2.49973 6.25677 3.29296 6.46021 4.48193 6.46021 6.06677 6.46021 7.65822 6.25677 8.84969 5.85001 9.6413 5.44476 10.4345 4.83619 10.8311 4.02418 10.8311ZM4.02418 12.0706C5.32242 12.0706 6.31388 11.5574 6.99855 10.5312 7.68309 9.50664 8.02549 8.01849 8.02549 6.06677 8.02549 4.12005 7.68309 2.63365 6.99855 1.60732 6.31388 0.582743 5.32242 0.0704538 4.02418 0.0704538 2.72769 0.0704538 1.73698 0.582743 1.05244 1.60732 0.367766 2.63365 0.0253675 4.12005 0.0253675 6.06677 0.0253675 8.01849 0.367766 9.50664 1.05244 10.5312 1.73698 11.5574 2.72769 12.0706 4.02418 12.0706Z" fill-rule="evenodd" transform="matrix(1 0 0 -1 443 302)"/><path d="M5.60272 8.61297 5.60272 7.28071C5.23934 7.48484 4.86104 7.6375 4.46783 7.7387 4.07597 7.84163 3.66931 7.89297 3.24762 7.89297 2.60752 7.89297 2.12753 7.78609 1.80754 7.57222 1.48754 7.35834 1.32755 7.03672 1.32755 6.60724 1.32755 6.28081 1.44201 6.02448 1.6707 5.83824 1.89951 5.65214 2.36007 5.47504 3.05248 5.30682L3.49428 5.19908C4.40952 4.9852 5.0599 4.68321 5.44577 4.29297 5.83153 3.90274 6.02441 3.35823 6.02441 2.65946 6.02441 1.86269 5.73582 1.23168 5.15866 0.766404 4.58138 0.302736 3.78818 0.0708399 2.77882 0.0708399 2.3586 0.0708399 1.92042 0.115763 1.46438 0.205609 1.00834 0.295331 0.528239 0.429235 0.0244063 0.607199L0.0244063 2.06189C0.501346 1.79087 0.970942 1.5876 1.43297 1.45209 1.89499 1.31819 2.3534 1.2513 2.80797 1.2513 3.41508 1.2513 3.88162 1.36484 4.2076 1.59168 4.53506 1.81864 4.69878 2.13865 4.69878 2.55172 4.69878 2.93381 4.5807 3.22679 4.34444 3.43092 4.10964 3.63505 3.59225 3.83177 2.79226 4.02109L2.34368 4.13624C1.54517 4.31914 0.967891 4.60077 0.612079 4.98113 0.257622 5.36149 0.0804505 5.88317 0.0804505 6.54603 0.0804505 7.35266 0.34214 7.97467 0.86552 8.41218 1.3889 8.85141 2.13205 9.07096 3.09508 9.07096 3.57055 9.07096 4.01846 9.03258 4.43867 8.95582 4.86036 8.88078 5.24838 8.7665 5.60272 8.61297Z" fill-rule="evenodd" transform="matrix(1 0 0 -1 453 302)"/><path d="M602.533 286.58 602.533 281.58" stroke="#000000" stroke-width="0.888609" stroke-linejoin="round" stroke-miterlimit="10" fill="none" fill-rule="evenodd"/><path d="M4.17573 6.70135C3.4723 6.70135 2.91445 6.46088 2.50231 5.98008 2.09168 5.50076 1.88643 4.84307 1.88643 4.00687 1.88643 3.17567 2.09168 2.51797 2.50231 2.03367 2.91445 1.55123 3.4723 1.30989 4.17573 1.30989 4.8793 1.30989 5.43627 1.55123 5.84678 2.03367 6.25729 2.51797 6.46254 3.17567 6.46254 4.00687 6.46254 4.84307 6.25729 5.50076 5.84678 5.98008 5.43627 6.46088 4.8793 6.70135 4.17573 6.70135ZM7.28693 11.607 7.28693 10.1817C6.89293 10.3668 6.49568 10.5081 6.09506 10.6055 5.69443 10.7047 5.29719 10.7543 4.90331 10.7543 3.86867 10.7543 3.0783 10.4055 2.53208 9.70825 1.98749 9.01084 1.6763 7.95728 1.5985 6.5477 1.90306 6.99716 2.28543 7.34181 2.74559 7.5814 3.20738 7.82099 3.7147 7.94079 4.26767 7.94079 5.43127 7.94079 6.35084 7.58802 7.02614 6.88236 7.70156 6.17832 8.03915 5.21982 8.03915 4.00687 8.03915 2.81865 7.68743 1.86515 6.98399 1.14625 6.28043 0.429093 5.34434 0.0704538 4.17573 0.0704538 2.83502 0.0704538 1.81038 0.582743 1.10194 1.60732 0.393371 2.63365 0.0391495 4.12005 0.0391495 6.06677 0.0391495 7.89457 0.473671 9.35211 1.34271 10.4395 2.21176 11.5268 3.37786 12.0706 4.84115 12.0706 5.23515 12.0706 5.6324 12.0317 6.03302 11.954 6.43352 11.8763 6.85153 11.7607 7.28693 11.607Z" fill-rule="evenodd" transform="matrix(1 0 0 -1 589 302)"/><path d="M4.03893 10.8311C3.23354 10.8311 2.62747 10.4345 2.22059 9.6413 1.81546 8.84969 1.6129 7.65822 1.6129 6.06677 1.6129 4.48193 1.81546 3.29296 2.22059 2.49973 2.62747 1.70651 3.23354 1.30989 4.03893 1.30989 4.85093 1.30989 5.4595 1.70651 5.86476 2.49973 6.27151 3.29296 6.47495 4.48193 6.47495 6.06677 6.47495 7.65822 6.27151 8.84969 5.86476 9.6413 5.4595 10.4345 4.85093 10.8311 4.03893 10.8311ZM4.03893 12.0706C5.33717 12.0706 6.32862 11.5574 7.01329 10.5312 7.69784 9.50664 8.04024 8.01849 8.04024 6.06677 8.04024 4.12005 7.69784 2.63365 7.01329 1.60732 6.32862 0.582743 5.33717 0.0704538 4.03893 0.0704538 2.74244 0.0704538 1.75173 0.582743 1.06718 1.60732 0.382511 2.63365 0.0401131 4.12005 0.0401131 6.06677 0.0401131 8.01849 0.382511 9.50664 1.06718 10.5312 1.75173 11.5574 2.74244 12.0706 4.03893 12.0706Z" fill-rule="evenodd" transform="matrix(1 0 0 -1 599 302)"/><path d="M5.61605 8.61297 5.61605 7.28071C5.25267 7.48484 4.87437 7.6375 4.48116 7.7387 4.0893 7.84163 3.68264 7.89297 3.26096 7.89297 2.62097 7.89297 2.14086 7.78609 1.82087 7.57222 1.50088 7.35834 1.34088 7.03672 1.34088 6.60724 1.34088 6.28081 1.45534 6.02448 1.68404 5.83824 1.91285 5.65214 2.3734 5.47504 3.06582 5.30682L3.50762 5.19908C4.42285 4.9852 5.07324 4.68321 5.45911 4.29297 5.84486 3.90274 6.03774 3.35823 6.03774 2.65946 6.03774 1.86269 5.74916 1.23168 5.17199 0.766404 4.59472 0.302736 3.80151 0.0708399 2.79215 0.0708399 2.37193 0.0708399 1.93375 0.115763 1.47771 0.205609 1.02168 0.295331 0.541685 0.429235 0.0377394 0.607199L0.0377394 2.06189C0.51468 1.79087 0.984275 1.5876 1.4463 1.45209 1.90833 1.31819 2.36673 1.2513 2.8213 1.2513 3.42841 1.2513 3.89495 1.36484 4.22094 1.59168 4.54839 1.81864 4.71211 2.13865 4.71211 2.55172 4.71211 2.93381 4.59404 3.22679 4.35777 3.43092 4.12297 3.63505 3.60558 3.83177 2.8056 4.02109L2.35702 4.13624C1.5585 4.31914 0.981224 4.60077 0.625412 4.98113 0.270955 5.36149 0.0937835 5.88317 0.0937835 6.54603 0.0937835 7.35266 0.355474 7.97467 0.878853 8.41218 1.40223 8.85141 2.14538 9.07096 3.10842 9.07096 3.58389 9.07096 4.03179 9.03258 4.45201 8.95582 4.87369 8.88078 5.26171 8.7665 5.61605 8.61297Z" fill-rule="evenodd" transform="matrix(1 0 0 -1 609 302)"/><path d="M758.544 286.58 758.544 281.58" stroke="#000000" stroke-width="0.888609" stroke-linejoin="round" stroke-miterlimit="10" fill="none" fill-rule="evenodd"/><path d="M0.579076 11.066 7.14554 11.066 7.14554 9.83574 2.11073 9.83574 2.11073 7.1926C2.35274 7.26509 2.59476 7.31904 2.83678 7.35446 3.08066 7.39001 3.32441 7.40772 3.56816 7.40772 4.94791 7.40772 6.04051 7.07782 6.84612 6.41803 7.65346 5.75823 8.05713 4.86479 8.05713 3.73794 8.05713 2.57707 7.64292 1.67454 6.81435 1.03013 5.98578 0.38723 4.81802 0.0658396 3.3112 0.0658396 2.79179 0.0658396 2.26264 0.104411 1.72388 0.181438 1.18685 0.258581 0.63127 0.374179 0.0571333 0.528349L0.0571333 1.99663C0.553446 1.76077 1.06671 1.58505 1.59666 1.46945 2.12661 1.35385 2.68673 1.29605 3.27676 1.29605 4.2324 1.29605 4.98862 1.51489 5.545 1.9527 6.10325 2.39062 6.38238 2.98562 6.38238 3.73794 6.38238 4.48863 6.10325 5.08294 5.545 5.52074 4.98862 5.96018 4.2324 6.17984 3.27676 6.17984 2.8297 6.17984 2.38371 6.13661 1.93853 6.05037 1.49508 5.96402 1.04202 5.82908 0.579076 5.64566Z" fill-rule="evenodd" transform="matrix(1 0 0 -1 739 302)"/><path d="M7.04229 7.17418C7.40856 7.82375 7.84621 8.30247 8.35499 8.61049 8.86377 8.91863 9.46251 9.07264 10.1511 9.07264 11.0788 9.07264 11.7944 8.75197 12.2982 8.11076 12.8019 7.47132 13.0538 6.56056 13.0538 5.37861L13.0538 0.0726378 11.5834 0.0726378 11.5834 5.33091C11.5834 6.17307 11.4315 6.79745 11.128 7.2043 10.8261 7.61279 10.3656 7.81704 9.74651 7.81704 8.98847 7.81704 8.38882 7.56838 7.94797 7.07118 7.50865 6.57562 7.28899 5.89847 7.28899 5.03972L7.28899 0.0726378 5.81853 0.0726378 5.81853 5.33091C5.81853 6.17801 5.66756 6.80416 5.36576 7.20936 5.06382 7.61444 4.59746 7.81704 3.96655 7.81704 3.21851 7.81704 2.62412 7.56762 2.18313 7.06864 1.74382 6.5698 1.52429 5.89341 1.52429 5.03972L1.52429 0.0726378 0.0538255 0.0726378 0.0538255 8.86168 1.52429 8.86168 1.52429 7.49561C1.85839 8.0347 2.25862 8.43219 2.72498 8.68844 3.19146 8.94457 3.74523 9.07264 4.38626 9.07264 5.03422 9.07264 5.58452 8.91015 6.03729 8.58543 6.4902 8.26236 6.8252 7.79186 7.04229 7.17418Z" fill-rule="evenodd" transform="matrix(1 0 0 -1 749 302)"/><path d="M0.0404766 8.70665 1.04056 8.70665 1.04056 0.069886 0.0404766 0.069886ZM0.0404766 12.07 1.04056 12.07 1.04056 10.2711 0.0404766 10.2711Z" fill-rule="evenodd" transform="matrix(1 0 0 -1 765 302)"/><path d="M8.06185 5.37861 8.06185 0.0726378 6.493 0.0726378 6.493 5.33091C6.493 6.16295 6.31651 6.78493 5.96368 7.19671 5.61071 7.61026 5.08235 7.81704 4.37833 7.81704 3.53068 7.81704 2.86226 7.56838 2.37294 7.07118 1.88361 6.57562 1.63895 5.89847 1.63895 5.03972L1.63895 0.0726378 0.0618525 0.0726378 0.0618525 8.86168 1.63895 8.86168 1.63895 7.49561C2.01543 8.02458 2.45747 8.41966 2.96493 8.68085 3.47432 8.94204 4.06178 9.07264 4.72759 9.07264 5.82444 9.07264 6.65395 8.76032 7.21598 8.13594 7.77994 7.51143 8.06185 6.59245 8.06185 5.37861Z" fill-rule="evenodd" transform="matrix(1 0 0 -1 769 302)"/><path d="M914.556 286.58 914.556 281.58" stroke="#000000" stroke-width="0.888609" stroke-linejoin="round" stroke-miterlimit="10" fill="none" fill-rule="evenodd"/><path d="M0.297918 1.31882 2.89591 1.31882 2.89591 9.71147 0.0686722 9.18102 0.0686722 10.5366 2.88068 11.067 4.4708 11.067 4.4708 1.31882 7.06867 1.31882 7.06867 0.0670043 0.297918 0.0670043Z" fill-rule="evenodd" transform="matrix(1 0 0 -1 891 302)"/><path d="M4.06742 10.8311C3.26203 10.8311 2.65596 10.4345 2.24908 9.6413 1.84395 8.84969 1.64139 7.65822 1.64139 6.06677 1.64139 4.48193 1.84395 3.29296 2.24908 2.49973 2.65596 1.70651 3.26203 1.30989 4.06742 1.30989 4.87943 1.30989 5.488 1.70651 5.89313 2.49973 6.3 3.29296 6.50344 4.48193 6.50344 6.06677 6.50344 7.65822 6.3 8.84969 5.89313 9.6413 5.488 10.4345 4.87943 10.8311 4.06742 10.8311ZM4.06742 12.0706C5.36566 12.0706 6.35711 11.5574 7.04166 10.5312 7.72633 9.50664 8.06873 8.01849 8.06873 6.06677 8.06873 4.12005 7.72633 2.63365 7.04166 1.60732 6.35711 0.582743 5.36566 0.0704538 4.06742 0.0704538 2.77093 0.0704538 1.78022 0.582743 1.09555 1.60732 0.411003 2.63365 0.0686046 4.12005 0.0686046 6.06677 0.0686046 8.01849 0.411003 9.50664 1.09555 10.5312 1.78022 11.5574 2.77093 12.0706 4.06742 12.0706Z" fill-rule="evenodd" transform="matrix(1 0 0 -1 900 302)"/><path d="M6.51489 7.17418C6.8531 7.82375 7.25697 8.30247 7.72673 8.61049 8.19637 8.91863 8.74906 9.07264 9.38467 9.07264 10.241 9.07264 10.9016 8.75197 11.3666 8.11076 11.8315 7.47132 12.0641 6.56056 12.0641 5.37861L12.0641 0.0726378 10.7068 0.0726378 10.7068 5.33091C10.7068 6.17307 10.5666 6.79745 10.2863 7.2043 10.0077 7.61279 9.5827 7.81704 9.01121 7.81704 8.31148 7.81704 7.75796 7.56838 7.3509 7.07118 6.94549 6.57562 6.74273 5.89847 6.74273 5.03972L6.74273 0.0726378 5.38538 0.0726378 5.38538 5.33091C5.38538 6.17801 5.24603 6.80416 4.96744 7.20936 4.68873 7.61444 4.25824 7.81704 3.67586 7.81704 2.98536 7.81704 2.4367 7.56762 2.02963 7.06864 1.62411 6.5698 1.42147 5.89341 1.42147 5.03972L1.42147 0.0726378 0.0641173 0.0726378 0.0641173 8.86168 1.42147 8.86168 1.42147 7.49561C1.72987 8.0347 2.09931 8.43219 2.5298 8.68844 2.9604 8.94457 3.47145 9.07264 4.06329 9.07264 4.66128 9.07264 5.16937 8.91015 5.58732 8.58543 6.00538 8.26236 6.31461 7.79186 6.51489 7.17418Z" fill-rule="evenodd" transform="matrix(1 0 0 -1 911 302)"/><path d="M0.0511652 8.70665 1.05125 8.70665 1.05125 0.069886 0.0511652 0.069886ZM0.0511652 12.07 1.05125 12.07 1.05125 10.2711 0.0511652 10.2711Z" fill-rule="evenodd" transform="matrix(1 0 0 -1 926 302)"/><path d="M8.07862 5.37861 8.07862 0.0726378 6.50977 0.0726378 6.50977 5.33091C6.50977 6.16295 6.33328 6.78493 5.98031 7.19671 5.62748 7.61026 5.09912 7.81704 4.3951 7.81704 3.54745 7.81704 2.87889 7.56838 2.38957 7.07118 1.90025 6.57562 1.65572 5.89847 1.65572 5.03972L1.65572 0.0726378 0.0786214 0.0726378 0.0786214 8.86168 1.65572 8.86168 1.65572 7.49561C2.0322 8.02458 2.47424 8.41966 2.9817 8.68085 3.49109 8.94204 4.07855 9.07264 4.74436 9.07264 5.84121 9.07264 6.67072 8.76032 7.23275 8.13594 7.79671 7.51143 8.07862 6.59245 8.07862 5.37861Z" fill-rule="evenodd" transform="matrix(1 0 0 -1 930 302)"/><path d="M196.506 286.556 201.506 286.556" stroke="#000000" stroke-width="0.888609" stroke-linejoin="round" stroke-miterlimit="10" fill="none" fill-rule="evenodd"/><path d="M3.49993 9.03664C2.7952 9.03664 2.26484 8.70611 1.90886 8.04504 1.55433 7.38548 1.37706 6.39251 1.37706 5.06639 1.37706 3.74564 1.55433 2.7548 1.90886 2.09386 2.26484 1.4328 2.7952 1.10227 3.49993 1.10227 4.21031 1.10227 4.7429 1.4328 5.09743 2.09386 5.45341 2.7548 5.63133 3.74564 5.63133 5.06639 5.63133 6.39251 5.45341 7.38548 5.09743 8.04504 4.7429 8.70611 4.21031 9.03664 3.49993 9.03664ZM3.49993 10.0695C4.63583 10.0695 5.50327 9.64186 6.10238 8.78668 6.70149 7.93287 7.00105 6.69282 7.00105 5.06639 7.00105 3.44409 6.70149 2.20541 6.10238 1.35023 5.50327 0.496421 4.63583 0.069454 3.49993 0.069454 2.36535 0.069454 1.49857 0.496421 0.899586 1.35023 0.300474 2.20541 0.00091848 3.44409 0.00091848 5.06639 0.00091848 6.69282 0.300474 7.93287 0.899586 8.78668 1.49857 9.64186 2.36535 10.0695 3.49993 10.0695Z" fill-rule="evenodd" transform="matrix(1 0 0 -1 184 291)"/><path d="M196.506 257.554 201.506 257.554" stroke="#000000" stroke-width="0.888609" stroke-linejoin="round" stroke-miterlimit="10" fill="none" fill-rule="evenodd"/><path d="M0.391662 10.0681 5.31651 10.0681 5.31651 8.9497 1.54034 8.9497 1.54034 6.54692C1.72187 6.61277 1.90341 6.66184 2.08494 6.69413 2.2678 6.72629 2.45065 6.74243 2.63351 6.74243 3.66829 6.74243 4.48778 6.44255 5.09197 5.84277 5.69748 5.24287 6.00024 4.4308 6.00024 3.4063 6.00024 2.35104 5.68955 1.53045 5.06818 0.944663 4.44669 0.360144 3.57097 0.0680116 2.44068 0.0680116 2.05118 0.0680116 1.65435 0.102971 1.2502 0.173144 0.84748 0.243189 0.430708 0.348321 0.000120142 0.488413L0.000120142 1.82335C0.372439 1.60889 0.757374 1.44909 1.1548 1.34409 1.55235 1.23896 1.97237 1.18633 2.41485 1.18633 3.13174 1.18633 3.6988 1.3854 4.11618 1.78343 4.53487 2.18146 4.74416 2.72237 4.74416 3.4063 4.74416 4.08883 4.53487 4.62911 4.11618 5.02701 3.6988 5.42644 3.13174 5.62615 2.41485 5.62615 2.07965 5.62615 1.74506 5.587 1.41119 5.50843 1.07863 5.43 0.738752 5.30732 0.391662 5.14054Z" fill-rule="evenodd" transform="matrix(1 0 0 -1 176 262)"/><path d="M3.49993 9.03389C2.7952 9.03389 2.26484 8.70336 1.90886 8.0423 1.55433 7.38273 1.37706 6.38977 1.37706 5.06365 1.37706 3.74302 1.55433 2.75218 1.90886 2.09111 2.26484 1.43005 2.7952 1.09952 3.49993 1.09952 4.21031 1.09952 4.7429 1.43005 5.09743 2.09111 5.45341 2.75218 5.63133 3.74302 5.63133 5.06365 5.63133 6.38977 5.45341 7.38273 5.09743 8.0423 4.7429 8.70336 4.21031 9.03389 3.49993 9.03389ZM3.49993 10.0667C4.63583 10.0667 5.50327 9.63911 6.10238 8.78393 6.70149 7.93012 7.00105 6.69007 7.00105 5.06365 7.00105 3.44134 6.70149 2.20267 6.10238 1.34748 5.50327 0.493673 4.63583 0.0667058 3.49993 0.0667058 2.36535 0.0667058 1.49857 0.493673 0.899586 1.34748 0.300474 2.20267 0.00091848 3.44134 0.00091848 5.06365 0.00091848 6.69007 0.300474 7.93012 0.899586 8.78393 1.49857 9.63911 2.36535 10.0667 3.49993 10.0667Z" fill-rule="evenodd" transform="matrix(1 0 0 -1 184 262)"/><path d="M196.506 228.552 201.506 228.552" stroke="#000000" stroke-width="0.888609" stroke-linejoin="round" stroke-miterlimit="10" fill="none" fill-rule="evenodd"/><path d="M0.195713 1.2044 2.42246 1.2044 2.42246 8.8341-0.000913938 8.35184-0.000913938 9.58423 2.40953 10.0664 3.77234 10.0664 3.77234 1.2044 5.99922 1.2044 5.99922 0.0663565 0.195713 0.0663565Z" fill-rule="evenodd" transform="matrix(1 0 0 -1 168 233)"/><path d="M2.99916 9.03114C2.3951 9.03114 1.94051 8.70061 1.63538 8.03967 1.3315 7.37999 1.17967 6.38702 1.17967 5.0609 1.17967 3.74027 1.3315 2.74943 1.63538 2.08837 1.94051 1.4273 2.3951 1.09677 2.99916 1.09677 3.60817 1.09677 4.06467 1.4273 4.36855 2.08837 4.67368 2.74943 4.82618 3.74027 4.82618 5.0609 4.82618 6.38702 4.67368 7.37999 4.36855 8.03967 4.06467 8.70061 3.60817 9.03114 2.99916 9.03114ZM2.99916 10.064C3.97278 10.064 4.71641 9.63636 5.22994 8.78118 5.74335 7.92737 6.00011 6.68732 6.00011 5.0609 6.00011 3.4386 5.74335 2.19992 5.22994 1.34473 4.71641 0.490925 3.97278 0.0639576 2.99916 0.0639576 2.02677 0.0639576 1.28381 0.490925 0.770286 1.34473 0.256762 2.19992 0.000112467 3.4386 0.000112467 5.0609 0.000112467 6.68732 0.256762 7.92737 0.770286 8.78118 1.28381 9.63636 2.02677 10.064 2.99916 10.064Z" fill-rule="evenodd" transform="matrix(1 0 0 -1 176 233)"/><path d="M3.49993 9.03114C2.7952 9.03114 2.26484 8.70061 1.90886 8.03967 1.55433 7.37999 1.37706 6.38702 1.37706 5.0609 1.37706 3.74027 1.55433 2.74943 1.90886 2.08837 2.26484 1.4273 2.7952 1.09677 3.49993 1.09677 4.21031 1.09677 4.7429 1.4273 5.09743 2.08837 5.45341 2.74943 5.63133 3.74027 5.63133 5.0609 5.63133 6.38702 5.45341 7.37999 5.09743 8.03967 4.7429 8.70061 4.21031 9.03114 3.49993 9.03114ZM3.49993 10.064C4.63583 10.064 5.50327 9.63636 6.10238 8.78118 6.70149 7.92737 7.00105 6.68732 7.00105 5.0609 7.00105 3.4386 6.70149 2.19992 6.10238 1.34473 5.50327 0.490925 4.63583 0.0639576 3.49993 0.0639576 2.36535 0.0639576 1.49857 0.490925 0.899586 1.34473 0.300474 2.19992 0.00091848 3.4386 0.00091848 5.0609 0.00091848 6.68732 0.300474 7.92737 0.899586 8.78118 1.49857 9.63636 2.36535 10.064 3.49993 10.064Z" fill-rule="evenodd" transform="matrix(1 0 0 -1 184 233)"/><path d="M196.506 199.55 201.506 199.55" stroke="#000000" stroke-width="0.888609" stroke-linejoin="round" stroke-miterlimit="10" fill="none" fill-rule="evenodd"/><path d="M0.195713 1.20154 2.42246 1.20154 2.42246 8.83124-0.000913938 8.34899-0.000913938 9.58138 2.40953 10.0635 3.77234 10.0635 3.77234 1.20154 5.99922 1.20154 5.99922 0.0635052 0.195713 0.0635052Z" fill-rule="evenodd" transform="matrix(1 0 0 -1 168 204)"/><path d="M0.391662 10.0625 5.31651 10.0625 5.31651 8.94423 1.54034 8.94423 1.54034 6.54132C1.72187 6.6073 1.90341 6.65624 2.08494 6.68853 2.2678 6.72069 2.45065 6.73684 2.63351 6.73684 3.66829 6.73684 4.48778 6.43695 5.09197 5.83718 5.69748 5.23728 6.00024 4.42521 6.00024 3.40071 6.00024 2.34545 5.68955 1.52486 5.06818 0.939069 4.44669 0.354678 3.57097 0.0624182 2.44068 0.0624182 2.05118 0.0624182 1.65435 0.0975045 1.2502 0.16755 0.84748 0.237596 0.430708 0.342728 0.000120142 0.482819L0.000120142 1.81775C0.372439 1.6033 0.757374 1.4435 1.1548 1.33849 1.55235 1.23336 1.97237 1.18073 2.41485 1.18073 3.13174 1.18073 3.6988 1.37981 4.11618 1.77784 4.53487 2.17586 4.74416 2.71678 4.74416 3.40071 4.74416 4.08324 4.53487 4.62352 4.11618 5.02155 3.6988 5.42097 3.13174 5.62056 2.41485 5.62056 2.07965 5.62056 1.74506 5.5814 1.41119 5.50284 1.07863 5.42441 0.738752 5.30173 0.391662 5.13507Z" fill-rule="evenodd" transform="matrix(1 0 0 -1 176 204)"/><path d="M3.49993 9.02839C2.7952 9.02839 2.26484 8.69786 1.90886 8.03693 1.55433 7.37724 1.37706 6.38427 1.37706 5.05815 1.37706 3.73752 1.55433 2.74668 1.90886 2.08562 2.26484 1.42456 2.7952 1.09415 3.49993 1.09415 4.21031 1.09415 4.7429 1.42456 5.09743 2.08562 5.45341 2.74668 5.63133 3.73752 5.63133 5.05815 5.63133 6.38427 5.45341 7.37724 5.09743 8.03693 4.7429 8.69786 4.21031 9.02839 3.49993 9.02839ZM3.49993 10.0612C4.63583 10.0612 5.50327 9.63362 6.10238 8.77843 6.70149 7.92462 7.00105 6.68457 7.00105 5.05815 7.00105 3.43585 6.70149 2.19717 6.10238 1.34199 5.50327 0.488177 4.63583 0.0612094 3.49993 0.0612094 2.36535 0.0612094 1.49857 0.488177 0.899586 1.34199 0.300474 2.19717 0.00091848 3.43585 0.00091848 5.05815 0.00091848 6.68457 0.300474 7.92462 0.899586 8.77843 1.49857 9.63362 2.36535 10.0612 3.49993 10.0612Z" fill-rule="evenodd" transform="matrix(1 0 0 -1 184 204)"/><path d="M196.506 170.548 201.506 170.548" stroke="#000000" stroke-width="0.888609" stroke-linejoin="round" stroke-miterlimit="10" fill="none" fill-rule="evenodd"/><path d="M1.53689 1.17737 5.99939 1.17737 5.99939 0.0595814-0.000612257 0.0595814-0.000612257 1.17737C0.484296 1.6996 1.14529 2.39993 1.98261 3.2785 2.82116 4.15848 3.34782 4.72615 3.5626 4.98167 3.97171 5.45883 4.25739 5.86304 4.4194 6.1943 4.58287 6.52556 4.66454 6.8511 4.66454 7.17116 4.66454 7.69326 4.48834 8.11847 4.1358 8.44694 3.78338 8.7768 3.32419 8.94167 2.75834 8.94167 2.35731 8.94167 1.934 8.86935 1.48828 8.72486 1.04402 8.58023 0.568665 8.36062 0.0622054 8.0659L0.0622054 9.40902C0.576746 9.6238 1.05749 9.78586 1.50456 9.89535 1.95286 10.0048 2.3627 10.0596 2.7341 10.0596 3.7131 10.0596 4.49372 9.80483 5.07574 9.29533 5.65775 8.78724 5.94881 8.10791 5.94881 7.25747 5.94881 6.85326 5.87583 6.47006 5.72999 6.10798 5.5855 5.74731 5.32088 5.32133 4.93602 4.83004 4.83059 4.70235 4.49507 4.33467 3.92922 3.72689 3.36472 3.11924 2.56732 2.26931 1.53689 1.17737Z" fill-rule="evenodd" transform="matrix(1 0 0 -1 167 175)"/><path d="M2.99916 9.02565C2.3951 9.02565 1.94051 8.69511 1.63538 8.03418 1.3315 7.37449 1.17967 6.38165 1.17967 5.0554 1.17967 3.73478 1.3315 2.74393 1.63538 2.08287 1.94051 1.42181 2.3951 1.0914 2.99916 1.0914 3.60817 1.0914 4.06467 1.42181 4.36855 2.08287 4.67368 2.74393 4.82618 3.73478 4.82618 5.0554 4.82618 6.38165 4.67368 7.37449 4.36855 8.03418 4.06467 8.69511 3.60817 9.02565 2.99916 9.02565ZM2.99916 10.0585C3.97278 10.0585 4.71641 9.63087 5.22994 8.77569 5.74335 7.92188 6.00011 6.68182 6.00011 5.0554 6.00011 3.4331 5.74335 2.19442 5.22994 1.33924 4.71641 0.485428 3.97278 0.0584613 2.99916 0.0584613 2.02677 0.0584613 1.28381 0.485428 0.770286 1.33924 0.256762 2.19442 0.000112467 3.4331 0.000112467 5.0554 0.000112467 6.68182 0.256762 7.92188 0.770286 8.77569 1.28381 9.63087 2.02677 10.0585 2.99916 10.0585Z" fill-rule="evenodd" transform="matrix(1 0 0 -1 176 175)"/><path d="M3.49993 9.02565C2.7952 9.02565 2.26484 8.69511 1.90886 8.03418 1.55433 7.37449 1.37706 6.38165 1.37706 5.0554 1.37706 3.73478 1.55433 2.74393 1.90886 2.08287 2.26484 1.42181 2.7952 1.0914 3.49993 1.0914 4.21031 1.0914 4.7429 1.42181 5.09743 2.08287 5.45341 2.74393 5.63133 3.73478 5.63133 5.0554 5.63133 6.38165 5.45341 7.37449 5.09743 8.03418 4.7429 8.69511 4.21031 9.02565 3.49993 9.02565ZM3.49993 10.0585C4.63583 10.0585 5.50327 9.63087 6.10238 8.77569 6.70149 7.92188 7.00105 6.68182 7.00105 5.0554 7.00105 3.4331 6.70149 2.19442 6.10238 1.33924 5.50327 0.485428 4.63583 0.0584613 3.49993 0.0584613 2.36535 0.0584613 1.49857 0.485428 0.899586 1.33924 0.300474 2.19442 0.00091848 3.4331 0.00091848 5.0554 0.00091848 6.68182 0.300474 7.92188 0.899586 8.77569 1.49857 9.63087 2.36535 10.0585 3.49993 10.0585Z" fill-rule="evenodd" transform="matrix(1 0 0 -1 184 175)"/><path d="M-0.000684359 14.0649 2.99932 14.0649 2.99932 12.9684 1.30119 12.9684 1.30119 1.16143 2.99932 1.16143 2.99932 0.0649018-0.000684359 0.0649018Z" fill-rule="evenodd" transform="matrix(-4.37114e-08 -1 -1 4.37114e-08 160 239)"/><path d="M-0.00486182 12.0662 1.6131 12.0662 4.10466 1.92317 6.58854 12.0662 8.39176 12.0662 10.8833 1.92317 13.3672 12.0662 14.9953 12.0662 12.0187 0.0662267 10.002 0.0662267 7.50281 10.4821 4.97825 0.0662267 2.96162 0.0662267Z" fill-rule="evenodd" transform="matrix(-4.37114e-08 -1 -1 4.37114e-08 158 234)"/><path d="M2.9992 14.0628 2.9992 0.0628002-0.000912478 0.0628002-0.000912478 1.15933 1.69048 1.15933 1.69048 12.9663-0.000912478 12.9663-0.000912478 14.0628Z" fill-rule="evenodd" transform="matrix(-4.37114e-08 -1 -1 4.37114e-08 160 217)"/><path d="M196.5 286.5 196.5 168.5" stroke="#BCBCBC" stroke-width="0.888609" stroke-linecap="square" stroke-miterlimit="8" fill="none" fill-rule="evenodd"/><path d="M1008.5 286.5 1008.5 168.5" stroke="#BCBCBC" stroke-width="0.888609" stroke-linecap="square" stroke-miterlimit="8" fill="none" fill-rule="evenodd"/><path d="M196.5 286.5 1008.5 286.5" stroke="#BCBCBC" stroke-width="0.888609" stroke-linecap="square" stroke-miterlimit="8" fill="none" fill-rule="evenodd"/><path d="M196.5 168.5 1008.5 168.5" stroke="#BCBCBC" stroke-width="0.888609" stroke-linecap="square" stroke-miterlimit="8" fill="none" fill-rule="evenodd"/><path d="M0.0121298 10.0624 10.0123 10.0624 5.00811 0.0624344Z" fill-rule="evenodd" transform="matrix(1 0 0 -1 312 211)"/><path d="M0.0251259 10.0623 10.0252 10.0623 5.0211 0.0623111Z" fill-rule="evenodd" transform="matrix(1 0 0 -1 451 209)"/><path d="M0.0413402 10.0622 10.0415 10.0622 5.03732 0.0621877Z" fill-rule="evenodd" transform="matrix(1 0 0 -1 624 208)"/><path d="M0.0526036 10.0621 10.0527 10.0621 5.04858 0.0620643Z" fill-rule="evenodd" transform="matrix(1 0 0 -1 744 207)"/><path d="M0.624113 0.448578 0.624113 1.63629C0.919887 1.48077 1.2187 1.36235 1.52068 1.28103 1.82389 1.19983 2.12158 1.15923 2.41352 1.15923 3.1902 1.15923 3.78287 1.44842 4.19177 2.02678 4.6018 2.60515 4.83606 3.48444 4.89442 4.66466 4.66952 4.29416 4.38377 4.00984 4.03707 3.81147 3.69161 3.61323 3.30952 3.51405 2.8907 3.51405 2.02084 3.51405 1.33251 3.80535 0.825465 4.38784 0.318423 4.97171 0.0650141 5.7698 0.0650141 6.78201 0.0650141 7.77073 0.329014 8.56395 0.857127 9.16168 1.38524 9.76066 2.088 10.0602 2.9653 10.0602 3.97183 10.0602 4.73972 9.63262 5.26907 8.77744 5.79977 7.92362 6.06501 6.68357 6.06501 5.05715 6.06501 3.53816 5.73949 2.32558 5.08834 1.41943 4.43842 0.513285 3.56428 0.0602101 2.46569 0.0602101 2.17003 0.0602101 1.87054 0.0925637 1.56732 0.157271 1.26535 0.221978 0.950986 0.319164 0.624113 0.448578ZM2.9653 4.5345C3.49341 4.5345 3.91155 4.73424 4.21972 5.1336 4.52913 5.53433 4.68383 6.08372 4.68383 6.78201 4.68383 7.47467 4.52913 8.02206 4.21972 8.42417 3.91155 8.82628 3.49341 9.02739 2.9653 9.02739 2.43718 9.02739 2.01904 8.82628 1.71087 8.42417 1.4027 8.02206 1.24856 7.47467 1.24856 6.78201 1.24856 6.08372 1.4027 5.53433 1.71087 5.1336 2.01904 4.73424 2.43718 4.5345 2.9653 4.5345Z" fill-rule="evenodd" transform="matrix(1 0 0 -1 937 193)"/><path d="M4.40854 8.88373 1.12672 3.54515 4.40854 3.54515ZM4.06678 10.0625 5.70141 10.0625 5.70141 3.54515 7.07268 3.54515 7.07268 2.41994 5.70141 2.41994 5.70141 0.0624684 4.40854 0.0624684 4.40854 2.41994 0.0725589 2.41994 0.0725589 3.72516Z" fill-rule="evenodd" transform="matrix(1 0 0 -1 945 193)"/><path d="M0.0707472 10.0625 1.36508 10.0625 3.35828 1.60979 5.34547 10.0625 6.78804 10.0625 8.78125 1.60979 10.7684 10.0625 12.0709 10.0625 9.68954 0.0624684 8.07623 0.0624684 6.07689 8.74234 4.05728 0.0624684 2.44397 0.0624684Z" fill-rule="evenodd" transform="matrix(1 0 0 -1 957 193)"/><path d="M0.0705507 10.0647 10.0707 10.0647 5.06653 0.0646554Z" fill-rule="evenodd" transform="matrix(1 0 0 -1 936 235)"/><path d="M4.89676 5.2174C5.19465 5.10892 5.48444 4.87784 5.76612 4.52429 6.0478 4.1706 6.33106 3.68421 6.61565 3.06497L8.02637 0.0592283 6.53207 0.0592283 5.22029 2.88106C4.87995 3.61824 4.55061 4.10697 4.23216 4.34751 3.91383 4.58792 3.47951 4.70819 2.92932 4.70819L1.41507 4.70819 1.41507 0.0592283 0.0263663 0.0592283 0.0263663 11.0592 3.16251 11.0592C4.33629 11.0592 5.21231 10.796 5.79031 10.2694 6.36843 9.74454 6.6575 8.95163 6.6575 7.89071 6.6575 7.1976 6.50704 6.62242 6.20636 6.16505 5.90557 5.70924 5.46908 5.3934 4.89676 5.2174ZM1.41507 9.83565 1.41507 5.93164 3.16251 5.93164C3.83158 5.93164 4.33702 6.09753 4.67893 6.42905 5.02085 6.76071 5.19175 7.24788 5.19175 7.89071 5.19175 8.53354 5.02085 9.01838 4.67893 9.34537 4.33702 9.67222 3.83158 9.83565 3.16251 9.83565Z" fill-rule="evenodd" transform="matrix(1 0 0 -1 471 160)"/><path d="M0.0256044 11.0592 2.00942 11.0592 4.51831 3.57417 7.04179 11.0592 9.0256 11.0592 9.0256 0.0592283 7.72696 0.0592283 7.72696 9.71784 5.19074 2.17382 3.85421 2.17382 1.31799 9.71784 1.31799 0.0592283 0.0256044 0.0592283Z" fill-rule="evenodd" transform="matrix(1 0 0 -1 481 160)"/><path d="M6.42918 10.5186 6.42918 9.11887C5.91904 9.37944 5.43736 9.57331 4.98404 9.70061 4.53071 9.82927 4.09308 9.89373 3.67102 9.89373 2.93914 9.89373 2.37429 9.7422 1.97637 9.43928 1.57845 9.13623 1.37955 8.70526 1.37955 8.14626 1.37955 7.67669 1.51168 7.3223 1.77606 7.08296 2.04033 6.84511 2.54122 6.65274 3.27884 6.50571L4.09085 6.32845C5.09415 6.12396 5.83458 5.76495 6.31204 5.25141 6.7895 4.73788 7.02823 4.05095 7.02823 3.19052 7.02823 2.16195 6.70493 1.38259 6.05832 0.852313 5.41323 0.322163 4.46675 0.0570874 3.2191 0.0570874 2.74879 0.0570874 2.24778 0.113925 1.71632 0.227475 1.18627 0.34115 0.63712 0.509289 0.0686435 0.731893L0.0686435 2.20892C0.614278 1.88326 1.14937 1.63705 1.67368 1.47041 2.19812 1.30526 2.71318 1.22269 3.2191 1.22269 3.98648 1.22269 4.57909 1.38334 4.9968 1.7045 5.41464 2.02716 5.6235 2.48686 5.6235 3.08372 5.6235 3.60325 5.47356 4.00998 5.17368 4.30391 4.87392 4.59784 4.38217 4.8182 3.69867 4.9651L2.87811 5.13561C1.87481 5.3476 1.14867 5.68088 0.699555 6.13533 0.251966 6.58978 0.0281134 7.22224 0.0281134 8.03271 0.0281134 8.97034 0.337946 9.70885 0.957495 10.2481 1.57704 10.7875 2.4304 11.0571 3.51757 11.0571 3.98507 11.0571 4.46042 11.0116 4.94351 10.9208 5.42811 10.8314 5.92337 10.6973 6.42918 10.5186Z" fill-rule="evenodd" transform="matrix(1 0 0 -1 493 160)"/><path d="M0.0319933 11.0592 6.90172 11.0592 6.90172 9.80507 1.50138 9.80507 1.50138 6.54932 6.67572 6.54932 6.67572 5.2975 1.50138 5.2975 1.50138 1.31106 7.03212 1.31106 7.03212 0.0592283 0.0319933 0.0592283Z" fill-rule="evenodd" transform="matrix(1 0 0 -1 507 160)"/><path d="M5.03552 6.67102C4.87776 6.75434 4.70619 6.81546 4.52082 6.85411 4.33544 6.89424 4.13144 6.91436 3.90867 6.91436 3.11516 6.91436 2.50623 6.67851 2.08174 6.2068 1.65737 5.73509 1.44519 5.05723 1.44519 4.17333L1.44519 0.0571841 0.0353859 0.0571841 0.0353859 7.86968 1.44519 7.86968 1.44519 6.65544C1.74115 7.13009 2.1249 7.48203 2.59644 7.71126 3.06959 7.94196 3.64435 8.05718 4.32083 8.05718 4.4168 8.05718 4.52323 8.05129 4.64038 8.03939 4.75739 8.02896 4.88674 8.0119 5.02815 7.98797Z" fill-rule="evenodd" transform="matrix(1 0 0 -1 516 160)"/><path d="M5.03606 6.67102C4.87829 6.75434 4.70686 6.81546 4.52149 6.85411 4.33611 6.89424 4.13197 6.91436 3.9092 6.91436 3.1157 6.91436 2.50677 6.67851 2.08241 6.2068 1.65804 5.73509 1.44573 5.05723 1.44573 4.17333L1.44573 0.0571841 0.0360561 0.0571841 0.0360561 7.86968 1.44573 7.86968 1.44573 6.65544C1.74168 7.13009 2.12543 7.48203 2.59698 7.71126 3.07013 7.94196 3.64502 8.05718 4.3215 8.05718 4.41734 8.05718 4.5239 8.05129 4.64091 8.03939 4.75806 8.02896 4.88727 8.0119 5.02882 7.98797Z" fill-rule="evenodd" transform="matrix(1 0 0 -1 522 160)"/><path d="M3.53101 6.99581C2.86006 6.99581 2.32918 6.73384 1.93839 6.20991 1.54772 5.68609 1.35244 4.96841 1.35244 4.05696 1.35244 3.14564 1.54628 2.42796 1.93408 1.90402 2.32332 1.38021 2.85563 1.11824 3.53101 1.11824 4.19921 1.11824 4.72781 1.38092 5.11716 1.90618 5.50783 2.43298 5.70323 3.14995 5.70323 4.05696 5.70323 4.95967 5.50783 5.6752 5.11716 6.20345 4.72781 6.73169 4.19921 6.99581 3.53101 6.99581ZM3.53101 8.05601C4.62041 8.05601 5.47587 7.70189 6.09749 6.99366 6.72068 6.28686 7.03221 5.30792 7.03221 4.05696 7.03221 2.81032 6.72068 1.8315 6.09749 1.12039 5.47587 0.410723 4.62041 0.055888 3.53101 0.055888 2.43742 0.055888 1.58041 0.410723 0.960216 1.12039 0.341463 1.8315 0.032087 2.81032 0.032087 4.05696 0.032087 5.30792 0.341463 6.28686 0.960216 6.99366 1.58041 7.70189 2.43742 8.05601 3.53101 8.05601Z" fill-rule="evenodd" transform="matrix(1 0 0 -1 528 160)"/><path d="M5.03753 6.67102C4.8799 6.75434 4.70833 6.81546 4.52296 6.85411 4.33759 6.89424 4.13345 6.91436 3.91068 6.91436 3.11718 6.91436 2.50824 6.67851 2.08388 6.2068 1.65952 5.73509 1.44734 5.05723 1.44734 4.17333L1.44734 0.0571841 0.0375305 0.0571841 0.0375305 7.86968 1.44734 7.86968 1.44734 6.65544C1.74329 7.13009 2.12691 7.48203 2.59858 7.71126 3.07174 7.94196 3.64649 8.05718 4.32298 8.05718 4.41881 8.05718 4.52537 8.05129 4.64239 8.03939 4.75954 8.02896 4.88875 8.0119 5.03029 7.98797Z" fill-rule="evenodd" transform="matrix(1 0 0 -1 537 160)"/><path d="M0.0284813 7.9735 1.02848 7.9735 1.02848 0.0565805 0.0284813 0.0565805ZM0.0284813 11.0566 1.02848 11.0566 1.02848 9.40766 0.0284813 9.40766Z" fill-rule="evenodd" transform="matrix(1 0 0 -1 548 160)"/><path d="M6.03205 4.77376 6.03205 0.0571841 4.8554 0.0571841 4.8554 4.73131C4.8554 5.47089 4.72303 6.02371 4.45842 6.38977 4.19369 6.75741 3.79739 6.94111 3.26939 6.94111 2.63367 6.94111 2.13233 6.72023 1.76537 6.27822 1.39831 5.83768 1.21489 5.23578 1.21489 4.47238L1.21489 0.0571841 0.0320507 0.0571841 0.0320507 7.86968 1.21489 7.86968 1.21489 6.65544C1.49727 7.12567 1.8288 7.47688 2.20936 7.70905 2.59138 7.94122 3.03199 8.05718 3.53131 8.05718 4.35406 8.05718 4.97606 7.77973 5.39767 7.2247 5.82063 6.66955 6.03205 5.85265 6.03205 4.77376Z" fill-rule="evenodd" transform="matrix(1 0 0 -1 552 160)"/><path d="M5.03889 9.59278 3.03428 4.11876 7.04824 4.11876ZM4.20383 11.0592 5.8787 11.0592 10.0378 0.0592283 8.5033 0.0592283 7.50909 2.88106 2.58976 2.88106 1.59556 0.0592283 0.037665 0.0592283Z" fill-rule="evenodd" transform="matrix(1 0 0 -1 564 160)"/><path d="M5.61628 7.64887 5.61628 6.4647C5.2529 6.646 4.8746 6.78171 4.48139 6.87171 4.08953 6.96314 3.68288 7.00886 3.2612 7.00886 2.62121 7.00886 2.1411 6.91383 1.8211 6.72367 1.50111 6.53363 1.34111 6.24773 1.34111 5.86596 1.34111 5.57575 1.4555 5.34789 1.68428 5.1825 1.91306 5.01699 2.3737 4.8595 3.06607 4.71003L3.50785 4.61429C4.42308 4.42413 5.07355 4.1557 5.45936 3.80888 5.84506 3.46194 6.03797 2.97798 6.03797 2.35687 6.03797 1.64864 5.7494 1.08772 5.17216 0.674126 4.59504 0.261967 3.80171 0.055888 2.79242 0.055888 2.37222 0.055888 1.93401 0.0957396 1.47794 0.175562 1.02186 0.255385 0.541869 0.374461 0.0379653 0.532671L0.0379653 1.82563C0.514997 1.58473 0.98451 1.40414 1.44663 1.28363 1.90862 1.16467 2.36692 1.10519 2.82151 1.10519 3.42859 1.10519 3.89514 1.20596 4.22118 1.40773 4.54869 1.6095 4.71238 1.89385 4.71238 2.26113 4.71238 2.60065 4.5943 2.86118 4.358 3.0426 4.12318 3.22403 3.60584 3.39887 2.80586 3.56726L2.35718 3.66946C1.55867 3.8321 0.981552 4.08246 0.625565 4.42054 0.271181 4.75874 0.0940505 5.22235 0.0940505 5.81151 0.0940505 6.52848 0.35574 7.08138 0.879119 7.47032 1.4025 7.86082 2.14566 8.05601 3.1086 8.05601 3.58415 8.05601 4.03197 8.0219 4.45217 7.95369 4.87386 7.88691 5.26189 7.7853 5.61628 7.64887Z" fill-rule="evenodd" transform="matrix(1 0 0 -1 575 160)"/><path d="M5.61702 7.64887 5.61702 6.4647C5.25364 6.646 4.87534 6.78171 4.48213 6.87171 4.09027 6.96314 3.6835 7.00886 3.26181 7.00886 2.62183 7.00886 2.14184 6.91383 1.82184 6.72367 1.50185 6.53363 1.34185 6.24773 1.34185 5.86596 1.34185 5.57575 1.45624 5.34789 1.68502 5.1825 1.9138 5.01699 2.37443 4.8595 3.06669 4.71003L3.50859 4.61429C4.4237 4.42413 5.07416 4.1557 5.45998 3.80888 5.8458 3.46194 6.0387 2.97798 6.0387 2.35687 6.0387 1.64864 5.75014 1.08772 5.1729 0.674126 4.59578 0.261967 3.80245 0.055888 2.79304 0.055888 2.37283 0.055888 1.93475 0.0957396 1.47868 0.175562 1.0226 0.255385 0.542608 0.374461 0.0387049 0.532671L0.0387049 1.82563C0.515613 1.58473 0.985249 1.40414 1.44724 1.28363 1.90936 1.16467 2.36766 1.10519 2.82225 1.10519 3.42933 1.10519 3.89588 1.20596 4.22192 1.40773 4.54931 1.6095 4.71312 1.89385 4.71312 2.26113 4.71312 2.60065 4.59491 2.86118 4.35874 3.0426 4.12392 3.22403 3.60658 3.39887 2.80648 3.56726L2.35792 3.66946C1.55941 3.8321 0.982168 4.08246 0.626305 4.42054 0.27192 4.75874 0.09479 5.22235 0.09479 5.81151 0.09479 6.52848 0.356356 7.08138 0.879735 7.47032 1.40311 7.86082 2.1464 8.05601 3.10934 8.05601 3.58489 8.05601 4.03271 8.0219 4.45291 7.95369 4.8746 7.88691 5.26263 7.7853 5.61702 7.64887Z" fill-rule="evenodd" transform="matrix(1 0 0 -1 583 160)"/><path d="M0.0315397 7.9735 1.03164 7.9735 1.03164 0.0565805 0.0315397 0.0565805ZM0.0315397 11.0566 1.03164 11.0566 1.03164 9.40766 0.0315397 9.40766Z" fill-rule="evenodd" transform="matrix(1 0 0 -1 591 160)"/><path d="M5.7526 7.04596C5.7526 7.97846 5.56013 8.70068 5.1752 9.21239 4.79174 9.72571 4.25246 9.98236 3.55725 9.98236 2.86793 9.98236 2.33087 9.72571 1.94594 9.21239 1.56101 8.70068 1.36854 7.97846 1.36854 7.04596 1.36854 6.11789 1.56101 5.39726 1.94594 4.88395 2.33087 4.37077 2.86793 4.11411 3.55725 4.11411 4.25246 4.11411 4.79174 4.37077 5.1752 4.88395 5.56013 5.39726 5.7526 6.11789 5.7526 7.04596ZM7.03935 4.00891C7.03935 2.67655 6.74321 1.68511 6.15093 1.03462 5.56013 0.383998 4.65375 0.0588117 3.43193 0.0588117 2.97985 0.0588117 2.5531 0.0922777 2.15181 0.159456 1.75052 0.226634 1.36104 0.330354 0.983608 0.470617L0.983608 1.72166C1.36104 1.51729 1.73404 1.36657 2.10262 1.2695 2.47107 1.17107 2.84629 1.12185 3.22827 1.12185 4.07266 1.12185 4.70442 1.34196 5.12367 1.78207 5.54291 2.22217 5.7526 2.88768 5.7526 3.77847L5.7526 4.41629C5.48695 3.95367 5.14679 3.60831 4.73209 3.38007 4.31728 3.15172 3.82055 3.03766 3.24168 3.03766 2.2823 3.03766 1.50874 3.4032 0.921011 4.13429 0.333158 4.86685 0.0392312 5.83749 0.0392312 7.04596 0.0392312 8.2575 0.333158 9.22888 0.921011 9.95997 1.50874 10.6925 2.2823 11.0588 3.24168 11.0588 3.82055 11.0588 4.31728 10.9446 4.73209 10.7164 5.14679 10.4882 5.48695 10.1434 5.7526 9.6824L5.7526 10.8708 7.03935 10.8708Z" fill-rule="evenodd" transform="matrix(1 0 0 -1 594 163)"/><path d="M7.04251 4.77376 7.04251 0.0571841 5.66975 0.0571841 5.66975 4.73131C5.66975 5.47089 5.51532 6.02371 5.2066 6.38977 4.89789 6.75741 4.4354 6.94111 3.81954 6.94111 3.07786 6.94111 2.49283 6.72023 2.06472 6.27822 1.63661 5.83768 1.42249 5.23578 1.42249 4.47238L1.42249 0.0571841 0.0425093 0.0571841 0.0425093 7.86968 1.42249 7.86968 1.42249 6.65544C1.75194 7.12567 2.13872 7.47688 2.58283 7.70905 3.02853 7.94122 3.54257 8.05718 4.12511 8.05718 5.08485 8.05718 5.81066 7.77973 6.3024 7.2247 6.79585 6.66955 7.04251 5.85265 7.04251 4.77376Z" fill-rule="evenodd" transform="matrix(1 0 0 -1 604 160)"/><path d="M7.03949 4.37697 7.03949 3.76532 1.33407 3.76532C1.38873 2.90318 1.6463 2.24653 2.10664 1.79524 2.56698 1.34382 3.20852 1.11824 4.03137 1.11824 4.50761 1.11824 4.96937 1.177 5.41679 1.29452 5.8642 1.41204 6.30866 1.58916 6.75026 1.82563L6.75026 0.641455C6.30439 0.451292 5.8476 0.306247 5.38003 0.206079 4.91257 0.105912 4.43859 0.055888 3.95809 0.055888 2.75257 0.055888 1.79809 0.409287 1.09465 1.11596 0.391089 1.8242 0.0393698 2.78207 0.0393698 3.98947 0.0393698 5.23612 0.373183 6.22523 1.04069 6.95668 1.7082 7.68956 2.60872 8.05601 3.74227 8.05601 4.75794 8.05601 5.56134 7.72583 6.1526 7.06546 6.74386 6.40665 7.03949 5.51041 7.03949 4.37697ZM5.79875 4.74485C5.79009 5.42843 5.60024 5.97415 5.22907 6.38188 4.8579 6.79117 4.36661 6.99581 3.75519 6.99581 3.06326 6.99581 2.50947 6.79847 2.09372 6.40366 1.67796 6.00898 1.43842 5.45309 1.3751 4.73624Z" fill-rule="evenodd" transform="matrix(1 0 0 -1 613 160)"/><path d="M5.75505 6.85014 5.75505 11.0558 7.04194 11.0558 7.04194 0.257688 5.75505 0.257688 5.75505 1.42345C5.48511 0.961537 5.14347 0.618157 4.73012 0.393184 4.31838 0.168089 3.82301 0.0556634 3.24426 0.0556634 2.29828 0.0556634 1.5278 0.430171 0.932448 1.17919 0.338692 1.92967 0.0418138 2.91562 0.0418138 4.1368 0.0418138 5.35809 0.338692 6.34319 0.932448 7.09221 1.5278 7.84122 2.29828 8.21573 3.24426 8.21573 3.82301 8.21573 4.31838 8.1033 4.73012 7.87833 5.14347 7.6547 5.48511 7.31205 5.75505 6.85014ZM1.37112 4.1368C1.37112 3.19833 1.5658 2.46189 1.95516 1.92747 2.34452 1.39305 2.87937 1.12584 3.55971 1.12584 4.24004 1.12584 4.77563 1.39305 5.16659 1.92747 5.5589 2.46189 5.75505 3.19833 5.75505 4.1368 5.75505 5.07526 5.5589 5.81182 5.16659 6.34612 4.77563 6.88054 4.24004 7.14775 3.55971 7.14775 2.87937 7.14775 2.34452 6.88054 1.95516 6.34612 1.5658 5.81182 1.37112 5.07526 1.37112 4.1368Z" fill-rule="evenodd" transform="matrix(1 0 0 -1 622 160)"/><path d="M1.51041 9.83565 1.51041 5.70302 3.35509 5.70302C4.03816 5.70302 4.56546 5.88213 4.93726 6.24048 5.31058 6.59883 5.49712 7.1096 5.49712 7.7729 5.49712 8.43141 5.31058 8.93984 4.93726 9.29819 4.56546 9.65654 4.03816 9.83565 3.35509 9.83565ZM0.0443038 11.0592 3.35509 11.0592C4.57095 11.0592 5.48946 10.7802 6.11048 10.2223 6.73316 9.66432 7.04443 8.84782 7.04443 7.7729 7.04443 6.68683 6.73316 5.86645 6.11048 5.31162 5.48946 4.7568 4.57095 4.47945 3.35509 4.47945L1.51041 4.47945 1.51041 0.0592283 0.0443038 0.0592283Z" fill-rule="evenodd" transform="matrix(1 0 0 -1 636 160)"/><path d="M3.54167 6.99581C2.87059 6.99581 2.33972 6.73384 1.94905 6.20991 1.55826 5.68609 1.36298 4.96841 1.36298 4.05696 1.36298 3.14564 1.55682 2.42796 1.94462 1.90402 2.33385 1.38021 2.86616 1.11824 3.54167 1.11824 4.20975 1.11824 4.73846 1.38092 5.1277 1.90618 5.51837 2.43298 5.71377 3.14995 5.71377 4.05696 5.71377 4.95967 5.51837 5.6752 5.1277 6.20345 4.73846 6.73169 4.20975 6.99581 3.54167 6.99581ZM3.54167 8.05601C4.63095 8.05601 5.4864 7.70189 6.10803 6.99366 6.73121 6.28686 7.04274 5.30792 7.04274 4.05696 7.04274 2.81032 6.73121 1.8315 6.10803 1.12039 5.4864 0.410723 4.63095 0.055888 3.54167 0.055888 2.44795 0.055888 1.59094 0.410723 0.970752 1.12039 0.351999 1.8315 0.0426231 2.81032 0.0426231 4.05696 0.0426231 5.30792 0.351999 6.28686 0.970752 6.99366 1.59094 7.70189 2.44795 8.05601 3.54167 8.05601Z" fill-rule="evenodd" transform="matrix(1 0 0 -1 644 160)"/><path d="M0.0455598 8.05868 1.39215 8.05868 3.07606 1.81638 4.75045 8.05868 6.33835 8.05868 8.02214 1.81638 9.69897 8.05868 11.0457 8.05868 8.90039 0.0586822 7.31261 0.0586822 5.54916 6.61638 3.77864 0.0586822 2.18842 0.0586822Z" fill-rule="evenodd" transform="matrix(1 0 0 -1 653 160)"/><path d="M7.04411 4.37697 7.04411 3.76532 1.33881 3.76532C1.39348 2.90318 1.65092 2.24653 2.11127 1.79524 2.57161 1.34382 3.21326 1.11824 4.03612 1.11824 4.51223 1.11824 4.97411 1.177 5.42141 1.29452 5.86883 1.41204 6.3134 1.58916 6.75501 1.82563L6.75501 0.641455C6.30901 0.451292 5.85235 0.306247 5.38477 0.206079 4.91719 0.105912 4.44321 0.055888 3.96271 0.055888 2.75719 0.055888 1.80271 0.409287 1.09927 1.11596 0.395833 1.8242 0.0441132 2.78207 0.0441132 3.98947 0.0441132 5.23612 0.377808 6.22523 1.04532 6.95668 1.71282 7.68956 2.61335 8.05601 3.74701 8.05601 4.76256 8.05601 5.56608 7.72583 6.15734 7.06546 6.74848 6.40665 7.04411 5.51041 7.04411 4.37697ZM5.80337 4.74485C5.79483 5.42843 5.60486 5.97415 5.23369 6.38188 4.86253 6.79117 4.37135 6.99581 3.75994 6.99581 3.068 6.99581 2.51409 6.79847 2.09834 6.40366 1.68259 6.00898 1.44305 5.45309 1.37984 4.73624Z" fill-rule="evenodd" transform="matrix(1 0 0 -1 665 160)"/><path d="M5.05147 6.67102C4.89384 6.75434 4.72227 6.81546 4.5369 6.85411 4.35153 6.89424 4.14739 6.91436 3.92462 6.91436 3.13112 6.91436 2.52218 6.67851 2.09782 6.2068 1.67346 5.73509 1.46128 5.05723 1.46128 4.17333L1.46128 0.0571841 0.0514704 0.0571841 0.0514704 7.86968 1.46128 7.86968 1.46128 6.65544C1.7571 7.13009 2.14085 7.48203 2.61252 7.71126 3.08568 7.94196 3.66043 8.05718 4.33692 8.05718 4.43275 8.05718 4.53931 8.05129 4.65633 8.03939 4.77348 8.02896 4.90269 8.0119 5.04423 7.98797Z" fill-rule="evenodd" transform="matrix(1 0 0 -1 674 160)"/><path d="M0.0519531 1.05014 4.05208 1.05014 4.05208 0.050145 0.0519531 0.050145Z" fill-rule="evenodd" transform="matrix(1 0 0 -1 684 156)"/><path d="M4.91732 5.2174C5.21521 5.10892 5.505 4.87784 5.78668 4.52429 6.06836 4.1706 6.3515 3.68421 6.63621 3.06497L8.04693 0.0592283 6.55251 0.0592283 5.24085 2.88106C4.90051 3.61824 4.57105 4.10697 4.25272 4.34751 3.93427 4.58792 3.49995 4.70819 2.94976 4.70819L1.43563 4.70819 1.43563 0.0592283 0.0469272 0.0592283 0.0469272 11.0592 3.18307 11.0592C4.35685 11.0592 5.23275 10.796 5.81087 10.2694 6.38899 9.74454 6.67806 8.95163 6.67806 7.89071 6.67806 7.1976 6.5276 6.62242 6.2268 6.16505 5.92601 5.70924 5.48952 5.3934 4.91732 5.2174ZM1.43563 9.83565 1.43563 5.93164 3.18307 5.93164C3.85214 5.93164 4.35758 6.09753 4.69949 6.42905 5.04129 6.76071 5.21231 7.24788 5.21231 7.89071 5.21231 8.53354 5.04129 9.01838 4.69949 9.34537 4.35758 9.67222 3.85214 9.83565 3.18307 9.83565Z" fill-rule="evenodd" transform="matrix(1 0 0 -1 695 160)"/><path d="M0.0503334 11.0592 2.25458 11.0592 5.04209 3.57417 7.84609 11.0592 10.0503 11.0592 10.0503 0.0592283 8.6074 0.0592283 8.6074 9.71784 5.78937 2.17382 4.30421 2.17382 1.48619 9.71784 1.48619 0.0592283 0.0503334 0.0592283Z" fill-rule="evenodd" transform="matrix(1 0 0 -1 705 160)"/><path d="M7.37039 10.5186 7.37039 9.11887C6.78738 9.37944 6.23689 9.57331 5.7188 9.70061 5.20071 9.82927 4.70042 9.89373 4.21808 9.89373 3.38177 9.89373 2.73624 9.7422 2.28147 9.43928 1.8267 9.13623 1.59938 8.70526 1.59938 8.14626 1.59938 7.67669 1.75039 7.3223 2.05255 7.08296 2.35456 6.84511 2.92701 6.65274 3.76987 6.50571L4.69802 6.32845C5.84464 6.12396 6.69072 5.76495 7.23639 5.25141 7.78205 4.73788 8.05489 4.05095 8.05489 3.19052 8.05489 2.16195 7.68553 1.38259 6.94655 0.852313 6.20918 0.322163 5.12761 0.0570874 3.70173 0.0570874 3.16409 0.0570874 2.59165 0.113925 1.98427 0.227475 1.37849 0.34115 0.750761 0.509289 0.101208 0.731893L0.101208 2.20892C0.72479 1.88326 1.33632 1.63705 1.93554 1.47041 2.53476 1.30526 3.12353 1.22269 3.70173 1.22269 4.57873 1.22269 5.25587 1.38334 5.73339 1.7045 6.21078 2.02716 6.44961 2.48686 6.44961 3.08372 6.44961 3.60325 6.27826 4.00998 5.93554 4.30391 5.59296 4.59784 5.03096 4.8182 4.24981 4.9651L3.31189 5.13561C2.1654 5.3476 1.33552 5.68088 0.82225 6.13533 0.31072 6.58978 0.054888 7.22224 0.054888 8.03271 0.054888 8.97034 0.408983 9.70885 1.11704 10.2481 1.82509 10.7875 2.80036 11.0571 4.04271 11.0571 4.57699 11.0571 5.12025 11.0116 5.67248 10.9208 6.22631 10.8314 6.79219 10.6973 7.37039 10.5186Z" fill-rule="evenodd" transform="matrix(1 0 0 -1 717 160)"/><path d="M0.0532368 11.0592 6.92296 11.0592 6.92296 9.80507 1.52262 9.80507 1.52262 6.54932 6.69709 6.54932 6.69709 5.2975 1.52262 5.2975 1.52262 1.31106 7.05336 1.31106 7.05336 0.0592283 0.0532368 0.0592283Z" fill-rule="evenodd" transform="matrix(1 0 0 -1 727 160)"/><path d="M185.276 349.5 1018.72 349.5C1020.58 349.5 1021.5 348.595 1021.5 346.785L1021.5 328.215C1021.5 326.405 1020.58 325.5 1018.72 325.5L185.276 325.5C183.425 325.5 182.5 326.405 182.5 328.215L182.5 346.785C182.5 348.595 183.425 349.5 185.276 349.5Z" stroke="#CCCCCC" stroke-width="0.555381" stroke-miterlimit="8" stroke-opacity="0.8" fill="#EEEEEE" fill-rule="evenodd" fill-opacity="0.8"/><path d="M188.5 341.5 216.5 341.5 216.5 331.5 188.5 331.5Z" stroke="#000000" stroke-width="0.555381" stroke-miterlimit="8" fill="#000080" fill-rule="evenodd"/><path d="M9.00509 9.15353 9.00509 7.77991C8.49645 8.18892 7.95435 8.49396 7.37878 8.69502 6.80322 8.89739 6.19172 8.99863 5.54428 8.99863 4.26867 8.99863 3.29214 8.66195 2.61455 7.98858 1.93681 7.31509 1.59795 6.34144 1.59795 5.06763 1.59795 3.79787 1.93681 2.82636 2.61455 2.15288 3.29214 1.47951 4.26867 1.14282 5.54428 1.14282 6.19172 1.14282 6.80322 1.24395 7.37878 1.44643 7.95435 1.64892 8.49645 1.95455 9.00509 2.36357L9.00509 1.00018C8.47731 0.690381 7.91772 0.457676 7.32618 0.302064 6.73616 0.14776 6.11282 0.070668 5.45588 0.070668 3.76567 0.070668 2.4343 0.516804 1.46163 1.4092 0.490606 2.30302 0.0050947 3.52246 0.0050947 5.06763 0.0050947 6.61686 0.490606 7.83773 1.46163 8.73012 2.4343 9.62382 3.76567 10.0708 5.45588 10.0708 6.12232 10.0708 6.75062 9.99429 7.3405 9.84141 7.93204 9.68854 8.48695 9.45928 9.00509 9.15353Z" fill-rule="evenodd" transform="matrix(1 0 0 -1 227 341)"/><path d="M5.01353 9.01315C3.95153 9.01315 3.10801 8.65993 2.48284 7.95336 1.85926 7.24835 1.54747 6.28636 1.54747 5.06763 1.54747 3.85438 1.85926 2.89453 2.48284 2.18797 3.10801 1.48296 3.95153 1.13033 5.01353 1.13033 6.07406 1.13033 6.91452 1.48296 7.53502 2.18797 8.15553 2.89453 8.46572 3.85438 8.46572 5.06763 8.46572 6.28636 8.15553 7.24835 7.53502 7.95336 6.91452 8.65993 6.07406 9.01315 5.01353 9.01315ZM5.01353 10.0708C6.52781 10.0708 7.73804 9.61763 8.64408 8.71156 9.55171 7.80537 10.0055 6.59068 10.0055 5.06763 10.0055 3.54863 9.55171 2.33609 8.64408 1.4299 7.73804 0.523705 6.52781 0.070668 5.01353 0.070668 3.49471 0.070668 2.27982 0.522396 1.36912 1.42573 0.460017 2.3305 0.00546528 3.54446 0.00546528 5.06763 0.00546528 6.59068 0.460017 7.80537 1.36912 8.71156 2.27982 9.61763 3.49471 10.0708 5.01353 10.0708Z" fill-rule="evenodd" transform="matrix(1 0 0 -1 237 341)"/><path d="M0.00929915 1.06806 4.0093 1.06806 4.0093 0.0679491 0.00929915 0.0679491Z" fill-rule="evenodd" transform="matrix(1 0 0 -1 248 338)"/><path d="M4.00734 11.0773 4.00734 9.99376 3.01992 9.99376C2.64999 9.99376 2.39272 9.89944 2.24791 9.71093 2.10424 9.52255 2.0324 9.18319 2.0324 8.6931L2.0324 7.99417 3.7326 7.99417 3.7326 6.98298 2.0324 6.98298 2.0324 0.0771226 0.994754 0.0771226 0.994754 6.98298 0.00723533 6.98298 0.00723533 7.99417 0.994754 7.99417 0.994754 8.54602C0.994754 9.42667 1.15745 10.0684 1.48304 10.4711 1.80863 10.8752 2.3245 11.0773 3.03067 11.0773Z" fill-rule="evenodd" transform="matrix(1 0 0 -1 253 341)"/><path d="M0.00791028 7.99417 1.00801 7.99417 1.00801 0.0771226 0.00791028 0.0771226ZM0.00791028 11.0773 1.00801 11.0773 1.00801 9.42824 0.00791028 9.42824Z" fill-rule="evenodd" transform="matrix(1 0 0 -1 259 341)"/><path d="M5.01025 6.69143C4.85256 6.77474 4.68096 6.8358 4.4956 6.87437 4.31025 6.91461 4.10622 6.93466 3.88337 6.93466 3.08984 6.93466 2.48097 6.69889 2.05648 6.22709 1.63212 5.75542 1.41995 5.07755 1.41995 4.1936L1.41995 0.0775189 0.0101104 0.0775189 0.0101104 7.89009 1.41995 7.89009 1.41995 6.67575C1.71581 7.15051 2.09959 7.50236 2.57112 7.73158 3.04435 7.9622 3.61909 8.07752 4.29564 8.07752 4.39155 8.07752 4.49799 8.0716 4.6151 8.05965 4.73222 8.04924 4.8614 8.03214 5.00295 8.00836Z" fill-rule="evenodd" transform="matrix(1 0 0 -1 262 341)"/><path d="M4.65682 7.66864 4.65682 6.4845C4.354 6.66579 4.0387 6.80157 3.71102 6.89158 3.38452 6.98298 3.04554 7.02862 2.69419 7.02862 2.16075 7.02862 1.76076 6.93358 1.49409 6.74352 1.22743 6.55333 1.0941 6.26748 1.0941 5.88585 1.0941 5.59561 1.18944 5.36769 1.38013 5.20232 1.57071 5.03683 1.95457 4.87936 2.53148 4.72992L2.89973 4.63413C3.66238 4.44394 4.20442 4.17552 4.52597 3.82862 4.8474 3.48184 5.00818 2.99777 5.00818 2.37668 5.00818 1.66845 4.76766 1.10754 4.28664 0.693935 3.80572 0.281837 3.14465 0.0757248 2.30345 0.0757248 1.95327 0.0757248 1.58815 0.115593 1.20817 0.195455 0.828078 0.275317 0.428083 0.394296 0.00807094 0.552515L0.00807094 1.84548C0.405592 1.60464 0.796871 1.42398 1.18191 1.30349 1.56705 1.18452 1.94897 1.12496 2.32777 1.12496 2.83365 1.12496 3.22246 1.22589 3.49418 1.42761 3.76708 1.62934 3.90354 1.91368 3.90354 2.2809 3.90354 2.62053 3.80507 2.88105 3.60814 3.06234 3.4125 3.24375 2.9814 3.41865 2.31464 3.58702L1.94079 3.68933C1.27542 3.85194 0.794396 4.10218 0.497815 4.44043 0.202527 4.77856 0.0547748 5.24219 0.0547748 5.83144 0.0547748 6.54832 0.272905 7.10121 0.709059 7.49011 1.14521 7.88052 1.76452 8.07572 2.56699 8.07572 2.96333 8.07572 3.33653 8.04162 3.6867 7.97342 4.03805 7.90672 4.36143 7.80505 4.65682 7.66864Z" fill-rule="evenodd" transform="matrix(1 0 0 -1 268 341)"/><path d="M2.30078 10.0764 2.30078 7.86454 5.01147 7.86454 5.01147 6.86979 2.30078 6.86979 2.30078 2.64193C2.30078 2.00705 2.39014 1.59913 2.56874 1.41804 2.7472 1.23709 3.11124 1.14661 3.66074 1.14661L5.01147 1.14661 5.01147 0.0762527 3.66074 0.0762527C2.64426 0.0762527 1.94293 0.260285 1.55674 0.62822 1.17069 0.997565 0.977593 1.66885 0.977593 2.64193L0.977593 6.86979 0.011467 6.86979 0.011467 7.86454 0.977593 7.86454 0.977593 10.0764Z" fill-rule="evenodd" transform="matrix(1 0 0 -1 274 341)"/><path d="M307.5 341.5 335.5 341.5 335.5 331.5 307.5 331.5Z" stroke="#000000" stroke-width="0.555381" stroke-miterlimit="8" fill="#004CFF" fill-rule="evenodd"/><path d="M8.01567 9.15353 8.01567 7.77991C7.56354 8.18892 7.08167 8.49396 6.56993 8.69502 6.05832 8.89739 5.51476 8.99863 4.93938 8.99863 3.80551 8.99863 2.93736 8.66195 2.33506 7.98858 1.73263 7.31509 1.43154 6.34144 1.43154 5.06763 1.43154 3.79787 1.73263 2.82636 2.33506 2.15288 2.93736 1.47951 3.80551 1.14282 4.93938 1.14282 5.51476 1.14282 6.05832 1.24395 6.56993 1.44643 7.08167 1.64892 7.56354 1.95455 8.01567 2.36357L8.01567 1.00018C7.54653 0.690381 7.04899 0.457676 6.52318 0.302064 5.99884 0.14776 5.44463 0.070668 4.86068 0.070668 3.35828 0.070668 2.17484 0.516804 1.31036 1.4092 0.447232 2.30302 0.0155442 3.52246 0.0155442 5.06763 0.0155442 6.61686 0.447232 7.83773 1.31036 8.73012 2.17484 9.62382 3.35828 10.0708 4.86068 10.0708 5.45308 10.0708 6.01157 9.99429 6.53591 9.84141 7.06172 9.68854 7.55497 9.45928 8.01567 9.15353Z" fill-rule="evenodd" transform="matrix(1 0 0 -1 347 341)"/><path d="M4.52309 9.01315C3.5673 9.01315 2.80801 8.65993 2.24535 7.95336 1.68413 7.24835 1.40352 6.28636 1.40352 5.06763 1.40352 3.85438 1.68413 2.89453 2.24535 2.18797 2.80801 1.48296 3.5673 1.13033 4.52309 1.13033 5.47745 1.13033 6.23386 1.48296 6.79232 2.18797 7.35078 2.89453 7.63007 3.85438 7.63007 5.06763 7.63007 6.28636 7.35078 7.24835 6.79232 7.95336 6.23386 8.65993 5.47745 9.01315 4.52309 9.01315ZM4.52309 10.0708C5.88583 10.0708 6.97503 9.61763 7.79047 8.71156 8.60734 7.80537 9.01584 6.59068 9.01584 5.06763 9.01584 3.54863 8.60734 2.33609 7.79047 1.4299 6.97503 0.523705 5.88583 0.070668 4.52309 0.070668 3.15604 0.070668 2.06276 0.522396 1.24313 1.42573 0.424812 2.3305 0.015716 3.54446 0.015716 5.06763 0.015716 6.59068 0.424812 7.80537 1.24313 8.71156 2.06276 9.61763 3.15604 10.0708 4.52309 10.0708Z" fill-rule="evenodd" transform="matrix(1 0 0 -1 357 341)"/><path d="M0.0216068 1.06806 4.02174 1.06806 4.02174 0.0679491 0.0216068 0.0679491Z" fill-rule="evenodd" transform="matrix(1 0 0 -1 367 338)"/><path d="M5.92998 6.3901C6.23993 6.96744 6.61024 7.39309 7.04077 7.66678 7.47131 7.94061 7.97782 8.07752 8.56054 8.07752 9.34552 8.07752 9.95105 7.79264 10.3774 7.22263 10.8036 6.65415 11.0167 5.84464 11.0167 4.79409L11.0167 0.0775189 9.77246 0.0775189 9.77246 4.75166C9.77246 5.50011 9.64395 6.05521 9.38716 6.41684 9.13161 6.77988 8.7421 6.96153 8.21824 6.96153 7.57677 6.96153 7.0694 6.74054 6.69624 6.29857 6.32458 5.85801 6.1388 5.25611 6.1388 4.49275L6.1388 0.0775189 4.89453 0.0775189 4.89453 4.75166C4.89453 5.50461 4.76676 6.06113 4.51134 6.42134 4.25592 6.78142 3.86132 6.96153 3.32743 6.96153 2.69451 6.96153 2.1916 6.73977 1.81844 6.29626 1.44677 5.85287 1.26087 5.25162 1.26087 4.49275L1.26087 0.0775189 0.0166068 0.0775189 0.0166068 7.89009 1.26087 7.89009 1.26087 6.67575C1.54356 7.15488 1.88227 7.5084 2.27699 7.73608 2.67158 7.96375 3.14017 8.07752 3.68261 8.07752 4.23076 8.07752 4.69649 7.93315 5.07969 7.64454 5.46288 7.35735 5.74631 6.93916 5.92998 6.3901Z" fill-rule="evenodd" transform="matrix(1 0 0 -1 373 341)"/><path d="M7.02 4.3968 7.02 3.78511 1.31473 3.78511C1.36939 2.92305 1.62679 2.26635 2.08719 1.81501 2.54746 1.36367 3.18911 1.138 4.01201 1.138 4.48819 1.138 4.94995 1.1968 5.39731 1.3144 5.84466 1.43188 6.28928 1.60903 6.73092 1.84548L6.73092 0.661338C6.28493 0.471149 5.82814 0.326093 5.36066 0.225921 4.89306 0.125748 4.41912 0.0757248 3.93859 0.0757248 2.73306 0.0757248 1.7786 0.429149 1.07521 1.13587 0.371697 1.8441 0.0200011 2.80194 0.0200011 4.0094 0.0200011 5.25598 0.353683 6.24504 1.02117 6.97646 1.68866 7.70926 2.58921 8.07572 3.72281 8.07572 4.73851 8.07572 5.54191 7.74562 6.13312 7.08528 6.72433 6.42645 7.02 5.53029 7.02 4.3968ZM5.77931 4.76477C5.77062 5.4483 5.58079 5.99392 5.20959 6.40175 4.83839 6.81097 4.34719 7.01558 3.73573 7.01558 3.04389 7.01558 2.48995 6.81824 2.07427 6.42344 1.65847 6.02877 1.41896 5.47287 1.35572 4.75599Z" fill-rule="evenodd" transform="matrix(1 0 0 -1 386 341)"/><path d="M3.69238 4.10293C2.74954 4.10293 2.09618 3.98759 1.73229 3.75678 1.3684 3.52609 1.1864 3.1313 1.1864 2.57264 1.1864 2.12857 1.32308 1.7759 1.59632 1.51462 1.86955 1.25485 2.24022 1.12496 2.70831 1.12496 3.35618 1.12496 3.87567 1.37094 4.26666 1.86291 4.65753 2.35487 4.85308 3.00868 4.85308 3.82435L4.85308 4.10293ZM6.01974 4.62109 6.01974 0.273813 4.85308 0.273813 4.85308 1.42974C4.5865 0.968249 4.25439 0.627237 3.85674 0.406582 3.45898 0.186052 2.97278 0.0757248 2.3978 0.0757248 1.67143 0.0757248 1.09306 0.294875 0.662941 0.733177 0.234103 1.17148 0.0197422 1.75772 0.0197422 2.49202 0.0197422 3.34832 0.286905 3.99411 0.82123 4.42952 1.35684 4.86482 2.15506 5.08259 3.21553 5.08259L4.85308 5.08259 4.85308 5.20658C4.85308 5.78279 4.67645 6.22836 4.32343 6.54317 3.97041 6.85811 3.47463 7.01558 2.8361 7.01558 2.43028 7.01558 2.03462 6.9633 1.64912 6.85886 1.2649 6.75443 0.895643 6.59759 0.541217 6.38872L0.541217 7.54678C0.967369 7.7238 1.38125 7.85582 1.78299 7.94296 2.18473 8.03147 2.57572 8.07572 2.95584 8.07572 3.98384 8.07572 4.75157 7.78988 5.25879 7.21805 5.76613 6.64774 6.01974 5.78204 6.01974 4.62109Z" fill-rule="evenodd" transform="matrix(1 0 0 -1 395 341)"/><path d="M6.0205 4.79409 6.0205 0.0775189 4.84376 0.0775189 4.84376 4.75166C4.84376 5.49124 4.71145 6.04403 4.44672 6.41016 4.1821 6.7777 3.78577 6.96153 3.25784 6.96153 2.62199 6.96153 2.12068 6.74054 1.75369 6.29857 1.38669 5.85801 1.20313 5.25611 1.20313 4.49275L1.20313 0.0775189 0.0203821 0.0775189 0.0203821 7.89009 1.20313 7.89009 1.20313 6.67575C1.48554 7.14601 1.81707 7.49722 2.19773 7.72939 2.57969 7.96143 3.02044 8.07752 3.51974 8.07752 4.34233 8.07752 4.96452 7.79997 5.38606 7.24499 5.80902 6.68989 6.0205 5.87292 6.0205 4.79409Z" fill-rule="evenodd" transform="matrix(1 0 0 -1 404 341)"/><path d="M439.5 341.5 467.5 341.5 467.5 331.5 439.5 331.5Z" stroke="#000000" stroke-width="0.555381" stroke-miterlimit="8" fill="#29FFCE" fill-rule="evenodd"/><path d="M9.03126 9.15353 9.03126 7.77991C8.52261 8.18892 7.98051 8.49396 7.40494 8.69502 6.82924 8.89739 6.21788 8.99863 5.57044 8.99863 4.29483 8.99863 3.3183 8.66195 2.64057 7.98858 1.96298 7.31509 1.62411 6.34144 1.62411 5.06763 1.62411 3.79787 1.96298 2.82636 2.64057 2.15288 3.3183 1.47951 4.29483 1.14282 5.57044 1.14282 6.21788 1.14282 6.82924 1.24395 7.40494 1.44643 7.98051 1.64892 8.52261 1.95455 9.03126 2.36357L9.03126 1.00018C8.50347 0.690381 7.94388 0.457676 7.35235 0.302064 6.76232 0.14776 6.13884 0.070668 5.48204 0.070668 3.79184 0.070668 2.46047 0.516804 1.48779 1.4092 0.516768 2.30302 0.0312567 3.52246 0.0312567 5.06763 0.0312567 6.61686 0.516768 7.83773 1.48779 8.73012 2.46047 9.62382 3.79184 10.0708 5.48204 10.0708 6.14848 10.0708 6.77664 9.99429 7.36667 9.84141 7.9582 9.68854 8.51311 9.45928 9.03126 9.15353Z" fill-rule="evenodd" transform="matrix(1 0 0 -1 478 341)"/><path d="M5.03886 9.01315C3.97686 9.01315 3.13334 8.65993 2.50816 7.95336 1.88459 7.24835 1.5728 6.28636 1.5728 5.06763 1.5728 3.85438 1.88459 2.89453 2.50816 2.18797 3.13334 1.48296 3.97686 1.13033 5.03886 1.13033 6.09925 1.13033 6.93984 1.48296 7.56035 2.18797 8.18086 2.89453 8.49105 3.85438 8.49105 5.06763 8.49105 6.28636 8.18086 7.24835 7.56035 7.95336 6.93984 8.65993 6.09925 9.01315 5.03886 9.01315ZM5.03886 10.0708C6.55314 10.0708 7.76337 9.61763 8.6694 8.71156 9.57704 7.80537 10.0308 6.59068 10.0308 5.06763 10.0308 3.54863 9.57704 2.33609 8.6694 1.4299 7.76337 0.523705 6.55314 0.070668 5.03886 0.070668 3.52004 0.070668 2.30515 0.522396 1.39445 1.42573 0.485344 2.3305 0.0306589 3.54446 0.0306589 5.06763 0.0306589 6.59068 0.485344 7.80537 1.39445 8.71156 2.30515 9.61763 3.52004 10.0708 5.03886 10.0708Z" fill-rule="evenodd" transform="matrix(1 0 0 -1 488 341)"/><path d="M0.035282 1.06806 4.03528 1.06806 4.03528 0.0679491 0.035282 0.0679491Z" fill-rule="evenodd" transform="matrix(1 0 0 -1 499 338)"/><path d="M5.94225 6.3901C6.25232 6.96744 6.62251 7.39309 7.05304 7.66678 7.48358 7.94061 7.99021 8.07752 8.57281 8.07752 9.35779 8.07752 9.96344 7.79264 10.3896 7.22263 10.8158 6.65415 11.029 5.84464 11.029 4.79409L11.029 0.0775189 9.78473 0.0775189 9.78473 4.75166C9.78473 5.50011 9.65634 6.05521 9.39943 6.41684 9.14401 6.77988 8.75437 6.96153 8.23051 6.96153 7.58904 6.96153 7.08179 6.74054 6.70864 6.29857 6.33697 5.85801 6.15107 5.25611 6.15107 4.49275L6.15107 0.0775189 4.90693 0.0775189 4.90693 4.75166C4.90693 5.50461 4.77915 6.06113 4.52373 6.42134 4.26831 6.78142 3.87359 6.96153 3.33982 6.96153 2.7069 6.96153 2.20387 6.73977 1.83071 6.29626 1.45904 5.85287 1.27327 5.25162 1.27327 4.49275L1.27327 0.0775189 0.0289999 0.0775189 0.0289999 7.89009 1.27327 7.89009 1.27327 6.67575C1.55595 7.15488 1.89466 7.5084 2.28926 7.73608 2.68398 7.96375 3.15244 8.07752 3.69488 8.07752 4.24315 8.07752 4.70889 7.93315 5.09196 7.64454 5.47515 7.35735 5.75858 6.93916 5.94225 6.3901Z" fill-rule="evenodd" transform="matrix(1 0 0 -1 505 341)"/><path d="M7.03242 4.3968 7.03242 3.78511 1.32703 3.78511C1.38169 2.92305 1.63922 2.26635 2.09961 1.81501 2.55989 1.36367 3.20154 1.138 4.02431 1.138 4.50049 1.138 4.96225 1.1968 5.40973 1.3144 5.85708 1.43188 6.30158 1.60903 6.74322 1.84548L6.74322 0.661338C6.29723 0.471149 5.84056 0.326093 5.37296 0.225921 4.90548 0.125748 4.43142 0.0757248 3.95102 0.0757248 2.74549 0.0757248 1.79103 0.429149 1.08751 1.13587 0.38412 1.8441 0.0322999 2.80194 0.0322999 4.0094 0.0322999 5.25598 0.366106 6.24504 1.0336 6.97646 1.70108 7.70926 2.60163 8.07572 3.73523 8.07572 4.75081 8.07572 5.55421 7.74562 6.14554 7.08528 6.73676 6.42645 7.03242 5.53029 7.03242 4.3968ZM5.79161 4.76477C5.78304 5.4483 5.59309 5.99392 5.22202 6.40175 4.85082 6.81097 4.35949 7.01558 3.74815 7.01558 3.05619 7.01558 2.50237 6.81824 2.08657 6.42344 1.6709 6.02877 1.43138 5.47287 1.36802 4.75599Z" fill-rule="evenodd" transform="matrix(1 0 0 -1 518 341)"/><path d="M5.74783 6.87044 5.74783 11.076 7.03453 11.076 7.03453 0.277887 5.74783 0.277887 5.74783 1.44366C5.47766 0.981748 5.13611 0.638385 4.7228 0.413314 4.31103 0.18837 3.81578 0.0758338 3.23691 0.0758338 2.29099 0.0758338 1.52041 0.450399 0.925182 1.1994 0.33137 1.94994 0.0345285 2.93578 0.0345285 4.15705 0.0345285 5.37832 0.33137 6.36339 0.925182 7.1124 1.52041 7.8614 2.29099 8.23596 3.23691 8.23596 3.81578 8.23596 4.31103 8.12343 4.7228 7.89848 5.13611 7.67495 5.47766 7.33222 5.74783 6.87044ZM1.36375 4.15705C1.36375 3.21853 1.55842 2.48206 1.94789 1.94764 2.33724 1.41335 2.87205 1.14608 3.55244 1.14608 4.2327 1.14608 4.76828 1.41335 5.15917 1.94764 5.55161 2.48206 5.74783 3.21853 5.74783 4.15705 5.74783 5.09557 5.55161 5.83192 5.15917 6.36633 4.76828 6.90075 4.2327 7.1679 3.55244 7.1679 2.87205 7.1679 2.33724 6.90075 1.94789 6.36633 1.55842 5.83192 1.36375 5.09557 1.36375 4.15705Z" fill-rule="evenodd" transform="matrix(1 0 0 -1 526 341)"/><path d="M0.0289376 7.99417 1.02894 7.99417 1.02894 0.0771226 0.0289376 0.0771226ZM0.0289376 11.0773 1.02894 11.0773 1.02894 9.42824 0.0289376 9.42824Z" fill-rule="evenodd" transform="matrix(1 0 0 -1 536 341)"/><path d="M3.70511 4.10293C2.76228 4.10293 2.10891 3.98759 1.74503 3.75678 1.38114 3.52609 1.19925 3.1313 1.19925 2.57264 1.19925 2.12857 1.33581 1.7759 1.60905 1.51462 1.88229 1.25485 2.25295 1.12496 2.72104 1.12496 3.36903 1.12496 3.8884 1.37094 4.27939 1.86291 4.67026 2.35487 4.86582 3.00868 4.86582 3.82435L4.86582 4.10293ZM6.03247 4.62109 6.03247 0.273813 4.86582 0.273813 4.86582 1.42974C4.59924 0.968249 4.26724 0.627237 3.86948 0.406582 3.47183 0.186052 2.98551 0.0757248 2.41054 0.0757248 1.68416 0.0757248 1.10591 0.294875 0.675675 0.733177 0.246836 1.17148 0.0324754 1.75772 0.0324754 2.49202 0.0324754 3.34832 0.299638 3.99411 0.833963 4.42952 1.36969 4.86482 2.16779 5.08259 3.22826 5.08259L4.86582 5.08259 4.86582 5.20658C4.86582 5.78279 4.68919 6.22836 4.33616 6.54317 3.98314 6.85811 3.48736 7.01558 2.84884 7.01558 2.44301 7.01558 2.04735 6.9633 1.66185 6.85886 1.27764 6.75443 0.908376 6.59759 0.55395 6.38872L0.55395 7.54678C0.980102 7.7238 1.39399 7.85582 1.79572 7.94296 2.19746 8.03147 2.58845 8.07572 2.96858 8.07572 3.99669 8.07572 4.7643 7.78988 5.27164 7.21805 5.77886 6.64774 6.03247 5.78204 6.03247 4.62109Z" fill-rule="evenodd" transform="matrix(1 0 0 -1 539 341)"/><path d="M6.03334 4.79409 6.03334 0.0775189 4.8566 0.0775189 4.8566 4.75166C4.8566 5.49124 4.72429 6.04403 4.45956 6.41016 4.19495 6.7777 3.79861 6.96153 3.27068 6.96153 2.63483 6.96153 2.13352 6.74054 1.76653 6.29857 1.39953 5.85801 1.21609 5.25611 1.21609 4.49275L1.21609 0.0775189 0.033224 0.0775189 0.033224 7.89009 1.21609 7.89009 1.21609 6.67575C1.4985 7.14601 1.82991 7.49722 2.21058 7.72939 2.59265 7.96143 3.03328 8.07752 3.53259 8.07752 4.35529 8.07752 4.97736 7.79997 5.3989 7.24499 5.82186 6.68989 6.03334 5.87292 6.03334 4.79409Z" fill-rule="evenodd" transform="matrix(1 0 0 -1 548 341)"/><path d="M583.5 341.5 611.5 341.5 611.5 331.5 583.5 331.5Z" stroke="#000000" stroke-width="0.555381" stroke-miterlimit="8" fill="#CEFF29" fill-rule="evenodd"/><path d="M0.0438069 10.0733 6.04381 10.0733 6.04381 8.93319 1.45594 8.93319 1.45594 5.98627 5.5962 5.98627 5.5962 4.84824 1.45594 4.84824 1.45594 0.0733179 0.0438069 0.0733179Z" fill-rule="evenodd" transform="matrix(1 0 0 -1 623 341)"/><path d="M0.0440372 10.0733 1.46359 10.0733 1.46359 5.97344 6.62449 5.97344 6.62449 10.0733 8.04417 10.0733 8.04417 0.0733179 6.62449 0.0733179 6.62449 4.8354 1.46359 4.8354 1.46359 0.0733179 0.0440372 0.0733179Z" fill-rule="evenodd" transform="matrix(1 0 0 -1 631 341)"/><path d="M0.0416313 10.0733 2.02549 10.0733 4.53429 3.26882 7.05777 10.0733 9.04163 10.0733 9.04163 0.0733179 7.74293 0.0733179 7.74293 8.85382 5.20682 1.99575 3.87013 1.99575 1.3339 8.85382 1.3339 0.0733179 0.0416313 0.0733179Z" fill-rule="evenodd" transform="matrix(1 0 0 -1 642 341)"/><path d="M0.0427236 10.0733 2.02658 10.0733 4.53538 3.26882 7.05887 10.0733 9.04272 10.0733 9.04272 0.0733179 7.74402 0.0733179 7.74402 8.85382 5.20791 1.99575 3.87122 1.99575 1.33499 8.85382 1.33499 0.0733179 0.0427236 0.0733179Z" fill-rule="evenodd" transform="matrix(1 0 0 -1 654 341)"/><path d="M0.0523761 1.06806 4.05251 1.06806 4.05251 0.0679491 0.0523761 0.0679491Z" fill-rule="evenodd" transform="matrix(1 0 0 -1 665 338)"/><path d="M5.04987 11.0773 5.04987 9.99376 3.8156 9.99376C3.35332 9.99376 3.0316 9.89944 2.85059 9.71093 2.67113 9.52255 2.58133 9.18319 2.58133 8.6931L2.58133 7.99417 4.70658 7.99417 4.70658 6.98298 2.58133 6.98298 2.58133 0.0771226 1.28414 0.0771226 1.28414 6.98298 0.0498721 6.98298 0.0498721 7.99417 1.28414 7.99417 1.28414 8.54602C1.28414 9.42667 1.48764 10.0684 1.89462 10.4711 2.30148 10.8752 2.94633 11.0773 3.82904 11.0773Z" fill-rule="evenodd" transform="matrix(1 0 0 -1 670 341)"/><path d="M0.0395514 7.99417 1.03955 7.99417 1.03955 0.0771226 0.0395514 0.0771226ZM0.0395514 11.0773 1.03955 11.0773 1.03955 9.42824 0.0395514 9.42824Z" fill-rule="evenodd" transform="matrix(1 0 0 -1 676 341)"/><path d="M5.05448 6.69143C4.89679 6.77474 4.72519 6.8358 4.53984 6.87437 4.35448 6.91461 4.15045 6.93466 3.92774 6.93466 3.13422 6.93466 2.52521 6.69889 2.10085 6.22709 1.67636 5.75542 1.46418 5.07755 1.46418 4.1936L1.46418 0.0775189 0.0544837 0.0775189 0.0544837 7.89009 1.46418 7.89009 1.46418 6.67575C1.76019 7.15051 2.14396 7.50236 2.6155 7.73158 3.08858 7.9622 3.66346 8.07752 4.33988 8.07752 4.43578 8.07752 4.54237 8.0716 4.65934 8.05965 4.77645 8.04924 4.90578 8.03214 5.04718 8.00836Z" fill-rule="evenodd" transform="matrix(1 0 0 -1 679 341)"/><path d="M4.69072 7.66864 4.69072 6.4845C4.3879 6.66579 4.0727 6.80157 3.74492 6.89158 3.41842 6.98298 3.07944 7.02862 2.72808 7.02862 2.19476 7.02862 1.79476 6.93358 1.5281 6.74352 1.26143 6.55333 1.1281 6.26748 1.1281 5.88585 1.1281 5.59561 1.22334 5.36769 1.41403 5.20232 1.60472 5.03683 1.98846 4.87936 2.56548 4.72992L2.93373 4.63413C3.69638 4.44394 4.23843 4.17552 4.55986 3.82862 4.88141 3.48184 5.04218 2.99777 5.04218 2.37668 5.04218 1.66845 4.80167 1.10754 4.32064 0.693935 3.83961 0.281837 3.17855 0.0757248 2.33745 0.0757248 1.98728 0.0757248 1.62215 0.115593 1.24206 0.195455 0.861976 0.275317 0.46198 0.394296 0.0420765 0.552515L0.0420765 1.84548C0.439597 1.60464 0.830876 1.42398 1.21591 1.30349 1.60095 1.18452 1.98287 1.12496 2.36177 1.12496 2.86766 1.12496 3.25646 1.22589 3.52808 1.42761 3.80098 1.62934 3.93743 1.91368 3.93743 2.2809 3.93743 2.62053 3.83897 2.88105 3.64215 3.06234 3.44651 3.24375 3.0153 3.41865 2.34864 3.58702L1.9748 3.68933C1.30932 3.85194 0.828401 4.10218 0.531821 4.44043 0.236425 4.77856 0.0887803 5.24219 0.0887803 5.83144 0.0887803 6.54832 0.306803 7.10121 0.742957 7.49011 1.17911 7.88052 1.79842 8.07572 2.60099 8.07572 2.99722 8.07572 3.37042 8.04162 3.72059 7.97342 4.07206 7.90672 4.39543 7.80505 4.69072 7.66864Z" fill-rule="evenodd" transform="matrix(1 0 0 -1 685 341)"/><path d="M2.34243 10.0764 2.34243 7.86454 5.05312 7.86454 5.05312 6.86979 2.34243 6.86979 2.34243 2.64193C2.34243 2.00705 2.43166 1.59913 2.61025 1.41804 2.78885 1.23709 3.15289 1.14661 3.70225 1.14661L5.05312 1.14661 5.05312 0.0762527 3.70225 0.0762527C2.68578 0.0762527 1.98445 0.260285 1.59839 0.62822 1.21221 0.997565 1.01911 1.66885 1.01911 2.64193L1.01911 6.86979 0.0529854 6.86979 0.0529854 7.86454 1.01911 7.86454 1.01911 10.0764Z" fill-rule="evenodd" transform="matrix(1 0 0 -1 691 341)"/><path d="M724.5 341.5 752.5 341.5 752.5 331.5 724.5 331.5Z" stroke="#000000" stroke-width="0.555381" stroke-miterlimit="8" fill="#FF6800" fill-rule="evenodd"/><path d="M0.0479943 10.0733 5.04799 10.0733 5.04799 8.93319 1.22477 8.93319 1.22477 5.98627 4.67499 5.98627 4.67499 4.84824 1.22477 4.84824 1.22477 0.0733179 0.0479943 0.0733179Z" fill-rule="evenodd" transform="matrix(1 0 0 -1 765 341)"/><path d="M0.0578959 10.0733 1.47745 10.0733 1.47745 5.97344 6.63834 5.97344 6.63834 10.0733 8.0579 10.0733 8.0579 0.0733179 6.63834 0.0733179 6.63834 4.8354 1.47745 4.8354 1.47745 0.0733179 0.0578959 0.0733179Z" fill-rule="evenodd" transform="matrix(1 0 0 -1 772 341)"/><path d="M0.0546183 10.0733 2.03835 10.0733 4.54715 3.26882 7.07076 10.0733 9.05462 10.0733 9.05462 0.0733179 7.75592 0.0733179 7.75592 8.85382 5.21969 1.99575 3.88312 1.99575 1.34689 8.85382 1.34689 0.0733179 0.0546183 0.0733179Z" fill-rule="evenodd" transform="matrix(1 0 0 -1 783 341)"/><path d="M0.0557106 10.0733 2.03945 10.0733 4.54825 3.26882 7.07185 10.0733 9.05571 10.0733 9.05571 0.0733179 7.75701 0.0733179 7.75701 8.85382 5.22078 1.99575 3.88421 1.99575 1.34798 8.85382 1.34798 0.0733179 0.0557106 0.0733179Z" fill-rule="evenodd" transform="matrix(1 0 0 -1 795 341)"/><path d="M0.0670085 1.06806 4.06715 1.06806 4.06715 0.0679491 0.0670085 0.0679491Z" fill-rule="evenodd" transform="matrix(1 0 0 -1 806 338)"/><path d="M5.97112 6.3901C6.28108 6.96744 6.65138 7.39309 7.08192 7.66678 7.51245 7.94061 8.01896 8.07752 8.60169 8.07752 9.38666 8.07752 9.99219 7.79264 10.4185 7.22263 10.8447 6.65415 11.0578 5.84464 11.0578 4.79409L11.0578 0.0775189 9.81361 0.0775189 9.81361 4.75166C9.81361 5.50011 9.68509 6.05521 9.42831 6.41684 9.17276 6.77988 8.78312 6.96153 8.25939 6.96153 7.61792 6.96153 7.11055 6.74054 6.73739 6.29857 6.36572 5.85801 6.17995 5.25611 6.17995 4.49275L6.17995 0.0775189 4.93568 0.0775189 4.93568 4.75166C4.93568 5.50461 4.80791 6.06113 4.55248 6.42134 4.29706 6.78142 3.90247 6.96153 3.36857 6.96153 2.73565 6.96153 2.23262 6.73977 1.85959 6.29626 1.48779 5.85287 1.30202 5.25162 1.30202 4.49275L1.30202 0.0775189 0.0577519 0.0775189 0.0577519 7.89009 1.30202 7.89009 1.30202 6.67575C1.58471 7.15488 1.92341 7.5084 2.31801 7.73608 2.71273 7.96375 3.18131 8.07752 3.72376 8.07752 4.2719 8.07752 4.73764 7.93315 5.12083 7.64454 5.50403 7.35735 5.78746 6.93916 5.97112 6.3901Z" fill-rule="evenodd" transform="matrix(1 0 0 -1 812 341)"/><path d="M7.06125 4.3968 7.06125 3.78511 1.35597 3.78511C1.41063 2.92305 1.66804 2.26635 2.12844 1.81501 2.58871 1.36367 3.23036 1.138 4.05326 1.138 4.52943 1.138 4.9912 1.1968 5.43855 1.3144 5.8859 1.43188 6.33052 1.60903 6.77216 1.84548L6.77216 0.661338C6.32618 0.471149 5.86938 0.326093 5.4019 0.225921 4.9343 0.125748 4.46036 0.0757248 3.97984 0.0757248 2.77431 0.0757248 1.81985 0.429149 1.11646 1.13587 0.412941 1.8441 0.0612455 2.80194 0.0612455 4.0094 0.0612455 5.25598 0.394928 6.24504 1.06242 6.97646 1.72991 7.70926 2.63045 8.07572 3.76405 8.07572 4.77963 8.07572 5.58315 7.74562 6.17437 7.08528 6.76558 6.42645 7.06125 5.53029 7.06125 4.3968ZM5.82043 4.76477C5.81186 5.4483 5.62191 5.99392 5.25084 6.40175 4.87964 6.81097 4.38843 7.01558 3.77697 7.01558 3.08513 7.01558 2.53119 6.81824 2.11552 6.42344 1.69972 6.02877 1.4602 5.47287 1.39697 4.75599Z" fill-rule="evenodd" transform="matrix(1 0 0 -1 825 341)"/><path d="M4.35302 4.10293C3.25305 4.10293 2.49079 3.98759 2.06626 3.75678 1.64172 3.52609 1.42938 3.1313 1.42938 2.57264 1.42938 2.12857 1.58884 1.7759 1.90762 1.51462 2.22639 1.25485 2.65883 1.12496 3.20494 1.12496 3.96079 1.12496 4.56686 1.37094 5.02301 1.86291 5.47903 2.35487 5.70704 3.00868 5.70704 3.82435L5.70704 4.10293ZM7.06828 4.62109 7.06828 0.273813 5.70704 0.273813 5.70704 1.42974C5.39617 0.968249 5.0087 0.627237 4.54478 0.406582 4.08072 0.186052 3.51336 0.0757248 2.84268 0.0757248 1.99525 0.0757248 1.32049 0.294875 0.818679 0.733177 0.318368 1.17148 0.06828 1.75772 0.06828 2.49202 0.06828 3.34832 0.37997 3.99411 1.00335 4.42952 1.62823 4.86482 2.55934 5.08259 3.7967 5.08259L5.70704 5.08259 5.70704 5.20658C5.70704 5.78279 5.50111 6.22836 5.08925 6.54317 4.67739 6.85811 4.09898 7.01558 3.35404 7.01558 2.88057 7.01558 2.41897 6.9633 1.96922 6.85886 1.52097 6.75443 1.09016 6.59759 0.676668 6.38872L0.676668 7.54678C1.17371 7.7238 1.65671 7.85582 2.1254 7.94296 2.5941 8.03147 3.05025 8.07572 3.49373 8.07572 4.69306 8.07572 5.58874 7.78988 6.1805 7.21805 6.7724 6.64774 7.06828 5.78204 7.06828 4.62109Z" fill-rule="evenodd" transform="matrix(1 0 0 -1 833 341)"/><path d="M7.06955 4.79409 7.06955 0.0775189 5.69668 0.0775189 5.69668 4.75166C5.69668 5.49124 5.54233 6.04403 5.23347 6.41016 4.92476 6.7777 4.46237 6.96153 3.84631 6.96153 3.10462 6.96153 2.51976 6.74054 2.0916 6.29857 1.66344 5.85801 1.44929 5.25611 1.44929 4.49275L1.44929 0.0775189 0.0694131 0.0775189 0.0694131 7.89009 1.44929 7.89009 1.44929 6.67575C1.77876 7.14601 2.16555 7.49722 2.60966 7.72939 3.05528 7.96143 3.56948 8.07752 4.152 8.07752 5.11169 8.07752 5.83757 7.79997 6.32937 7.24499 6.82282 6.68989 7.06955 5.87292 7.06955 4.79409Z" fill-rule="evenodd" transform="matrix(1 0 0 -1 842 341)"/><path d="M878.5 341.5 905.5 341.5 905.5 331.5 878.5 331.5Z" stroke="#000000" stroke-width="0.555381" stroke-miterlimit="8" fill="#800000" fill-rule="evenodd"/><path d="M0.0725391 10.0733 6.07254 10.0733 6.07254 8.93319 1.48467 8.93319 1.48467 5.98627 5.62494 5.98627 5.62494 4.84824 1.48467 4.84824 1.48467 0.0733179 0.0725391 0.0733179Z" fill-rule="evenodd" transform="matrix(1 0 0 -1 918 341)"/><path d="M0.0729204 10.0733 1.49247 10.0733 1.49247 5.97344 6.65337 5.97344 6.65337 10.0733 8.07292 10.0733 8.07292 0.0733179 6.65337 0.0733179 6.65337 4.8354 1.49247 4.8354 1.49247 0.0733179 0.0729204 0.0733179Z" fill-rule="evenodd" transform="matrix(1 0 0 -1 926 341)"/><path d="M0.0763307 10.0733 2.28048 10.0733 5.06804 3.26882 7.87204 10.0733 10.0763 10.0733 10.0763 0.0733179 8.63333 0.0733179 8.63333 8.85382 5.8153 1.99575 4.33022 1.99575 1.51218 8.85382 1.51218 0.0733179 0.0763307 0.0733179Z" fill-rule="evenodd" transform="matrix(1 0 0 -1 936 341)"/><path d="M0.0775445 10.0733 2.28183 10.0733 5.06939 3.26882 7.87326 10.0733 10.0775 10.0733 10.0775 0.0733179 8.63454 0.0733179 8.63454 8.85382 5.81651 1.99575 4.33143 1.99575 1.5134 8.85382 1.5134 0.0733179 0.0775445 0.0733179Z" fill-rule="evenodd" transform="matrix(1 0 0 -1 948 341)"/><path d="M0.0621538 1.06806 3.06226 1.06806 3.06226 0.0679491 0.0621538 0.0679491Z" fill-rule="evenodd" transform="matrix(1 0 0 -1 960 338)"/><path d="M5.9855 6.3901C6.29545 6.96744 6.66576 7.39309 7.09629 7.66678 7.52683 7.94061 8.03334 8.07752 8.61606 8.07752 9.40104 8.07752 10.0066 7.79264 10.4329 7.22263 10.8591 6.65415 11.0721 5.84464 11.0721 4.79409L11.0721 0.0775189 9.82798 0.0775189 9.82798 4.75166C9.82798 5.50011 9.69947 6.05521 9.44268 6.41684 9.18714 6.77988 8.7975 6.96153 8.27376 6.96153 7.6323 6.96153 7.12492 6.74054 6.75177 6.29857 6.3801 5.85801 6.19432 5.25611 6.19432 4.49275L6.19432 0.0775189 4.95006 0.0775189 4.95006 4.75166C4.95006 5.50461 4.82228 6.06113 4.56686 6.42134 4.31144 6.78142 3.91684 6.96153 3.38295 6.96153 2.75003 6.96153 2.24699 6.73977 1.87396 6.29626 1.50229 5.85287 1.3164 5.25162 1.3164 4.49275L1.3164 0.0775189 0.0721279 0.0775189 0.0721279 7.89009 1.3164 7.89009 1.3164 6.67575C1.59908 7.15488 1.93779 7.5084 2.33238 7.73608 2.7271 7.96375 3.19569 8.07752 3.73813 8.07752 4.28628 8.07752 4.75201 7.93315 5.13521 7.64454 5.5184 7.35735 5.80183 6.93916 5.9855 6.3901Z" fill-rule="evenodd" transform="matrix(1 0 0 -1 965 341)"/><path d="M7.07566 4.3968 7.07566 3.78511 1.37038 3.78511C1.42504 2.92305 1.68245 2.26635 2.14285 1.81501 2.60312 1.36367 3.24477 1.138 4.06767 1.138 4.54384 1.138 5.00561 1.1968 5.45296 1.3144 5.90031 1.43188 6.34493 1.60903 6.78657 1.84548L6.78657 0.661338C6.34059 0.471149 5.88379 0.326093 5.41631 0.225921 4.94871 0.125748 4.47477 0.0757248 3.99425 0.0757248 2.78872 0.0757248 1.83426 0.429149 1.13087 1.13587 0.427352 1.8441 0.0756562 2.80194 0.0756562 4.0094 0.0756562 5.25598 0.409339 6.24504 1.07683 6.97646 1.74432 7.70926 2.64486 8.07572 3.77846 8.07572 4.79404 8.07572 5.59757 7.74562 6.18878 7.08528 6.77999 6.42645 7.07566 5.53029 7.07566 4.3968ZM5.83497 4.76477C5.82627 5.4483 5.63645 5.99392 5.26525 6.40175 4.89405 6.81097 4.40284 7.01558 3.79138 7.01558 3.09954 7.01558 2.5456 6.81824 2.12993 6.42344 1.71413 6.02877 1.47461 5.47287 1.41138 4.75599Z" fill-rule="evenodd" transform="matrix(1 0 0 -1 978 341)"/><path d="M5.79266 6.87044 5.79266 11.076 7.07936 11.076 7.07936 0.277887 5.79266 0.277887 5.79266 1.44366C5.52262 0.981748 5.18094 0.638385 4.76776 0.413314 4.356 0.18837 3.86062 0.0758338 3.28175 0.0758338 2.33582 0.0758338 1.56525 0.450399 0.970018 1.1994 0.376206 1.94994 0.0793639 2.93578 0.0793639 4.15705 0.0793639 5.37832 0.376206 6.36339 0.970018 7.1124 1.56525 7.8614 2.33582 8.23596 3.28175 8.23596 3.86062 8.23596 4.356 8.12343 4.76776 7.89848 5.18094 7.67495 5.52262 7.33222 5.79266 6.87044ZM1.40871 4.15705C1.40871 3.21853 1.60338 2.48206 1.99273 1.94764 2.38208 1.41335 2.91701 1.14608 3.59727 1.14608 4.27766 1.14608 4.81324 1.41335 5.20413 1.94764 5.59644 2.48206 5.79266 3.21853 5.79266 4.15705 5.79266 5.09557 5.59644 5.83192 5.20413 6.36633 4.81324 6.90075 4.27766 7.1679 3.59727 7.1679 2.91701 7.1679 2.38208 6.90075 1.99273 6.36633 1.60338 5.83192 1.40871 5.09557 1.40871 4.15705Z" fill-rule="evenodd" transform="matrix(1 0 0 -1 987 341)"/><path d="M0.0637829 7.99417 1.06388 7.99417 1.06388 0.0771226 0.0637829 0.0771226ZM0.0637829 11.0773 1.06388 11.0773 1.06388 9.42824 0.0637829 9.42824Z" fill-rule="evenodd" transform="matrix(1 0 0 -1 996 341)"/><path d="M4.3702 4.10293C3.27008 4.10293 2.50783 3.98759 2.08329 3.75678 1.65876 3.52609 1.44656 3.1313 1.44656 2.57264 1.44656 2.12857 1.60601 1.7759 1.92479 1.51462 2.24357 1.25485 2.67601 1.12496 3.22197 1.12496 3.97796 1.12496 4.58403 1.37094 5.04005 1.86291 5.4962 2.35487 5.72421 3.00868 5.72421 3.82435L5.72421 4.10293ZM7.08545 4.62109 7.08545 0.273813 5.72421 0.273813 5.72421 1.42974C5.41334 0.968249 5.02588 0.627237 4.56182 0.406582 4.09789 0.186052 3.53053 0.0757248 2.85986 0.0757248 2.01229 0.0757248 1.33766 0.294875 0.835851 0.733177 0.33554 1.17148 0.085316 1.75772 0.085316 2.49202 0.085316 3.34832 0.397006 3.99411 1.02038 4.42952 1.6454 4.86482 2.57652 5.08259 3.81387 5.08259L5.72421 5.08259 5.72421 5.20658C5.72421 5.78279 5.51828 6.22836 5.10628 6.54317 4.69442 6.85811 4.11602 7.01558 3.37121 7.01558 2.89775 7.01558 2.436 6.9633 1.98625 6.85886 1.53814 6.75443 1.1072 6.59759 0.693703 6.38872L0.693703 7.54678C1.19088 7.7238 1.67375 7.85582 2.14258 7.94296 2.61127 8.03147 3.06729 8.07572 3.51077 8.07572 4.71023 8.07572 5.60578 7.78988 6.19768 7.21805 6.78944 6.64774 7.08545 5.78204 7.08545 4.62109Z" fill-rule="evenodd" transform="matrix(1 0 0 -1 999 341)"/><path d="M7.08673 4.79409 7.08673 0.0775189 5.714 0.0775189 5.714 4.75166C5.714 5.49124 5.55951 6.04403 5.25079 6.41016 4.94194 6.7777 4.47955 6.96153 3.86363 6.96153 3.12194 6.96153 2.53695 6.74054 2.10878 6.29857 1.68062 5.85801 1.46661 5.25611 1.46661 4.49275L1.46661 0.0775189 0.0865945 0.0775189 0.0865945 7.89009 1.46661 7.89009 1.46661 6.67575C1.79608 7.14601 2.18287 7.49722 2.62698 7.72939 3.07259 7.96143 3.58666 8.07752 4.16918 8.07752 5.12901 8.07752 5.85475 7.79997 6.34669 7.24499 6.84001 6.68989 7.08673 5.87292 7.08673 4.79409Z" fill-rule="evenodd" transform="matrix(1 0 0 -1 1008 341)"/></g></svg>