<svg width="610" height="145" xmlns="http://www.w3.org/2000/svg" xmlns:xlink="http://www.w3.org/1999/xlink" overflow="hidden"><defs><clipPath id="clip0"><path d="M306 383 916 383 916 528 306 528Z" fill-rule="evenodd" clip-rule="evenodd"/></clipPath></defs><g clip-path="url(#clip0)" transform="translate(-306 -383)"><path d="M365.5 497.5 374.5 497.5 374.5 426.5 365.5 426.5Z" stroke="#000000" stroke-width="0.508031" stroke-miterlimit="8" fill="#000080" fill-rule="evenodd"/><path d="M444.5 497.5 453.5 497.5 453.5 426.5 444.5 426.5Z" stroke="#000000" stroke-width="0.508031" stroke-miterlimit="8" fill="#000080" fill-rule="evenodd"/><path d="M523.5 497.5 532.5 497.5 532.5 426.5 523.5 426.5Z" stroke="#000000" stroke-width="0.508031" stroke-miterlimit="8" fill="#000080" fill-rule="evenodd"/><path d="M602.5 497.5 611.5 497.5 611.5 426.5 602.5 426.5Z" stroke="#000000" stroke-width="0.508031" stroke-miterlimit="8" fill="#000080" fill-rule="evenodd"/><path d="M680.5 497.5 690.5 497.5 690.5 424.5 680.5 424.5Z" stroke="#000000" stroke-width="0.508031" stroke-miterlimit="8" fill="#000080" fill-rule="evenodd"/><path d="M759.5 497.5 768.5 497.5 768.5 426.5 759.5 426.5Z" stroke="#000000" stroke-width="0.508031" stroke-miterlimit="8" fill="#000080" fill-rule="evenodd"/><path d="M838.5 497.5 847.5 497.5 847.5 422.5 838.5 422.5Z" stroke="#000000" stroke-width="0.508031" stroke-miterlimit="8" fill="#000080" fill-rule="evenodd"/><path d="M374.5 497.5 384.5 497.5 384.5 448.5 374.5 448.5Z" stroke="#000000" stroke-width="0.508031" stroke-miterlimit="8" fill="#004CFF" fill-rule="evenodd"/><path d="M453.5 497.5 462.5 497.5 462.5 442.5 453.5 442.5Z" stroke="#000000" stroke-width="0.508031" stroke-miterlimit="8" fill="#004CFF" fill-rule="evenodd"/><path d="M532.5 497.5 541.5 497.5 541.5 440.5 532.5 440.5Z" stroke="#000000" stroke-width="0.508031" stroke-miterlimit="8" fill="#004CFF" fill-rule="evenodd"/><path d="M611.5 497.5 620.5 497.5 620.5 436.5 611.5 436.5Z" stroke="#000000" stroke-width="0.508031" stroke-miterlimit="8" fill="#004CFF" fill-rule="evenodd"/><path d="M690.5 497.5 699.5 497.5 699.5 434.5 690.5 434.5Z" stroke="#000000" stroke-width="0.508031" stroke-miterlimit="8" fill="#004CFF" fill-rule="evenodd"/><path d="M768.5 497.5 778.5 497.5 778.5 434.5 768.5 434.5Z" stroke="#000000" stroke-width="0.508031" stroke-miterlimit="8" fill="#004CFF" fill-rule="evenodd"/><path d="M847.5 497.5 856.5 497.5 856.5 435.5 847.5 435.5Z" stroke="#000000" stroke-width="0.508031" stroke-miterlimit="8" fill="#004CFF" fill-rule="evenodd"/><path d="M384.5 497.5 393.5 497.5 393.5 444.5 384.5 444.5Z" stroke="#000000" stroke-width="0.508031" stroke-miterlimit="8" fill="#29FFCE" fill-rule="evenodd"/><path d="M462.5 497.5 472.5 497.5 472.5 428.5 462.5 428.5Z" stroke="#000000" stroke-width="0.508031" stroke-miterlimit="8" fill="#29FFCE" fill-rule="evenodd"/><path d="M541.5 497.5 550.5 497.5 550.5 430.5 541.5 430.5Z" stroke="#000000" stroke-width="0.508031" stroke-miterlimit="8" fill="#29FFCE" fill-rule="evenodd"/><path d="M620.5 497.5 629.5 497.5 629.5 446.5 620.5 446.5Z" stroke="#000000" stroke-width="0.508031" stroke-miterlimit="8" fill="#29FFCE" fill-rule="evenodd"/><path d="M699.5 497.5 708.5 497.5 708.5 447.5 699.5 447.5Z" stroke="#000000" stroke-width="0.508031" stroke-miterlimit="8" fill="#29FFCE" fill-rule="evenodd"/><path d="M778.5 497.5 787.5 497.5 787.5 448.5 778.5 448.5Z" stroke="#000000" stroke-width="0.508031" stroke-miterlimit="8" fill="#29FFCE" fill-rule="evenodd"/><path d="M856.5 497.5 865.5 497.5 865.5 445.5 856.5 445.5Z" stroke="#000000" stroke-width="0.508031" stroke-miterlimit="8" fill="#29FFCE" fill-rule="evenodd"/><path d="M393.5 497.5 402.5 497.5 402.5 427.5 393.5 427.5Z" stroke="#000000" stroke-width="0.508031" stroke-miterlimit="8" fill="#CEFF29" fill-rule="evenodd"/><path d="M472.5 497.5 481.5 497.5 481.5 427.5 472.5 427.5Z" stroke="#000000" stroke-width="0.508031" stroke-miterlimit="8" fill="#CEFF29" fill-rule="evenodd"/><path d="M550.5 497.5 560.5 497.5 560.5 427.5 550.5 427.5Z" stroke="#000000" stroke-width="0.508031" stroke-miterlimit="8" fill="#CEFF29" fill-rule="evenodd"/><path d="M629.5 497.5 638.5 497.5 638.5 427.5 629.5 427.5Z" stroke="#000000" stroke-width="0.508031" stroke-miterlimit="8" fill="#CEFF29" fill-rule="evenodd"/><path d="M708.5 497.5 717.5 497.5 717.5 428.5 708.5 428.5Z" stroke="#000000" stroke-width="0.508031" stroke-miterlimit="8" fill="#CEFF29" fill-rule="evenodd"/><path d="M787.5 497.5 796.5 497.5 796.5 427.5 787.5 427.5Z" stroke="#000000" stroke-width="0.508031" stroke-miterlimit="8" fill="#CEFF29" fill-rule="evenodd"/><path d="M865.5 497.5 875.5 497.5 875.5 427.5 865.5 427.5Z" stroke="#000000" stroke-width="0.508031" stroke-miterlimit="8" fill="#CEFF29" fill-rule="evenodd"/><path d="M402.5 497.5 411.5 497.5 411.5 427.5 402.5 427.5Z" stroke="#000000" stroke-width="0.508031" stroke-miterlimit="8" fill="#FF6800" fill-rule="evenodd"/><path d="M481.5 497.5 490.5 497.5 490.5 428.5 481.5 428.5Z" stroke="#000000" stroke-width="0.508031" stroke-miterlimit="8" fill="#FF6800" fill-rule="evenodd"/><path d="M560.5 497.5 569.5 497.5 569.5 429.5 560.5 429.5Z" stroke="#000000" stroke-width="0.508031" stroke-miterlimit="8" fill="#FF6800" fill-rule="evenodd"/><path d="M638.5 497.5 648.5 497.5 648.5 431.5 638.5 431.5Z" stroke="#000000" stroke-width="0.508031" stroke-miterlimit="8" fill="#FF6800" fill-rule="evenodd"/><path d="M717.5 497.5 726.5 497.5 726.5 422.5 717.5 422.5Z" stroke="#000000" stroke-width="0.508031" stroke-miterlimit="8" fill="#FF6800" fill-rule="evenodd"/><path d="M796.5 497.5 805.5 497.5 805.5 424.5 796.5 424.5Z" stroke="#000000" stroke-width="0.508031" stroke-miterlimit="8" fill="#FF6800" fill-rule="evenodd"/><path d="M875.5 497.5 884.5 497.5 884.5 421.5 875.5 421.5Z" stroke="#000000" stroke-width="0.508031" stroke-miterlimit="8" fill="#FF6800" fill-rule="evenodd"/><path d="M411.5 497.5 420.5 497.5 420.5 426.5 411.5 426.5Z" stroke="#000000" stroke-width="0.508031" stroke-miterlimit="8" fill="#800000" fill-rule="evenodd"/><path d="M490.5 497.5 499.5 497.5 499.5 430.5 490.5 430.5Z" stroke="#000000" stroke-width="0.508031" stroke-miterlimit="8" fill="#800000" fill-rule="evenodd"/><path d="M569.5 497.5 578.5 497.5 578.5 429.5 569.5 429.5Z" stroke="#000000" stroke-width="0.508031" stroke-miterlimit="8" fill="#800000" fill-rule="evenodd"/><path d="M648.5 497.5 657.5 497.5 657.5 431.5 648.5 431.5Z" stroke="#000000" stroke-width="0.508031" stroke-miterlimit="8" fill="#800000" fill-rule="evenodd"/><path d="M726.5 497.5 736.5 497.5 736.5 428.5 726.5 428.5Z" stroke="#000000" stroke-width="0.508031" stroke-miterlimit="8" fill="#800000" fill-rule="evenodd"/><path d="M805.5 497.5 814.5 497.5 814.5 430.5 805.5 430.5Z" stroke="#000000" stroke-width="0.508031" stroke-miterlimit="8" fill="#800000" fill-rule="evenodd"/><path d="M884.5 497.5 893.5 497.5 893.5 417.5 884.5 417.5Z" stroke="#000000" stroke-width="0.508031" stroke-miterlimit="8" fill="#800000" fill-rule="evenodd"/><path d="M393.51 497.511 393.51 494.511" stroke="#000000" stroke-width="0.812913" stroke-linejoin="round" stroke-miterlimit="10" fill="none" fill-rule="evenodd"/><path d="M472.518 497.511 472.518 494.511" stroke="#000000" stroke-width="0.812913" stroke-linejoin="round" stroke-miterlimit="10" fill="none" fill-rule="evenodd"/><path d="M550.526 497.511 550.526 494.511" stroke="#000000" stroke-width="0.812913" stroke-linejoin="round" stroke-miterlimit="10" fill="none" fill-rule="evenodd"/><path d="M629.534 497.511 629.534 494.511" stroke="#000000" stroke-width="0.812913" stroke-linejoin="round" stroke-miterlimit="10" fill="none" fill-rule="evenodd"/><path d="M708.542 497.511 708.542 494.511" stroke="#000000" stroke-width="0.812913" stroke-linejoin="round" stroke-miterlimit="10" fill="none" fill-rule="evenodd"/><path d="M787.55 497.511 787.55 494.511" stroke="#000000" stroke-width="0.812913" stroke-linejoin="round" stroke-miterlimit="10" fill="none" fill-rule="evenodd"/><path d="M865.615 497.511 865.615 494.511" stroke="#000000" stroke-width="0.812913" stroke-linejoin="round" stroke-miterlimit="10" fill="none" fill-rule="evenodd"/><path d="M346.504 497.512 349.504 497.512" stroke="#000000" stroke-width="0.812913" stroke-linejoin="round" stroke-miterlimit="10" fill="none" fill-rule="evenodd"/><path d="M2.5 7.18284C1.99662 7.18284 1.61775 6.91849 1.3635 6.38969 1.11027 5.86188 0.983706 5.06753 0.983706 4.00666 0.983706 2.95005 1.11027 2.15745 1.3635 1.62854 1.61775 1.09974 1.99662 0.835399 2.5 0.835399 3.00748 0.835399 3.38789 1.09974 3.64111 1.62854 3.89537 2.15745 4.02244 2.95005 4.02244 4.00666 4.02244 5.06753 3.89537 5.86188 3.64111 6.38969 3.38789 6.91849 3.00748 7.18284 2.5 7.18284ZM2.5 8.00917C3.31133 8.00917 3.93103 7.66708 4.35888 6.98291 4.78684 6.29983 5.00082 5.30775 5.00082 4.00666 5.00082 2.70885 4.78684 1.71786 4.35888 1.03368 3.93103 0.350603 3.31133 0.00906262 2.5 0.00906262 1.68959 0.00906262 1.07051 0.350603 0.64255 1.03368 0.214696 1.71786 0.00071736 2.70885 0.00071736 4.00666 0.00071736 5.30775 0.214696 6.29983 0.64255 6.98291 1.07051 7.66708 1.68959 8.00917 2.5 8.00917Z" fill-rule="evenodd" transform="matrix(1 0 0 -1 336 501)"/><path d="M346.504 476.51 349.504 476.51" stroke="#000000" stroke-width="0.812913" stroke-linejoin="round" stroke-miterlimit="10" fill="none" fill-rule="evenodd"/><path d="M1.02519 0.788597 4.00027 0.788597 4.00027 0.00603692 0.000178528 0.00603692 0.000178528 0.788597C0.323403 1.15402 0.764098 1.64428 1.32226 2.25927 1.88132 2.87533 2.23249 3.27269 2.37567 3.45156 2.64846 3.78554 2.83886 4.06849 2.94687 4.30033 3.05586 4.53226 3.11031 4.76021 3.11031 4.98416 3.11031 5.34968 2.99275 5.64734 2.7578 5.87723 2.52286 6.10809 2.21669 6.22357 1.83946 6.22357 1.57211 6.22357 1.28986 6.17294 0.992792 6.07177 0.696525 5.97061 0.379639 5.81676 0.0420432 5.61054L0.0420432 6.55074C0.385084 6.70098 0.705541 6.81451 1.00359 6.89114 1.30245 6.96777 1.57568 7.00604 1.8233 7.00604 2.476 7.00604 2.99641 6.82775 3.38444 6.47109 3.77247 6.11549 3.96653 5.63994 3.96653 5.04462 3.96653 4.76167 3.91788 4.49341 3.82067 4.23996 3.72426 3.98748 3.54788 3.68924 3.29125 3.34543 3.22099 3.25604 2.9973 2.99859 2.62007 2.57319 2.24373 2.14778 1.71208 1.55295 1.02519 0.788597Z" fill-rule="evenodd" transform="matrix(1 0 0 -1 330 480)"/><path d="M0.327101 7.00622 4.43108 7.00622 4.43108 6.22336 1.28432 6.22336 1.28432 4.54144C1.43561 4.58752 1.5869 4.62185 1.73819 4.6444 1.89057 4.66696 2.04285 4.67824 2.19523 4.67824 3.05754 4.67824 3.74053 4.46833 4.24399 4.0484 4.74854 3.62858 5.00088 3.0601 5.00088 2.34296 5.00088 1.60423 4.74187 1.02982 4.22407 0.619817 3.70627 0.210689 2.97642 0.00612526 2.03464 0.00612526 1.70994 0.00612526 1.37934 0.0307235 1.0425 0.0797255 0.706857 0.128825 0.359614 0.202328 0.0007663 0.300429L0.0007663 1.23487C0.311008 1.08475 0.631869 0.972943 0.963021 0.899343 1.29428 0.82584 1.64426 0.788991 2.01307 0.788991 2.61046 0.788991 3.08294 0.928316 3.43073 1.20697 3.77972 1.48552 3.95411 1.86422 3.95411 2.34296 3.95411 2.82073 3.77972 3.19884 3.43073 3.47749 3.08294 3.75711 2.61046 3.89683 2.01307 3.89683 1.7337 3.89683 1.45499 3.86941 1.17671 3.81448 0.899527 3.75955 0.616324 3.67369 0.327101 3.55693Z" fill-rule="evenodd" transform="matrix(1 0 0 -1 336 480)"/><path d="M346.504 456.508 349.504 456.508" stroke="#000000" stroke-width="0.812913" stroke-linejoin="round" stroke-miterlimit="10" fill="none" fill-rule="evenodd"/><path d="M0.326334 8.00489 4.43042 8.00489 4.43042 7.11019 1.28366 7.11019 1.28366 5.18788C1.43495 5.24066 1.58624 5.27989 1.73742 5.30567 1.88981 5.33144 2.04219 5.34433 2.19457 5.34433 3.05688 5.34433 3.73976 5.10443 4.24322 4.62453 4.74789 4.14473 5.00011 3.49492 5.00011 2.67533 5.00011 1.83119 4.74121 1.17472 4.22341 0.706029 3.70561 0.238565 2.97576 0.00477798 2.03387 0.00477798 1.70929 0.00477798 1.37857 0.0327791 1.04184 0.0888926 0.7062 0.144895 0.358957 0.22901 0.000109471 0.341125L0.000109471 1.40906C0.310352 1.2375 0.631103 1.10971 0.962364 1.0256 1.29362 0.941484 1.6436 0.899482 2.01241 0.899482 2.60969 0.899482 3.08228 1.05871 3.43007 1.37706 3.77895 1.69552 3.95345 2.12831 3.95345 2.67533 3.95345 3.22136 3.77895 3.6536 3.43007 3.97205 3.08228 4.29151 2.60969 4.4513 2.01241 4.4513 1.73304 4.4513 1.45422 4.41996 1.17605 4.35718 0.89887 4.2944 0.615668 4.19629 0.326334 4.06284Z" fill-rule="evenodd" transform="matrix(1 0 0 -1 330 460)"/><path d="M2.5 7.17847C1.99662 7.17847 1.61775 6.91401 1.3635 6.38522 1.11027 5.85751 0.983706 5.06317 0.983706 4.00218 0.983706 2.94568 1.11027 2.15297 1.3635 1.62417 1.61775 1.09527 1.99662 0.830922 2.5 0.830922 3.00748 0.830922 3.38789 1.09527 3.64111 1.62417 3.89537 2.15297 4.02244 2.94568 4.02244 4.00218 4.02244 5.06317 3.89537 5.85751 3.64111 6.38522 3.38789 6.91401 3.00748 7.17847 2.5 7.17847ZM2.5 8.00469C3.31133 8.00469 3.93103 7.66261 4.35888 6.97844 4.78684 6.29535 5.00082 5.30327 5.00082 4.00218 5.00082 2.70437 4.78684 1.71338 4.35888 1.02921 3.93103 0.346127 3.31133 0.0045859 2.5 0.0045859 1.68959 0.0045859 1.07051 0.346127 0.64255 1.02921 0.214696 1.71338 0.00071736 2.70437 0.00071736 4.00218 0.00071736 5.30327 0.214696 6.29535 0.64255 6.97844 1.07051 7.66261 1.68959 8.00469 2.5 8.00469Z" fill-rule="evenodd" transform="matrix(1 0 0 -1 336 460)"/><path d="M346.504 435.506 349.504 435.506" stroke="#000000" stroke-width="0.812913" stroke-linejoin="round" stroke-miterlimit="10" fill="none" fill-rule="evenodd"/><path d="M0.000110166 8.00249 5.00022 8.00249 5.00022 7.54132 2.17677 0.00249221 1.07842 0.00249221 3.73518 7.09034 0.000110166 7.09034Z" fill-rule="evenodd" transform="matrix(1 0 0 -1 330 439)"/><path d="M0.327101 8.00256 4.43108 8.00256 4.43108 7.10785 1.28432 7.10785 1.28432 5.18566C1.43561 5.23833 1.5869 5.27755 1.73819 5.30333 1.89057 5.32911 2.04285 5.34211 2.19523 5.34211 3.05754 5.34211 3.74053 5.1021 4.24399 4.6223 4.74854 4.1424 5.00088 3.4927 5.00088 2.67311 5.00088 1.82885 4.74187 1.17249 4.22407 0.703807 3.70627 0.236232 2.97642 0.00255566 2.03464 0.00255566 1.70994 0.00255566 1.37934 0.0305568 1.0425 0.0865592 0.706857 0.142673 0.359614 0.226787 0.0007663 0.338903L0.0007663 1.40673C0.311008 1.23527 0.631869 1.10738 0.963021 1.02338 1.29428 0.939261 1.64426 0.89726 2.01307 0.89726 2.61046 0.89726 3.08294 1.05638 3.43073 1.37484 3.77972 1.69318 3.95411 2.12598 3.95411 2.67311 3.95411 3.21913 3.77972 3.65137 3.43073 3.96972 3.08294 4.28929 2.61046 4.44907 2.01307 4.44907 1.7337 4.44907 1.45499 4.41763 1.17671 4.35485 0.899527 4.29207 0.616324 4.19395 0.327101 4.06061Z" fill-rule="evenodd" transform="matrix(1 0 0 -1 336 439)"/><path d="M346.504 414.504 349.504 414.504" stroke="#000000" stroke-width="0.812913" stroke-linejoin="round" stroke-miterlimit="10" fill="none" fill-rule="evenodd"/><path d="M0.130389 0.796743 1.61492 0.796743 1.61492 6.13754-0.000666222 5.80003-0.000666222 6.66259 1.60626 7.0002 2.51489 7.0002 2.51489 0.796743 3.99943 0.796743 3.99943 0.000198244 0.130389 0.000198244Z" fill-rule="evenodd" transform="matrix(1 0 0 -1 324 418)"/><path d="M2.49928 6.27724C1.996 6.27724 1.61713 6.04585 1.36288 5.58315 1.10965 5.1214 0.982988 4.42635 0.982988 3.49799 0.982988 2.57355 1.10965 1.87993 1.36288 1.41724 1.61713 0.954537 1.996 0.72314 2.49928 0.72314 3.00687 0.72314 3.38717 0.954537 3.6404 1.41724 3.89475 1.87993 4.02183 2.57355 4.02183 3.49799 4.02183 4.42635 3.89475 5.1214 3.6404 5.58315 3.38717 6.04585 3.00687 6.27724 2.49928 6.27724ZM2.49928 7.00029C3.31072 7.00029 3.93031 6.70096 4.35827 6.10231 4.78623 5.50461 5.0001 4.63654 5.0001 3.49799 5.0001 2.36241 4.78623 1.49529 4.35827 0.89664 3.93031 0.299039 3.31072 0.000191079 2.49928 0.000191079 1.68897 0.000191079 1.06989 0.299039 0.641935 0.89664 0.213978 1.49529 0.00010248 2.36241 0.00010248 3.49799 0.00010248 4.63654 0.213978 5.50461 0.641935 6.10231 1.06989 6.70096 1.68897 7.00029 2.49928 7.00029Z" fill-rule="evenodd" transform="matrix(1 0 0 -1 330 418)"/><path d="M2.5 6.27724C1.99662 6.27724 1.61775 6.04585 1.3635 5.58315 1.11027 5.1214 0.983706 4.42635 0.983706 3.49799 0.983706 2.57355 1.11027 1.87993 1.3635 1.41724 1.61775 0.954537 1.99662 0.72314 2.5 0.72314 3.00748 0.72314 3.38789 0.954537 3.64111 1.41724 3.89537 1.87993 4.02244 2.57355 4.02244 3.49799 4.02244 4.42635 3.89537 5.1214 3.64111 5.58315 3.38789 6.04585 3.00748 6.27724 2.5 6.27724ZM2.5 7.00029C3.31133 7.00029 3.93103 6.70096 4.35888 6.10231 4.78684 5.50461 5.00082 4.63654 5.00082 3.49799 5.00082 2.36241 4.78684 1.49529 4.35888 0.89664 3.93103 0.299039 3.31133 0.000191079 2.5 0.000191079 1.68959 0.000191079 1.07051 0.299039 0.64255 0.89664 0.214696 1.49529 0.00071736 2.36241 0.00071736 3.49799 0.00071736 4.63654 0.214696 5.50461 0.64255 6.10231 1.07051 6.70096 1.68959 7.00029 2.5 7.00029Z" fill-rule="evenodd" transform="matrix(1 0 0 -1 336 418)"/><path d="M-0.000748285 11.0051 2.99925 11.0051 2.99925 10.1436 1.30114 10.1436 1.30114 0.866628 2.99925 0.866628 2.99925 0.00498794-0.000748285 0.00498794Z" fill-rule="evenodd" transform="matrix(-4.37114e-08 -1 -1 4.37114e-08 318 457)"/><path d="M8.79608 3.98941C8.42498 3.98941 8.13369 3.84631 7.92222 3.56 7.7121 3.27369 7.60703 2.87457 7.60703 2.36275 7.60703 1.85953 7.7121 1.46349 7.92222 1.17472 8.13369 0.885956 8.42498 0.741521 8.79608 0.741521 9.15895 0.741521 9.4455 0.885956 9.65562 1.17472 9.86709 1.46349 9.97283 1.85953 9.97283 2.36275 9.97283 2.87089 9.86709 3.26877 9.65562 3.55631 9.4455 3.84508 9.15895 3.98941 8.79608 3.98941ZM8.79608 4.72755C9.47007 4.72755 10.0048 4.51433 10.4005 4.08799 10.7975 3.66287 10.9961 3.08779 10.9961 2.36275 10.9961 1.63894 10.7969 1.06438 10.3985 0.63926 10.0001 0.215373 9.4659 0.00348036 8.79608 0.00348036 8.11385 0.00348036 7.57423 0.215373 7.17721 0.63926 6.78154 1.06438 6.58381 1.63894 6.58381 2.36275 6.58381 3.09148 6.783 3.66778 7.18138 4.09167 7.57975 4.51556 8.11802 4.72755 8.79608 4.72755ZM2.19603 8.26544C1.82899 8.26544 1.53974 8.12111 1.32826 7.83234 1.11814 7.5447 1.01308 7.14876 1.01308 6.64431 1.01308 6.13362 1.11746 5.73461 1.32623 5.44707 1.535 5.16076 1.82494 5.01755 2.19603 5.01755 2.56713 5.01755 2.85774 5.16076 3.06786 5.44707 3.27934 5.73461 3.38507 6.13362 3.38507 6.64431 3.38507 7.14374 3.27866 7.53856 3.06583 7.82855 2.85289 8.11988 2.56307 8.26544 2.19603 8.26544ZM7.97137 9.00358 8.99459 9.00358 3.02074 0.00348036 1.99752 0.00348036ZM2.19603 9.00358C2.87003 9.00358 3.40683 8.79159 3.80667 8.3677 4.20776 7.94381 4.4083 7.36935 4.4083 6.64431 4.4083 5.91303 4.20911 5.3361 3.81073 4.91345 3.41235 4.49079 2.87408 4.27951 2.19603 4.27951 1.51787 4.27951 0.981738 4.4914 0.58742 4.91529 0.193101 5.3404-0.00405817 5.91671-0.00405817 6.64431-0.00405817 7.36566 0.193777 7.9389 0.589449 8.36402 0.986473 8.79036 1.52204 9.00358 2.19603 9.00358Z" fill-rule="evenodd" transform="matrix(-4.37114e-08 -1 -1 4.37114e-08 316 453)"/><path d="M1.99942 11.0034 1.99942 0.00328992-0.000665142 0.00328992-0.000665142 0.864824 1.12692 0.864824 1.12692 10.1418-0.000665142 10.1418-0.000665142 11.0034Z" fill-rule="evenodd" transform="matrix(-4.37114e-08 -1 -1 4.37114e-08 318 440)"/><path d="M346.5 497.5 346.5 398.5" stroke="#BCBCBC" stroke-width="0.812913" stroke-linecap="square" stroke-miterlimit="8" fill="none" fill-rule="evenodd"/><path d="M913.5 497.5 913.5 398.5" stroke="#BCBCBC" stroke-width="0.812913" stroke-linecap="square" stroke-miterlimit="8" fill="none" fill-rule="evenodd"/><path d="M346.5 497.5 913.5 497.5" stroke="#BCBCBC" stroke-width="0.812913" stroke-linecap="square" stroke-miterlimit="8" fill="none" fill-rule="evenodd"/><path d="M346.5 398.5 913.5 398.5" stroke="#BCBCBC" stroke-width="0.812913" stroke-linecap="square" stroke-miterlimit="8" fill="none" fill-rule="evenodd"/><path d="M0.00324812 8.00205 8.00336 8.00205 4.00005 0.00194133Z" fill-rule="evenodd" transform="matrix(1 0 0 -1 365 425)"/><path d="M0.0116932 8.00216 8.01169 8.00216 4.00839 0.00204918Z" fill-rule="evenodd" transform="matrix(1 0 0 -1 444 425)"/><path d="M0.02003 8.00216 8.02014 8.00216 4.01684 0.00204918Z" fill-rule="evenodd" transform="matrix(1 0 0 -1 523 425)"/><path d="M0.0249158 8.00205 7.02492 8.00205 3.52203 0.00194133Z" fill-rule="evenodd" transform="matrix(1 0 0 -1 602 425)"/><path d="M0.040818 8.00173 8.04093 8.00173 4.03762 0.00161777Z" fill-rule="evenodd" transform="matrix(1 0 0 -1 718 421)"/><path d="M0.0492631 8.00194 8.04937 8.00194 4.04607 0.00183348Z" fill-rule="evenodd" transform="matrix(1 0 0 -1 797 423)"/><path d="M0.0585743 8.00108 8.05868 8.00108 4.05538 0.000970664Z" fill-rule="evenodd" transform="matrix(1 0 0 -1 885 416)"/><path d="M0.518686 0.271619 0.518686 1.1031C0.765092 0.994186 1.01417 0.911257 1.26581 0.854411 1.51848 0.797469 1.76643 0.769094 2.00986 0.769094 2.65698 0.769094 3.15092 0.971543 3.49168 1.37634 3.83337 1.78124 4.02854 2.3968 4.07721 3.22293 3.88984 2.96364 3.65164 2.76454 3.36273 2.62572 3.07485 2.4869 2.75647 2.41754 2.40749 2.41754 1.68255 2.41754 1.10893 2.62142 0.686448 3.02918 0.263963 3.4379 0.0526694 3.99652 0.0526694 4.70504 0.0526694 5.39723 0.27269 5.9525 0.712834 6.37087 1.15287 6.79019 1.7385 6.9999 2.46961 6.9999 3.30832 6.9999 3.94836 6.70058 4.38942 6.10193 4.83162 5.50423 5.05267 4.63616 5.05267 3.49771 5.05267 2.43435 4.78142 1.58558 4.23881 0.951288 3.69723 0.316905 2.96869-0.000191079 2.05329-0.000191079 1.80688-0.000191079 1.55729 0.0224518 1.30462 0.0677376 1.05298 0.113023 0.790965 0.181048 0.518686 0.271619ZM2.46961 3.13179C2.90965 3.13179 3.25811 3.27156 3.51499 3.55111 3.77279 3.83171 3.90175 4.21636 3.90175 4.70504 3.90175 5.19 3.77279 5.57311 3.51499 5.85467 3.25811 6.13613 2.90965 6.27686 2.46961 6.27686 2.02947 6.27686 1.68101 6.13613 1.42423 5.85467 1.16745 5.57311 1.03901 5.19 1.03901 4.70504 1.03901 4.21636 1.16745 3.83171 1.42423 3.55111 1.68101 3.27156 2.02947 3.13179 2.46961 3.13179Z" fill-rule="evenodd" transform="matrix(1 0 0 -1 850 414)"/><path d="M0.0571762 6.9998 5.05729 6.9998 5.05729 6.59628 2.23395-0.000198244 1.13559-0.000198244 3.79225 6.20167 0.0571762 6.20167Z" fill-rule="evenodd" transform="matrix(1 0 0 -1 857 414)"/><path d="M0.0540811 1.00258 1.05408 1.00258 1.05408 0.00257968 0.0540811 0.00257968Z" fill-rule="evenodd" transform="matrix(1 0 0 -1 864 414)"/><path d="M0.181308 0.796347 1.66584 0.796347 1.66584 6.13714 0.0502522 5.79963 0.0502522 6.66229 1.65718 6.9998 2.56572 6.9998 2.56572 0.796347 4.05025 0.796347 4.05025-0.000198244 0.181308-0.000198244Z" fill-rule="evenodd" transform="matrix(1 0 0 -1 867 414)"/><path d="M6.45122 3.09998C6.18136 3.09998 5.96955 2.98867 5.81569 2.76597 5.6629 2.54327 5.58646 2.23286 5.58646 1.83474 5.58646 1.44341 5.6629 1.13539 5.81569 0.91078 5.96955 0.686166 6.18136 0.573811 6.45122 0.573811 6.71517 0.573811 6.92353 0.686166 7.07642 0.91078 7.23018 1.13539 7.30712 1.44341 7.30712 1.83474 7.30712 2.22999 7.23018 2.53944 7.07642 2.7631 6.92353 2.98772 6.71517 3.09998 6.45122 3.09998ZM6.45122 3.67407C6.94144 3.67407 7.33043 3.50831 7.61809 3.17669 7.90693 2.84603 8.05126 2.39871 8.05126 1.83474 8.05126 1.27182 7.90644 0.824985 7.61662 0.494322 7.32689 0.164615 6.93849-0.000191079 6.45122-0.000191079 5.95509-0.000191079 5.56266 0.164615 5.27391 0.494322 4.98615 0.824985 4.84232 1.27182 4.84232 1.83474 4.84232 2.40158 4.98724 2.84985 5.27696 3.17956 5.56669 3.50927 5.95814 3.67407 6.45122 3.67407ZM1.65129 6.42581C1.38429 6.42581 1.17396 6.31355 1.02019 6.08893 0.867409 5.86528 0.790969 5.55726 0.790969 5.16487 0.790969 4.76772 0.866918 4.45731 1.01872 4.23365 1.17052 4.01095 1.38134 3.89964 1.65129 3.89964 1.92115 3.89964 2.13247 4.01095 2.28535 4.23365 2.43912 4.45731 2.51595 4.76772 2.51595 5.16487 2.51595 5.55343 2.43862 5.8604 2.28377 6.08597 2.12902 6.3125 1.9182 6.42581 1.65129 6.42581ZM5.8514 6.9999 6.59564 6.9999 2.25111-0.000191079 1.50687-0.000191079ZM1.65129 6.9999C2.14142 6.9999 2.53189 6.835 2.8226 6.5053 3.11429 6.17568 3.26019 5.72884 3.26019 5.16487 3.26019 4.59613 3.11528 4.14738 2.82555 3.81872 2.53582 3.48997 2.14437 3.32554 1.65129 3.32554 1.15812 3.32554 0.768145 3.49045 0.481369 3.82015 0.194594 4.15082 0.0512556 4.59899 0.0512556 5.16487 0.0512556 5.72598 0.195086 6.17177 0.482845 6.50243 0.771588 6.83405 1.16107 6.9999 1.65129 6.9999Z" fill-rule="evenodd" transform="matrix(1 0 0 -1 873 414)"/><path d="M0.0155101 8.9971 4.0156 8.9971 4.0156 7.97096 0.956966 7.97096 0.956966 5.31888 3.71723 5.31888 3.71723 4.29459 0.956966 4.29459 0.956966-0.00289642 0.0155101-0.00289642Z" fill-rule="evenodd" transform="matrix(1 0 0 -1 505 392)"/><path d="M3.01636 5.78531C2.92165 5.85828 2.81876 5.91166 2.70752 5.94545 2.59628 5.98064 2.47387 5.99824 2.3402 5.99824 1.86411 5.99824 1.49872 5.79188 1.24406 5.37905 0.989477 4.96633 0.862143 4.37318 0.862143 3.59972L0.862143-0.00187705 0.0162685-0.00187705 0.0162685 6.83412 0.862143 6.83412 0.862143 5.7717C1.03969 6.187 1.26991 6.49496 1.55289 6.69545 1.83676 6.89735 2.18165 6.99824 2.58748 6.99824 2.64508 6.99824 2.70901 6.99308 2.77919 6.98264 2.84945 6.97349 2.92701 6.95847 3.01196 6.93771Z" fill-rule="evenodd" transform="matrix(1 0 0 -1 511 392)"/><path d="M3.07942 3.52214C2.29369 3.52214 1.74927 3.42123 1.44598 3.21929 1.14278 3.01736 0.99118 2.67195 0.99118 2.18307 0.99118 1.79453 1.10498 1.48597 1.33268 1.25738 1.56049 1.03004 1.86927 0.916431 2.25934 0.916431 2.79928 0.916431 3.23223 1.13164 3.55799 1.56217 3.88374 1.99258 4.04672 2.56463 4.04672 3.27833L4.04672 3.52214ZM5.019 3.97543 5.019 0.171616 4.04672 0.171616 4.04672 1.18312C3.8246 0.779252 3.54783 0.480869 3.21638 0.287858 2.88504 0.0948466 2.47973-0.00171616 2.00065-0.00171616 1.39527-0.00171616 0.913349 0.190036 0.554878 0.573542 0.197525 0.957047 0.018899 1.47007 0.018899 2.1126 0.018899 2.86187 0.241521 3.42695 0.686765 3.80782 1.13323 4.18881 1.79825 4.3793 2.68213 4.3793L4.04672 4.3793 4.04672 4.48788C4.04672 4.99197 3.89959 5.38189 3.60534 5.65739 3.31108 5.933 2.89795 6.07076 2.36593 6.07076 2.02768 6.07076 1.69796 6.02499 1.37668 5.93358 1.05651 5.84216 0.748745 5.70498 0.453474 5.52215L0.453474 6.53549C0.80849 6.6904 1.15345 6.80596 1.48824 6.88216 1.82314 6.95961 2.1489 6.9984 2.46561 6.9984 3.32236 6.9984 3.96208 6.74818 4.38487 6.24786 4.80756 5.7488 5.019 4.9914 5.019 3.97543Z" fill-rule="evenodd" transform="matrix(1 0 0 -1 515 392)"/><path d="M5.02105 6.58309 5.02105 5.55831C4.72733 5.72981 4.43306 5.85807 4.13815 5.94319 3.84312 6.02819 3.54517 6.07076 3.24429 6.07076 2.57015 6.07076 2.0465 5.84537 1.67325 5.39459 1.3013 4.94507 1.11532 4.31329 1.11532 3.49926 1.11532 2.68534 1.3013 2.05299 1.67325 1.6021 2.0465 1.15258 2.57015 0.927872 3.24429 0.927872 3.54517 0.927872 3.84312 0.970433 4.13815 1.05544 4.43306 1.14056 4.72733 1.26882 5.02105 1.4402L5.02105 0.426867C4.73102 0.284654 4.43068 0.178023 4.12003 0.10686 3.81068 0.0345521 3.48083-0.00171616 3.13047-0.00171616 2.17834-0.00171616 1.42174 0.313829 0.860767 0.945034 0.300992 1.57612 0.0210499 2.42757 0.0210499 3.49926 0.0210499 4.58627 0.303921 5.44092 0.869773 6.06309 1.43671 6.68663 2.21317 6.9984 3.19915 6.9984 3.51815 6.9984 3.82989 6.9635 4.13446 6.8936 4.43903 6.82507 4.7346 6.72152 5.02105 6.58309Z" fill-rule="evenodd" transform="matrix(1 0 0 -1 522 392)"/><path d="M1.85434 7.99754 1.85434 6.22813 4.02289 6.22813 4.02289 5.43238 1.85434 5.43238 1.85434 2.04999C1.85434 1.54209 1.92577 1.21575 2.06862 1.07097 2.21147 0.926194 2.50268 0.853805 2.94225 0.853805L4.02289 0.853805 4.02289-0.0024593 2.94225-0.0024593C2.12904-0.0024593 1.56797 0.144671 1.25905 0.438932 0.950117 0.734476 0.795708 1.27146 0.795708 2.04999L0.795708 5.43238 0.0227817 5.43238 0.0227817 6.22813 0.795708 6.22813 0.795708 7.99754Z" fill-rule="evenodd" transform="matrix(1 0 0 -1 528 392)"/><path d="M0.0225729 6.47448 1.02257 6.47448 1.02257-0.00300141 0.0225729-0.00300141ZM0.0225729 8.997 1.02257 8.997 1.02257 7.64792 0.0225729 7.64792Z" fill-rule="evenodd" transform="matrix(1 0 0 -1 533 392)"/><path d="M2.51833 6.07076C2.03909 6.07076 1.6599 5.84159 1.38077 5.38315 1.10174 4.9247 0.962128 4.29681 0.962128 3.49926 0.962128 2.70181 1.10071 2.07393 1.37769 1.61548 1.65569 1.15704 2.03591 0.927872 2.51833 0.927872 2.9956 0.927872 3.3732 1.15772 3.6513 1.61743 3.93033 2.07827 4.06985 2.70559 4.06985 3.49926 4.06985 4.28915 3.93033 4.91521 3.6513 5.37742 3.3732 5.83964 2.9956 6.07076 2.51833 6.07076ZM2.51833 6.9984C3.29643 6.9984 3.90752 6.68857 4.35151 6.06881 4.79661 5.45042 5.01917 4.59394 5.01917 3.49926 5.01917 2.40846 4.79661 1.55198 4.35151 0.929703 3.90752 0.308795 3.29643-0.00171616 2.51833-0.00171616 1.73714-0.00171616 1.12502 0.308795 0.682065 0.929703 0.240135 1.55198 0.0190761 2.40846 0.0190761 3.49926 0.0190761 4.59394 0.240135 5.45042 0.682065 6.06881 1.12502 6.68857 1.73714 6.9984 2.51833 6.9984Z" fill-rule="evenodd" transform="matrix(1 0 0 -1 536 392)"/><path d="M5.02162 4.12518 5.02162-0.00187705 4.04105-0.00187705 4.04105 4.0881C4.04105 4.73522 3.93079 5.21891 3.71016 5.53918 3.48964 5.86086 3.15937 6.0217 2.71935 6.0217 2.18956 6.0217 1.77177 5.82825 1.46599 5.44158 1.1601 5.05619 1.00721 4.52945 1.00721 3.86145L1.00721-0.00187705 0.0215195-0.00187705 0.0215195 6.83412 1.00721 6.83412 1.00721 5.7717C1.2426 6.18313 1.51887 6.49038 1.83602 6.69357 2.1543 6.89664 2.52157 6.99824 2.93772 6.99824 3.62327 6.99824 4.14168 6.7554 4.49296 6.26971 4.84537 5.78402 5.02162 5.06922 5.02162 4.12518Z" fill-rule="evenodd" transform="matrix(1 0 0 -1 543 392)"/><path d="M3.02401 6.07076C2.44881 6.07076 1.99379 5.84159 1.65884 5.38315 1.32399 4.9247 1.15657 4.29681 1.15657 3.49926 1.15657 2.70181 1.32276 2.07393 1.65513 1.61548 1.98874 1.15704 2.445 0.927872 3.02401 0.927872 3.59663 0.927872 4.04975 1.15772 4.38347 1.61743 4.71831 2.07827 4.88573 2.70559 4.88573 3.49926 4.88573 4.28915 4.71831 4.91521 4.38347 5.37742 4.04975 5.83964 3.59663 6.07076 3.02401 6.07076ZM3.02401 6.9984C3.95762 6.9984 4.69093 6.68857 5.22383 6.06881 5.75785 5.45042 6.02491 4.59394 6.02491 3.49926 6.02491 2.40846 5.75785 1.55198 5.22383 0.929703 4.69093 0.308795 3.95762-0.00171616 3.02401-0.00171616 2.08648-0.00171616 1.35194 0.308795 0.820385 0.929703 0.290069 1.55198 0.0249112 2.40846 0.0249112 3.49926 0.0249112 4.59394 0.290069 5.45042 0.820385 6.06881 1.35194 6.68857 2.08648 6.9984 3.02401 6.9984Z" fill-rule="evenodd" transform="matrix(1 0 0 -1 553 392)"/><path d="M3.01926 8.997 3.01926 8.11058 2.27868 8.11058C2.00132 8.11058 1.80835 8.03343 1.69969 7.87925 1.592 7.72496 1.53811 7.44738 1.53811 7.04642L1.53811 6.47448 2.81326 6.47448 2.81326 5.6472 1.53811 5.6472 1.53811-0.00300141 0.759831-0.00300141 0.759831 5.6472 0.0192567 5.6472 0.0192567 6.47448 0.759831 6.47448 0.759831 6.92614C0.759831 7.64659 0.881925 8.17161 1.12611 8.5011 1.37022 8.8317 1.75713 8.997 2.28677 8.997Z" fill-rule="evenodd" transform="matrix(1 0 0 -1 560 392)"/><path d="M0.0232884 8.9971 4.93023 8.9971 4.93023 7.97096 1.07286 7.97096 1.07286 5.30729 4.76892 5.30729 4.76892 4.283 1.07286 4.283 1.07286 1.02128 5.02339 1.02128 5.02339-0.00289642 0.0232884-0.00289642Z" fill-rule="evenodd" transform="matrix(1 0 0 -1 568 392)"/><path d="M5.0248 4.12518 5.0248-0.00187705 4.04423-0.00187705 4.04423 4.0881C4.04423 4.73522 3.93397 5.21891 3.71344 5.53918 3.49292 5.86086 3.16254 6.0217 2.72262 6.0217 2.19284 6.0217 1.77505 5.82825 1.46917 5.44158 1.16338 5.05619 1.01049 4.52945 1.01049 3.86145L1.01049-0.00187705 0.0247986-0.00187705 0.0247986 6.83412 1.01049 6.83412 1.01049 5.7717C1.24577 6.18313 1.52204 6.49038 1.8392 6.69357 2.15758 6.89664 2.52475 6.99824 2.94089 6.99824 3.62644 6.99824 4.14486 6.7554 4.49614 6.26971 4.84865 5.78402 5.0248 5.06922 5.0248 4.12518Z" fill-rule="evenodd" transform="matrix(1 0 0 -1 575 392)"/><path d="M5.02315 3.77933 5.02315 3.24401 0.947931 3.24401C0.986923 2.48981 1.17086 1.91512 1.49965 1.52018 1.82853 1.12535 2.2868 0.927872 2.87454 0.927872 3.21463 0.927872 3.54453 0.979243 3.86406 1.0821 4.18358 1.18495 4.50117 1.33987 4.81662 1.54695L4.81662 0.51073C4.49802 0.344377 4.17182 0.217381 3.83785 0.129742 3.50387 0.0421032 3.16536-0.00171616 2.82212-0.00171616 1.96106-0.00171616 1.27931 0.307536 0.776775 0.925927 0.27433 1.54558 0.0230615 2.38375 0.0230615 3.44022 0.0230615 4.53101 0.261457 5.39642 0.738247 6.03643 1.21504 6.6777 1.85826 6.9984 2.66801 6.9984 3.39347 6.9984 3.96732 6.70951 4.38966 6.13174 4.81199 5.55522 5.02315 4.77105 5.02315 3.77933ZM4.13691 4.10117C4.1307 4.69931 3.99511 5.17675 3.72995 5.5336 3.46488 5.8917 3.11396 6.07076 2.67727 6.07076 2.18297 6.07076 1.78741 5.89799 1.49039 5.55259 1.19346 5.2073 1.02239 4.72094 0.977198 4.09362Z" fill-rule="evenodd" transform="matrix(1 0 0 -1 582 392)"/><path d="M3.02304 5.78531C2.92842 5.85828 2.82553 5.91166 2.71429 5.94545 2.60305 5.98064 2.48064 5.99824 2.34697 5.99824 1.87079 5.99824 1.5055 5.79188 1.25083 5.37905 0.99616 4.96633 0.868826 4.37318 0.868826 3.59972L0.868826-0.00187705 0.0229518-0.00187705 0.0229518 6.83412 0.868826 6.83412 0.868826 5.7717C1.04646 6.187 1.27668 6.49496 1.55958 6.69545 1.84353 6.89735 2.18842 6.99824 2.59425 6.99824 2.65185 6.99824 2.7157 6.99308 2.78596 6.98264 2.85622 6.97349 2.93378 6.95847 3.01864 6.93771Z" fill-rule="evenodd" transform="matrix(1 0 0 -1 589 392)"/><path d="M4.10604 5.71641C4.10604 6.4794 3.96859 7.07026 3.69369 7.48898 3.41975 7.90892 3.03458 8.11889 2.53799 8.11889 2.04562 8.11889 1.66199 7.90892 1.38699 7.48898 1.11209 7.07026 0.974642 6.4794 0.974642 5.71641 0.974642 4.95706 1.11209 4.36741 1.38699 3.94747 1.66199 3.52754 2.04562 3.31757 2.53799 3.31757 3.03458 3.31757 3.41975 3.52754 3.69369 3.94747 3.96859 4.36741 4.10604 4.95706 4.10604 5.71641ZM5.02517 3.23156C5.02517 2.14136 4.81366 1.3302 4.39055 0.797964 3.96859 0.265731 3.3212-0.000439953 2.44847-0.000439953 2.12554-0.000439953 1.82077 0.0270571 1.53405 0.0819412 1.24743 0.136935 0.969263 0.221736 0.699645 0.336454L0.699645 1.36011C0.969263 1.19282 1.23571 1.06952 1.4989 0.990223 1.76217 0.909602 2.03016 0.869346 2.30295 0.869346 2.90616 0.869346 3.35741 1.0494 3.6569 1.4095 3.9563 1.76971 4.10604 2.31415 4.10604 3.04293L4.10604 3.56483C3.91634 3.18636 3.67342 2.9038 3.3772 2.71704 3.08088 2.53017 2.72606 2.43679 2.31255 2.43679 1.62732 2.43679 1.07482 2.73595 0.654884 3.33407 0.23504 3.93351 0.0251657 4.72762 0.0251657 5.71641 0.0251657 6.70763 0.23504 7.5024 0.654884 8.10052 1.07482 8.69995 1.62732 8.99967 2.31255 8.99967 2.72606 8.99967 3.08088 8.90629 3.3772 8.71953 3.67342 8.53266 3.91634 8.25076 4.10604 7.8735L4.10604 8.8458 5.02517 8.8458Z" fill-rule="evenodd" transform="matrix(1 0 0 -1 593 394)"/><path d="M3.31915 1.66557C3.03377 0.975568 2.75484 0.52578 2.48238 0.316005 2.21107 0.105136 1.84821-0.0002984 1.39367-0.0002984L0.58336-0.0002984 0.58336 0.79623 1.17879 0.79623C1.45708 0.79623 1.67323 0.858596 1.82703 0.983327 1.98211 1.10696 2.15296 1.40009 2.33968 1.86261L2.52112 2.29649 0.0284746 7.9997 1.1013 7.9997 3.02847 3.46731 4.95565 7.9997 6.02847 7.9997Z" fill-rule="evenodd" transform="matrix(1 0 0 -1 600 394)"/><path d="M3.52789 7.7974 2.12461 3.31861 4.93443 3.31861ZM2.94334 8.9971 4.11579 8.9971 7.02716-0.00289642 5.953-0.00289642 5.25706 2.3059 1.81349 2.3059 1.11755-0.00289642 0.0270582-0.00289642Z" fill-rule="evenodd" transform="matrix(1 0 0 -1 610 392)"/><path d="M4.68124 6.64212 4.68124 5.60602C4.37843 5.76471 4.06315 5.88346 3.7354 5.96218 3.40889 6.04215 3.06991 6.0822 2.71857 6.0822 2.18517 6.0822 1.7852 5.99902 1.51856 5.83267 1.2518 5.66631 1.11847 5.4161 1.11847 5.08213 1.11847 4.82814 1.21383 4.62883 1.40444 4.48411 1.59516 4.33926 1.97895 4.20151 2.55593 4.07074L2.92412 3.98688C3.68676 3.82052 4.22882 3.58564 4.55039 3.2821 4.87184 2.97869 5.03257 2.55514 5.03257 2.01169 5.03257 1.39192 4.7921 0.901214 4.31115 0.539218 3.83008 0.178595 3.16897-0.00171616 2.32793-0.00171616 1.97772-0.00171616 1.61257 0.0331791 1.23248 0.103084 0.852502 0.172875 0.452422 0.277103 0.0324602 0.415426L0.0324602 1.54695C0.429958 1.33609 0.821278 1.17797 1.20631 1.0726 1.59145 0.968488 1.97334 0.916431 2.35219 0.916431 2.85807 0.916431 3.24692 1.00464 3.51851 1.18118 3.79145 1.35771 3.92791 1.60656 3.92791 1.92782 3.92791 2.22506 3.82952 2.45297 3.63251 2.61166 3.43697 2.77034 3.00577 2.92343 2.33905 3.07067L1.96525 3.16026C1.29976 3.30247 0.818807 3.52157 0.522172 3.81743 0.226885 4.1133 0.079185 4.519 0.079185 5.03454 0.079185 5.66185 0.297309 6.14569 0.733444 6.48595 1.16958 6.82758 1.78891 6.9984 2.59143 6.9984 2.98769 6.9984 3.36093 6.96854 3.71114 6.90881 4.06247 6.85046 4.38584 6.76157 4.68124 6.64212Z" fill-rule="evenodd" transform="matrix(1 0 0 -1 618 392)"/><path d="M3.74544 6.64212 3.74544 5.60602C3.50319 5.76471 3.25097 5.88346 2.98886 5.96218 2.72765 6.04215 2.45647 6.0822 2.17531 6.0822 1.74867 6.0822 1.4287 5.99902 1.21529 5.83267 1.00198 5.66631 0.895319 5.4161 0.895319 5.08213 0.895319 4.82814 0.971606 4.62883 1.12409 4.48411 1.27666 4.33926 1.5837 4.20151 2.04529 4.07074L2.33983 3.98688C2.94995 3.82052 3.38359 3.58564 3.64076 3.2821 3.89801 2.97869 4.0266 2.55514 4.0266 2.01169 4.0266 1.39192 3.83422 0.901214 3.44937 0.539218 3.06461 0.178595 2.53572-0.00171616 1.86279-0.00171616 1.58271-0.00171616 1.29059 0.0331791 0.986522 0.103084 0.682451 0.172875 0.362476 0.277103 0.0265073 0.415426L0.0265073 1.54695C0.344505 1.33609 0.657561 1.17797 0.965585 1.0726 1.27361 0.968488 1.57921 0.916431 1.88229 0.916431 2.287 0.916431 2.59808 1.00464 2.81535 1.18118 3.0337 1.35771 3.14287 1.60656 3.14287 1.92782 3.14287 2.22506 3.06407 2.45297 2.90655 2.61166 2.75002 2.77034 2.40516 2.92343 1.87178 3.07067L1.57274 3.16026C1.04034 3.30247 0.655584 3.52157 0.418277 3.81743 0.182047 4.1133 0.0638871 4.519 0.0638871 5.03454 0.0638871 5.66185 0.238386 6.14569 0.587294 6.48595 0.936203 6.82758 1.43166 6.9984 2.07368 6.9984 2.39069 6.9984 2.68928 6.96854 2.96936 6.90881 3.25052 6.85046 3.50921 6.76157 3.74544 6.64212Z" fill-rule="evenodd" transform="matrix(1 0 0 -1 624 392)"/><path d="M0.0326053 6.47448 1.03261 6.47448 1.03261-0.00300141 0.0326053-0.00300141ZM0.0326053 8.997 1.03261 8.997 1.03261 7.64792 0.0326053 7.64792Z" fill-rule="evenodd" transform="matrix(1 0 0 -1 630 392)"/><path d="M4.10979 5.71641C4.10979 6.4794 3.97234 7.07026 3.69744 7.48898 3.42349 7.90892 3.03832 8.11889 2.54173 8.11889 2.04937 8.11889 1.66574 7.90892 1.39074 7.48898 1.11584 7.07026 0.978388 6.4794 0.978388 5.71641 0.978388 4.95706 1.11584 4.36741 1.39074 3.94747 1.66574 3.52754 2.04937 3.31757 2.54173 3.31757 3.03832 3.31757 3.42349 3.52754 3.69744 3.94747 3.97234 4.36741 4.10979 4.95706 4.10979 5.71641ZM5.02891 3.23156C5.02891 2.14136 4.8174 1.3302 4.39429 0.797964 3.97234 0.265731 3.32494-0.000439953 2.45221-0.000439953 2.12929-0.000439953 1.82451 0.0270571 1.5378 0.0819412 1.25118 0.136935 0.973009 0.221736 0.703391 0.336454L0.703391 1.36011C0.973009 1.19282 1.23946 1.06952 1.50264 0.990223 1.76592 0.909602 2.03391 0.869346 2.30669 0.869346 2.9099 0.869346 3.36116 1.0494 3.66065 1.4095 3.96004 1.76971 4.10979 2.31415 4.10979 3.04293L4.10979 3.56483C3.92008 3.18636 3.67717 2.9038 3.38094 2.71704 3.08462 2.53017 2.7298 2.43679 2.3163 2.43679 1.63106 2.43679 1.07857 2.73595 0.658726 3.33407 0.238786 3.93351 0.0289117 4.72762 0.0289117 5.71641 0.0289117 6.70763 0.238786 7.5024 0.658726 8.10052 1.07857 8.69995 1.63106 8.99967 2.3163 8.99967 2.7298 8.99967 3.08462 8.90629 3.38094 8.71953 3.67717 8.53266 3.92008 8.25076 4.10979 7.8735L4.10979 8.8458 5.02891 8.8458Z" fill-rule="evenodd" transform="matrix(1 0 0 -1 633 394)"/><path d="M5.03146 4.12518 5.03146-0.00187705 4.05089-0.00187705 4.05089 4.0881C4.05089 4.73522 3.94052 5.21891 3.72 5.53918 3.49948 5.86086 3.1692 6.0217 2.72918 6.0217 2.19939 6.0217 1.78161 5.82825 1.47572 5.44158 1.16994 5.05619 1.01705 4.52945 1.01705 3.86145L1.01705-0.00187705 0.031357-0.00187705 0.031357 6.83412 1.01705 6.83412 1.01705 5.7717C1.25233 6.18313 1.5286 6.49038 1.84586 6.69357 2.16414 6.89664 2.53141 6.99824 2.94745 6.99824 3.633 6.99824 4.15142 6.7554 4.5028 6.26971 4.8552 5.78402 5.03146 5.06922 5.03146 4.12518Z" fill-rule="evenodd" transform="matrix(1 0 0 -1 640 392)"/><path d="M6.0349 3.77933 6.0349 3.24401 1.14463 3.24401C1.19153 2.48981 1.41214 1.91512 1.8068 1.52018 2.20135 1.12535 2.75127 0.927872 3.45656 0.927872 3.86467 0.927872 4.26055 0.979243 4.64398 1.0821 5.02753 1.18495 5.40851 1.33987 5.78706 1.54695L5.78706 0.51073C5.40485 0.344377 5.0133 0.217381 4.61253 0.129742 4.21187 0.0421032 3.80554-0.00171616 3.39366-0.00171616 2.36039-0.00171616 1.54229 0.307536 0.939355 0.925927 0.336309 1.54558 0.0348979 2.38375 0.0348979 3.44022 0.0348979 4.53101 0.320972 5.39642 0.89312 6.03643 1.46516 6.6777 2.23714 6.9984 3.20872 6.9984 4.07928 6.9984 4.7679 6.70951 5.2747 6.13174 5.7815 5.55522 6.0349 4.77105 6.0349 3.77933ZM4.9714 4.10117C4.96395 4.69931 4.80124 5.17675 4.48305 5.5336 4.16497 5.8917 3.74386 6.07076 3.21983 6.07076 2.62679 6.07076 2.152 5.89799 1.79569 5.55259 1.43926 5.2073 1.23399 4.72094 1.17975 4.09362Z" fill-rule="evenodd" transform="matrix(1 0 0 -1 647 392)"/><path d="M4.1118 5.55635 4.1118 8.99716 5.03093 8.99716 5.03093 0.162482 4.1118 0.162482 4.1118 1.11631C3.91893 0.738424 3.67486 0.457437 3.37969 0.273349 3.08558 0.0892612 2.73182-0.00283715 2.31832-0.00283715 1.64269-0.00283715 1.09221 0.303576 0.667083 0.916401 0.242916 1.53054 0.0308328 2.33716 0.0308328 3.33628 0.0308328 4.3355 0.242916 5.14147 0.667083 5.7544 1.09221 6.36723 1.64269 6.67364 2.31832 6.67364 2.73182 6.67364 3.08558 6.58154 3.37969 6.39746 3.67486 6.21457 3.91893 5.93424 4.1118 5.55635ZM0.980405 3.33628C0.980405 2.56839 1.11939 1.96593 1.39756 1.52868 1.67573 1.09143 2.05773 0.872862 2.54366 0.872862 3.02958 0.872862 3.41216 1.09143 3.69138 1.52868 3.97166 1.96593 4.1118 2.56839 4.1118 3.33628 4.1118 4.10416 3.97166 4.70673 3.69138 5.14398 3.41216 5.58112 3.02958 5.7998 2.54366 5.7998 2.05773 5.7998 1.67573 5.58112 1.39756 5.14398 1.11939 4.70673 0.980405 4.10416 0.980405 3.33628Z" fill-rule="evenodd" transform="matrix(1 0 0 -1 654 392)"/><path d="M7.03666 8.17186 7.03666 6.93557C6.64096 7.30363 6.21933 7.57822 5.77165 7.75913 5.32397 7.94137 4.84835 8.03238 4.34489 8.03238 3.35273 8.03238 2.59318 7.72942 2.06614 7.12328 1.53899 6.51725 1.27552 5.64098 1.27552 4.49447 1.27552 3.35176 1.53899 2.47728 2.06614 1.87125 2.59318 1.2651 3.35273 0.962144 4.34489 0.962144 4.84835 0.962144 5.32397 1.05327 5.77165 1.2354 6.21933 1.41764 6.64096 1.6928 7.03666 2.06086L7.03666 0.833836C6.6261 0.554997 6.19082 0.345505 5.73074 0.205472 5.27188 0.0666667 4.78698-0.00279174 4.27603-0.00279174 2.9615-0.00279174 1.92597 0.398772 1.16944 1.2019 0.414257 2.00637 0.0365521 3.10385 0.0365521 4.49447 0.0365521 5.88889 0.414257 6.9876 1.16944 7.79073 1.92597 8.59509 2.9615 8.99732 4.27603 8.99732 4.79447 8.99732 5.28306 8.92853 5.74192 8.79095 6.202 8.65338 6.63358 8.44701 7.03666 8.17186Z" fill-rule="evenodd" transform="matrix(1 0 0 -1 664 392)"/><path d="M3.03714 6.07076C2.46194 6.07076 2.00692 5.84159 1.67208 5.38315 1.33712 4.9247 1.1697 4.29681 1.1697 3.49926 1.1697 2.70181 1.33589 2.07393 1.66826 1.61548 2.00198 1.15704 2.45824 0.927872 3.03714 0.927872 3.60976 0.927872 4.06299 1.15772 4.3966 1.61743 4.73144 2.07827 4.89897 2.70559 4.89897 3.49926 4.89897 4.28915 4.73144 4.91521 4.3966 5.37742 4.06299 5.83964 3.60976 6.07076 3.03714 6.07076ZM3.03714 6.9984C3.97086 6.9984 4.70406 6.68857 5.23696 6.06881 5.77097 5.45042 6.03804 4.59394 6.03804 3.49926 6.03804 2.40846 5.77097 1.55198 5.23696 0.929703 4.70406 0.308795 3.97086-0.00171616 3.03714-0.00171616 2.09961-0.00171616 1.36518 0.308795 0.833514 0.929703 0.303198 1.55198 0.03804 2.40846 0.03804 3.49926 0.03804 4.59394 0.303198 5.45042 0.833514 6.06881 1.36518 6.68857 2.09961 6.9984 3.03714 6.9984Z" fill-rule="evenodd" transform="matrix(1 0 0 -1 672 392)"/><path d="M4.04115 5.78531C3.91499 5.85828 3.77781 5.91166 3.62949 5.94545 3.48117 5.98064 3.31795 5.99824 3.13973 5.99824 2.50494 5.99824 2.01776 5.79188 1.67821 5.37905 1.33865 4.96633 1.16899 4.37318 1.16899 3.59972L1.16899-0.00187705 0.0411549-0.00187705 0.0411549 6.83412 1.16899 6.83412 1.16899 5.7717C1.40572 6.187 1.71268 6.49496 2.08999 6.69545 2.46847 6.89735 2.92833 6.99824 3.46944 6.99824 3.54624 6.99824 3.63148 6.99308 3.72505 6.98264 3.81873 6.97349 3.92215 6.95847 4.03529 6.93771Z" fill-rule="evenodd" transform="matrix(1 0 0 -1 679 392)"/><path d="M4.04174 5.78531C3.91558 5.85828 3.77828 5.91166 3.62996 5.94545 3.48175 5.98064 3.31842 5.99824 3.1402 5.99824 2.50541 5.99824 2.01823 5.79188 1.67879 5.37905 1.33923 4.96633 1.16946 4.37318 1.16946 3.59972L1.16946-0.00187705 0.0416239-0.00187705 0.0416239 6.83412 1.16946 6.83412 1.16946 5.7717C1.40618 6.187 1.71326 6.49496 2.09046 6.69545 2.46894 6.89735 2.9288 6.99824 3.47003 6.99824 3.54671 6.99824 3.63195 6.99308 3.72563 6.98264 3.81932 6.97349 3.92273 6.95847 4.03588 6.93771Z" fill-rule="evenodd" transform="matrix(1 0 0 -1 684 392)"/><path d="M6.03945 3.77933 6.03945 3.24401 1.14919 3.24401C1.19598 2.48981 1.4167 1.91512 1.81125 1.52018 2.20591 1.12535 2.75583 0.927872 3.46112 0.927872 3.86923 0.927872 4.26499 0.979243 4.64854 1.0821 5.03197 1.18495 5.41307 1.33987 5.79161 1.54695L5.79161 0.51073C5.40929 0.344377 5.01786 0.217381 4.61709 0.129742 4.21632 0.0421032 3.8101-0.00171616 3.39821-0.00171616 2.36495-0.00171616 1.54685 0.307536 0.9438 0.925927 0.340866 1.54558 0.0393435 2.38375 0.0393435 3.44022 0.0393435 4.53101 0.325418 5.39642 0.897566 6.03643 1.46971 6.6777 2.24158 6.9984 3.21328 6.9984 4.08384 6.9984 4.77246 6.70951 5.27926 6.13174 5.78606 5.55522 6.03945 4.77105 6.03945 3.77933ZM4.97596 4.10117C4.96851 4.69931 4.8058 5.17675 4.48761 5.5336 4.16953 5.8917 3.74842 6.07076 3.22439 6.07076 2.63124 6.07076 2.15656 5.89799 1.80013 5.55259 1.44382 5.2073 1.23854 4.72094 1.18431 4.09362Z" fill-rule="evenodd" transform="matrix(1 0 0 -1 688 392)"/><path d="M5.0396 6.58309 5.0396 5.55831C4.74588 5.72981 4.45151 5.85807 4.15659 5.94319 3.86168 6.02819 3.56372 6.07076 3.26273 6.07076 2.58859 6.07076 2.06495 5.84537 1.6918 5.39459 1.31985 4.94507 1.13387 4.31329 1.13387 3.49926 1.13387 2.68534 1.31985 2.05299 1.6918 1.6021 2.06495 1.15258 2.58859 0.927872 3.26273 0.927872 3.56372 0.927872 3.86168 0.970433 4.15659 1.05544 4.45151 1.14056 4.74588 1.26882 5.0396 1.4402L5.0396 0.426867C4.74946 0.284654 4.44912 0.178023 4.13858 0.10686 3.82913 0.0345521 3.49927-0.00171616 3.14902-0.00171616 2.19678-0.00171616 1.44018 0.313829 0.879213 0.945034 0.319438 1.57612 0.0396042 2.42757 0.0396042 3.49926 0.0396042 4.58627 0.322476 5.44092 0.888219 6.06309 1.45526 6.68663 2.23172 6.9984 3.2176 6.9984 3.5366 6.9984 3.84844 6.9635 4.15301 6.8936 4.45759 6.82507 4.75304 6.72152 5.0396 6.58309Z" fill-rule="evenodd" transform="matrix(1 0 0 -1 695 392)"/><path d="M1.87305 7.99754 1.87305 6.22813 4.0416 6.22813 4.0416 5.43238 1.87305 5.43238 1.87305 2.04999C1.87305 1.54209 1.94448 1.21575 2.08733 1.07097 2.23018 0.926194 2.52139 0.853805 2.96096 0.853805L4.0416 0.853805 4.0416-0.0024593 2.96096-0.0024593C2.14775-0.0024593 1.58668 0.144671 1.27775 0.438932 0.968937 0.734476 0.814417 1.27146 0.814417 2.04999L0.814417 5.43238 0.0414913 5.43238 0.0414913 6.22813 0.814417 6.22813 0.814417 7.99754Z" fill-rule="evenodd" transform="matrix(1 0 0 -1 701 392)"/><path d="M0.0404431 8.997 1.04044 8.997 1.04044-0.00300141 0.0404431-0.00300141Z" fill-rule="evenodd" transform="matrix(1 0 0 -1 706 392)"/><path d="M3.33048 1.66557C3.04509 0.975568 2.76617 0.52578 2.4937 0.316005 2.2224 0.105136 1.85953-0.0002984 1.405-0.0002984L0.594686-0.0002984 0.594686 0.79623 1.19011 0.79623C1.4684 0.79623 1.68456 0.858596 1.83836 0.983327 1.99344 1.10696 2.16428 1.40009 2.35101 1.86261L2.53244 2.29649 0.039801 7.9997 1.11263 7.9997 3.0398 3.46731 4.96697 7.9997 6.0398 7.9997Z" fill-rule="evenodd" transform="matrix(1 0 0 -1 708 394)"/><path d="M0.0423922 0.99824 3.0425 0.99824 3.0425-0.00175974 0.0423922-0.00175974Z" fill-rule="evenodd" transform="matrix(1 0 0 -1 719 389)"/><path d="M0.0439304 8.9971 5.04404 8.9971 5.04404 7.97096 1.22075 7.97096 1.22075 5.31888 4.67108 5.31888 4.67108 4.29459 1.22075 4.29459 1.22075-0.00289642 0.0439304-0.00289642Z" fill-rule="evenodd" transform="matrix(1 0 0 -1 727 392)"/><path d="M0.0474962 8.9971 5.93583 8.9971 5.93583 7.97096 1.30699 7.97096 1.30699 5.30729 5.74213 5.30729 5.74213 4.283 1.30699 4.283 1.30699 1.02128 6.04762 1.02128 6.04762-0.00289642 0.0474962-0.00289642Z" fill-rule="evenodd" transform="matrix(1 0 0 -1 733 392)"/><path d="M4.04627 7.7974 2.44252 3.31861 5.65374 3.31861ZM3.37821 8.9971 4.71805 8.9971 8.04532-0.00289642 6.8177-0.00289642 6.02235 2.3059 2.08695 2.3059 1.2916-0.00289642 0.0452047-0.00289642Z" fill-rule="evenodd" transform="matrix(1 0 0 -1 739 392)"/><path d="M6.03928 8.17186 6.03928 6.93557C5.70011 7.30363 5.33871 7.57822 4.95498 7.75913 4.57126 7.94137 4.16358 8.03238 3.73205 8.03238 2.88162 8.03238 2.23059 7.72942 1.77884 7.12328 1.32699 6.51725 1.10116 5.64098 1.10116 4.49447 1.10116 3.35176 1.32699 2.47728 1.77884 1.87125 2.23059 1.2651 2.88162 0.962144 3.73205 0.962144 4.16358 0.962144 4.57126 1.05327 4.95498 1.2354 5.33871 1.41764 5.70011 1.6928 6.03928 2.06086L6.03928 0.833836C5.68737 0.554997 5.31428 0.345505 4.91992 0.205472 4.52661 0.0666667 4.11098-0.00279174 3.67303-0.00279174 2.54628-0.00279174 1.65869 0.398772 1.01024 1.2019 0.362934 2.00637 0.0391869 3.10385 0.0391869 4.49447 0.0391869 5.88889 0.362934 6.9876 1.01024 7.79073 1.65869 8.59509 2.54628 8.99732 3.67303 8.99732 4.11731 8.99732 4.53619 8.92853 4.9295 8.79095 5.32386 8.65338 5.69379 8.44701 6.03928 8.17186Z" fill-rule="evenodd" transform="matrix(1 0 0 -1 748 392)"/><path d="M333.432 527.5 913.568 527.5C914.855 527.5 915.5 526.822 915.5 525.464L915.5 511.536C915.5 510.178 914.855 509.5 913.568 509.5L333.432 509.5C332.144 509.5 331.5 510.178 331.5 511.536L331.5 525.464C331.5 526.822 332.144 527.5 333.432 527.5Z" stroke="#CCCCCC" stroke-width="0.508031" stroke-miterlimit="8" stroke-opacity="0.8" fill="#EEEEEE" fill-rule="evenodd" fill-opacity="0.8"/><path d="M335.5 521.5 354.5 521.5 354.5 514.5 335.5 514.5Z" stroke="#000000" stroke-width="0.508031" stroke-miterlimit="8" fill="#000080" fill-rule="evenodd"/><path d="M6.0041 6.42385 6.0041 5.46232C5.66496 5.74864 5.30351 5.96214 4.91977 6.10284 4.53603 6.24454 4.12843 6.31544 3.69687 6.31544 2.8464 6.31544 2.1954 6.07971 1.74354 5.60835 1.29179 5.13699 1.06592 4.45544 1.06592 3.56371 1.06592 2.67489 1.29179 1.99486 1.74354 1.5234 2.1954 1.05204 2.8464 0.816306 3.69687 0.816306 4.12843 0.816306 4.53603 0.887206 4.91977 1.02891 5.30351 1.17061 5.66496 1.38461 6.0041 1.67093L6.0041 0.716543C5.6522 0.499619 5.27911 0.3367 4.88471 0.227785 4.49143 0.119876 4.07585 0.0658717 3.63785 0.0658717 2.51103 0.0658717 1.6235 0.378234 0.975057 1.00286 0.327718 1.62849 0.00399386 2.48211 0.00399386 3.56371 0.00399386 4.64823 0.327718 5.50275 0.975057 6.12748 1.6235 6.75311 2.51103 7.06587 3.63785 7.06587 4.08217 7.06587 4.50097 7.01237 4.89426 6.90537 5.28865 6.79836 5.65864 6.63786 6.0041 6.42385Z" fill-rule="evenodd" transform="matrix(1 0 0 -1 362 521)"/><path d="M3.51004 6.32559C2.76667 6.32559 2.17621 6.0783 1.73855 5.58381 1.30203 5.09022 1.08382 4.41682 1.08382 3.56371 1.08382 2.71442 1.30203 2.04253 1.73855 1.54804 2.17621 1.05445 2.76667 0.807657 3.51004 0.807657 4.25239 0.807657 4.84071 1.05445 5.27509 1.54804 5.70948 2.04253 5.92667 2.71442 5.92667 3.56371 5.92667 4.41682 5.70948 5.09022 5.27509 5.58381 4.84071 6.0783 4.25239 6.32559 3.51004 6.32559ZM3.51004 7.06587C4.57006 7.06587 5.41718 6.74878 6.0515 6.1144 6.68684 5.48012 7.00451 4.62993 7.00451 3.56371 7.00451 2.50041 6.68684 1.65162 6.0515 1.01734 5.41718 0.383062 4.57006 0.0658717 3.51004 0.0658717 2.44685 0.0658717 1.59647 0.382056 0.958984 1.01442 0.322518 1.6478 0.00439798 2.49749 0.00439798 3.56371 0.00439798 4.62993 0.322518 5.48012 0.958984 6.1144 1.59647 6.74878 2.44685 7.06587 3.51004 7.06587Z" fill-rule="evenodd" transform="matrix(1 0 0 -1 369 521)"/><path d="M0.00537123 1.09034 2.00545 1.09034 2.00545 0.090341 0.00537123 0.090341Z" fill-rule="evenodd" transform="matrix(1 0 0 -1 377 519)"/><path d="M3.00637 8.07483 3.00637 7.28685 2.26576 7.28685C1.98845 7.28685 1.79545 7.21832 1.68677 7.08113 1.57903 6.94407 1.52525 6.69727 1.52525 6.34087L1.52525 5.83253 2.80035 5.83253 2.80035 5.09718 1.52525 5.09718 1.52525 0.0747129 0.746885 0.0747129 0.746885 5.09718 0.00627713 5.09718 0.00627713 5.83253 0.746885 5.83253 0.746885 6.23401C0.746885 6.87439 0.868961 7.34108 1.11321 7.63399 1.35736 7.9278 1.7442 8.07483 2.27391 8.07483Z" fill-rule="evenodd" transform="matrix(1 0 0 -1 380 521)"/><path d="M0.00919651 5.83253 1.0092 5.83253 1.0092 0.0747129 0.00919651 0.0747129ZM0.00919651 8.07483 1.0092 8.07483 1.0092 6.87553 0.00919651 6.87553Z" fill-rule="evenodd" transform="matrix(1 0 0 -1 384 521)"/><path d="M3.00703 5.03778C2.91243 5.10031 2.80949 5.14607 2.6982 5.17506 2.58701 5.20522 2.46462 5.22024 2.33092 5.22024 1.8548 5.22024 1.48946 5.04337 1.2348 4.68953 0.980145 4.3358 0.852866 3.82744 0.852866 3.16446L0.852866 0.0773127 0.00692394 0.0773127 0.00692394 5.93678 0.852866 5.93678 0.852866 5.02602C1.03044 5.38208 1.26067 5.64604 1.54363 5.8179 1.82751 5.99092 2.17239 6.07743 2.57825 6.07743 2.63578 6.07743 2.69972 6.073 2.76998 6.06404 2.84024 6.05624 2.91773 6.04343 3.00265 6.0255Z" fill-rule="evenodd" transform="matrix(1 0 0 -1 387 521)"/><path d="M3.72637 5.77017 3.72637 4.8821C3.48406 5.01813 3.23186 5.11987 2.96967 5.18732 2.70853 5.2559 2.43739 5.2902 2.15627 5.2902 1.72959 5.2902 1.40956 5.21889 1.19617 5.07638 0.982885 4.93376 0.876242 4.71938 0.876242 4.43312 0.876242 4.21533 0.952505 4.04455 1.10503 3.92044 1.25756 3.79633 1.56458 3.67824 2.02611 3.56616L2.32076 3.49428C2.93086 3.35167 3.36451 3.15034 3.6217 2.8902 3.8789 2.63005 4.00749 2.26703 4.00749 1.80125 4.00749 1.27006 3.81501 0.849357 3.43027 0.539137 3.04541 0.230053 2.51657 0.075511 1.84373 0.075511 1.56354 0.075511 1.2715 0.105488 0.967383 0.165329 0.663372 0.22517 0.343339 0.314421 0.00738698 0.433081L0.00738698 1.40291C0.325443 1.22214 0.638402 1.08668 0.94647 0.996291 1.25454 0.90704 1.56011 0.862415 1.86318 0.862415 2.26791 0.862415 2.57889 0.938039 2.79623 1.0894 3.01451 1.24065 3.12376 1.45401 3.12376 1.72937 3.12376 1.98407 3.045 2.17949 2.88748 2.31552 2.7309 2.45155 2.386 2.5827 1.85268 2.70897L1.55356 2.78573C1.02128 2.90757 0.636425 3.09538 0.399209 3.34894 0.16293 3.60261 0.0448421 3.9503 0.0448421 4.39224 0.0448421 4.9299 0.219217 5.34459 0.568174 5.6363 0.91713 5.92914 1.41258 6.07551 2.05452 6.07551 2.37153 6.07551 2.67013 6.04996 2.95022 5.99875 3.23134 5.94879 3.49009 5.87248 3.72637 5.77017Z" fill-rule="evenodd" transform="matrix(1 0 0 -1 390 521)"/><path d="M1.38153 7.07117 1.38153 5.52278 3.00793 5.52278 3.00793 4.82653 1.38153 4.82653 1.38153 1.86711C1.38153 1.42262 1.43506 1.13706 1.5422 1.01031 1.64934 0.883667 1.86782 0.820292 2.19746 0.820292L3.00793 0.820292 3.00793 0.071066 2.19746 0.071066C1.58759 0.071066 1.16678 0.199873 0.935105 0.457379 0.703336 0.715968 0.587499 1.18581 0.587499 1.86711L0.587499 4.82653 0.00783714 4.82653 0.00783714 5.52278 0.587499 5.52278 0.587499 7.07117Z" fill-rule="evenodd" transform="matrix(1 0 0 -1 395 521)"/><path d="M418.5 521.5 437.5 521.5 437.5 514.5 418.5 514.5Z" stroke="#000000" stroke-width="0.508031" stroke-miterlimit="8" fill="#004CFF" fill-rule="evenodd"/><path d="M6.01309 6.42385 6.01309 5.46232C5.67406 5.74864 5.31261 5.96214 4.92887 6.10284 4.54513 6.24454 4.13742 6.31544 3.70586 6.31544 2.8555 6.31544 2.20439 6.07971 1.75264 5.60835 1.30089 5.13699 1.07501 4.45544 1.07501 3.56371 1.07501 2.67489 1.30089 1.99486 1.75264 1.5234 2.20439 1.05204 2.8555 0.816306 3.70586 0.816306 4.13742 0.816306 4.54513 0.887206 4.92887 1.02891 5.31261 1.17061 5.67406 1.38461 6.01309 1.67093L6.01309 0.716543C5.6613 0.499619 5.2882 0.3367 4.89381 0.227785 4.50053 0.119876 4.08483 0.0658717 3.64695 0.0658717 2.52013 0.0658717 1.63249 0.378234 0.984154 1.00286 0.336705 1.62849 0.013091 2.48211 0.013091 3.56371 0.013091 4.64823 0.336705 5.50275 0.984154 6.12748 1.63249 6.75311 2.52013 7.06587 3.64695 7.06587 4.09127 7.06587 4.51007 7.01237 4.90335 6.90537 5.29775 6.79836 5.66762 6.63786 6.01309 6.42385Z" fill-rule="evenodd" transform="matrix(1 0 0 -1 445 521)"/><path d="M3.51928 6.32559C2.77591 6.32559 2.18546 6.0783 1.7478 5.58381 1.31127 5.09022 1.09295 4.41682 1.09295 3.56371 1.09295 2.71442 1.31127 2.04253 1.7478 1.54804 2.18546 1.05445 2.77591 0.807657 3.51928 0.807657 4.26164 0.807657 4.84995 1.05445 5.28434 1.54804 5.71872 2.04253 5.9358 2.71442 5.9358 3.56371 5.9358 4.41682 5.71872 5.09022 5.28434 5.58381 4.84995 6.0783 4.26164 6.32559 3.51928 6.32559ZM3.51928 7.06587C4.57931 7.06587 5.42643 6.74878 6.06064 6.1144 6.69598 5.48012 7.01364 4.62993 7.01364 3.56371 7.01364 2.50041 6.69598 1.65162 6.06064 1.01734 5.42643 0.383062 4.57931 0.0658717 3.51928 0.0658717 2.4561 0.0658717 1.60571 0.382056 0.968231 1.01442 0.331765 1.6478 0.0135322 2.49749 0.0135322 3.56371 0.0135322 4.62993 0.331765 5.48012 0.968231 6.1144 1.60571 6.74878 2.4561 7.06587 3.51928 7.06587Z" fill-rule="evenodd" transform="matrix(1 0 0 -1 452 521)"/><path d="M0.0121473 1.09034 2.01215 1.09034 2.01215 0.090341 0.0121473 0.090341Z" fill-rule="evenodd" transform="matrix(1 0 0 -1 460 519)"/><path d="M3.77474 4.81178C3.97194 5.2448 4.20764 5.56407 4.48157 5.76934 4.75559 5.97473 5.07794 6.07743 5.4487 6.07743 5.94823 6.07743 6.33367 5.86365 6.60484 5.43622 6.87609 5.00984 7.01172 4.40275 7.01172 3.61472L7.01172 0.0773127 6.21997 0.0773127 6.21997 3.58293C6.21997 4.14438 6.13819 4.56063 5.97473 4.83193 5.81222 5.10415 5.56422 5.24038 5.23091 5.24038 4.82269 5.24038 4.49987 5.07458 4.26235 4.74309 4.02588 4.41276 3.9076 3.96134 3.9076 3.38872L3.9076 0.0773127 3.11584 0.0773127 3.11584 3.58293C3.11584 4.14776 3.03454 4.56517 2.87194 4.83519 2.70943 5.10532 2.45829 5.24038 2.1185 5.24038 1.71581 5.24038 1.39575 5.07411 1.15823 4.74146 0.921762 4.40892 0.80348 3.95797 0.80348 3.38872L0.80348 0.0773127 0.0117234 0.0773127 0.0117234 5.93678 0.80348 5.93678 0.80348 5.02602C0.983334 5.38546 1.19893 5.65046 1.45008 5.82127 1.70122 5.99208 1.99936 6.07743 2.34458 6.07743 2.69342 6.07743 2.98975 5.96914 3.23365 5.75269 3.47746 5.53729 3.65779 5.22361 3.77474 4.81178Z" fill-rule="evenodd" transform="matrix(1 0 0 -1 464 521)"/><path d="M4.01278 3.31635 4.01278 2.85761 0.752574 2.85761C0.783802 2.21105 0.930937 1.71847 1.19398 1.37998 1.45702 1.04148 1.8237 0.872294 2.29384 0.872294 2.56597 0.872294 2.82987 0.916351 3.08545 1.00447 3.34111 1.09269 3.59514 1.22544 3.84755 1.40291L3.84755 0.514724C3.59266 0.372104 3.33167 0.26321 3.06452 0.188153 2.79736 0.113096 2.52651 0.075511 2.25197 0.075511 1.56306 0.075511 1.01767 0.340537 0.615649 0.87059 0.21371 1.40178 0.0126973 2.1201 0.0126973 3.02578 0.0126973 3.96064 0.203415 4.70246 0.584849 5.25102 0.966283 5.80072 1.48087 6.07551 2.1286 6.07551 2.70899 6.07551 3.16807 5.82786 3.50601 5.33266 3.84386 4.83849 4.01278 4.16639 4.01278 3.31635ZM3.30371 3.59228C3.29882 4.10496 3.19029 4.51419 2.97821 4.81998 2.76613 5.12691 2.48542 5.28043 2.13607 5.28043 1.74065 5.28043 1.42416 5.13236 1.1866 4.83634 0.949039 4.54031 0.812114 4.12347 0.775995 3.58569Z" fill-rule="evenodd" transform="matrix(1 0 0 -1 473 521)"/><path d="M2.46312 3.09595C1.83449 3.09595 1.399 3.00942 1.15636 2.83637 0.91381 2.66332 0.792489 2.36718 0.792489 1.94818 0.792489 1.61514 0.883597 1.35057 1.06572 1.15469 1.24794 0.959841 1.495 0.862415 1.80701 0.862415 2.23902 0.862415 2.58528 1.04693 2.8459 1.41597 3.10652 1.7849 3.23688 2.27521 3.23688 2.8869L3.23688 3.09595ZM4.01468 3.48452 4.01468 0.224035 3.23688 0.224035 3.23688 1.09099C3.05918 0.74489 2.83781 0.489061 2.57267 0.323618 2.30754 0.158176 1.98329 0.075511 1.60004 0.075511 1.11579 0.075511 0.730276 0.239818 0.443493 0.568547 0.157557 0.897275 0.0146827 1.33706 0.0146827 1.88777 0.0146827 2.5299 0.192757 3.01431 0.549001 3.34088 0.906092 3.66734 1.43815 3.83062 2.14518 3.83062L3.23688 3.83062 3.23688 3.92373C3.23688 4.35579 3.11923 4.68997 2.88383 4.92615 2.64844 5.16234 2.31789 5.28043 1.89228 5.28043 1.62169 5.28043 1.35796 5.24126 1.10092 5.16291 0.84482 5.08456 0.598602 4.96692 0.362267 4.81022L0.362267 5.67877C0.646415 5.81162 0.922375 5.91064 1.19015 5.97593 1.45801 6.04235 1.71863 6.07551 1.97209 6.07551 2.65747 6.07551 3.1692 5.86113 3.50738 5.43225 3.84564 5.0045 4.01468 4.35522 4.01468 3.48452Z" fill-rule="evenodd" transform="matrix(1 0 0 -1 479 521)"/><path d="M4.01509 3.61472 4.01509 0.0773127 3.23066 0.0773127 3.23066 3.58293C3.23066 4.13763 3.14238 4.55225 2.96602 4.8268 2.78956 5.10252 2.5253 5.24038 2.17333 5.24038 1.7495 5.24038 1.41528 5.07458 1.17057 4.74309 0.925961 4.41276 0.803607 3.96134 0.803607 3.38872L0.803607 0.0773127 0.0150925 0.0773127 0.0150925 5.93678 0.803607 5.93678 0.803607 5.02602C0.991932 5.3787 1.21291 5.6422 1.46663 5.81627 1.72131 5.99034 2.01509 6.07743 2.34798 6.07743 2.89644 6.07743 3.31115 5.86924 3.59222 5.45299 3.87413 5.03674 4.01509 4.42394 4.01509 3.61472Z" fill-rule="evenodd" transform="matrix(1 0 0 -1 485 521)"/><path d="M509.5 521.5 529.5 521.5 529.5 514.5 509.5 514.5Z" stroke="#000000" stroke-width="0.508031" stroke-miterlimit="8" fill="#29FFCE" fill-rule="evenodd"/><path d="M6.02319 6.42385 6.02319 5.46232C5.68404 5.74864 5.3226 5.96214 4.93885 6.10284 4.55511 6.24454 4.14751 6.31544 3.71584 6.31544 2.86548 6.31544 2.21437 6.07971 1.76262 5.60835 1.31087 5.13699 1.085 4.45544 1.085 3.56371 1.085 2.67489 1.31087 1.99486 1.76262 1.5234 2.21437 1.05204 2.86548 0.816306 3.71584 0.816306 4.14751 0.816306 4.55511 0.887206 4.93885 1.02891 5.3226 1.17061 5.68404 1.38461 6.02319 1.67093L6.02319 0.716543C5.67128 0.499619 5.29819 0.3367 4.9038 0.227785 4.51051 0.119876 4.09482 0.0658717 3.65693 0.0658717 2.53011 0.0658717 1.64248 0.378234 0.994139 1.00286 0.346689 1.62849 0.0230756 2.48211 0.0230756 3.56371 0.0230756 4.64823 0.346689 5.50275 0.994139 6.12748 1.64248 6.75311 2.53011 7.06587 3.65693 7.06587 4.10125 7.06587 4.52005 7.01237 4.91334 6.90537 5.30773 6.79836 5.67761 6.63786 6.02319 6.42385Z" fill-rule="evenodd" transform="matrix(1 0 0 -1 537 521)"/><path d="M3.02523 6.32559C2.38805 6.32559 1.88195 6.0783 1.50681 5.58381 1.13265 5.09022 0.945517 4.41682 0.945517 3.56371 0.945517 2.71442 1.13265 2.04253 1.50681 1.54804 1.88195 1.05445 2.38805 0.807657 3.02523 0.807657 3.66153 0.807657 4.1658 1.05445 4.53813 1.54804 4.91046 2.04253 5.09663 2.71442 5.09663 3.56371 5.09663 4.41682 4.91046 5.09022 4.53813 5.58381 4.1658 6.0783 3.66153 6.32559 3.02523 6.32559ZM3.02523 7.06587C3.93382 7.06587 4.65992 6.74878 5.20353 6.1144 5.74811 5.48012 6.02039 4.62993 6.02039 3.56371 6.02039 2.50041 5.74811 1.65162 5.20353 1.01734 4.65992 0.383062 3.93382 0.0658717 3.02523 0.0658717 2.11393 0.0658717 1.38502 0.382056 0.838612 1.01442 0.29307 1.6478 0.0202984 2.49749 0.0202984 3.56371 0.0202984 4.62993 0.29307 5.48012 0.838612 6.1144 1.38502 6.74878 2.11393 7.06587 3.02523 7.06587Z" fill-rule="evenodd" transform="matrix(1 0 0 -1 544 521)"/><path d="M0.0293765 1.09034 3.02938 1.09034 3.02938 0.090341 0.0293765 0.090341Z" fill-rule="evenodd" transform="matrix(1 0 0 -1 551 519)"/><path d="M4.32379 4.81178C4.54927 5.2448 4.81854 5.56407 5.1316 5.76934 5.44477 5.97473 5.81316 6.07743 6.23689 6.07743 6.80778 6.07743 7.24829 5.86365 7.5583 5.43622 7.8682 5.00984 8.0232 4.40275 8.0232 3.61472L8.0232 0.0773127 7.11834 0.0773127 7.11834 3.58293C7.11834 4.14438 7.02488 4.56063 6.83806 4.83193 6.65234 5.10415 6.36891 5.24038 5.98799 5.24038 5.52145 5.24038 5.15251 5.07458 4.88106 4.74309 4.61081 4.41276 4.47563 3.96134 4.47563 3.38872L4.47563 0.0773127 3.57077 0.0773127 3.57077 3.58293C3.57077 4.14776 3.47785 4.56517 3.29202 4.83519 3.1063 5.10532 2.81927 5.24038 2.43106 5.24038 1.97073 5.24038 1.60495 5.07411 1.3335 4.74146 1.06325 4.40892 0.928067 3.95797 0.928067 3.38872L0.928067 0.0773127 0.0232017 0.0773127 0.0232017 5.93678 0.928067 5.93678 0.928067 5.02602C1.13372 5.38546 1.38001 5.65046 1.66703 5.82127 1.95406 5.99208 2.29479 6.07743 2.68932 6.07743 3.088 6.07743 3.42666 5.96914 3.7054 5.75269 3.98404 5.53729 4.19013 5.22361 4.32379 4.81178Z" fill-rule="evenodd" transform="matrix(1 0 0 -1 555 521)"/><path d="M5.02563 3.31635 5.02563 2.85761 0.950369 2.85761C0.989405 2.21105 1.17332 1.71847 1.50212 1.37998 1.83092 1.04148 2.28927 0.872294 2.87695 0.872294 3.21712 0.872294 3.54699 0.916351 3.86657 1.00447 4.18604 1.09269 4.50358 1.22544 4.81908 1.40291L4.81908 0.514724C4.50047 0.372104 4.17424 0.26321 3.8403 0.188153 3.50635 0.113096 3.16779 0.075511 2.82462 0.075511 1.96347 0.075511 1.28174 0.340537 0.779212 0.87059 0.276789 1.40178 0.0255233 2.1201 0.0255233 3.02578 0.0255233 3.96064 0.26392 4.70246 0.740713 5.25102 1.21751 5.80072 1.86074 6.07551 2.67041 6.07551 3.39589 6.07551 3.96984 5.82786 4.39216 5.33266 4.81447 4.83849 5.02563 4.16639 5.02563 3.31635ZM4.13939 3.59228C4.13317 4.10496 3.99751 4.51419 3.73241 4.81998 3.46731 5.12691 3.11642 5.28043 2.67974 5.28043 2.18546 5.28043 1.78985 5.13236 1.4929 4.83634 1.19595 4.54031 1.02479 4.12347 0.979646 3.58569Z" fill-rule="evenodd" transform="matrix(1 0 0 -1 564 521)"/><path d="M4.10815 5.01497 4.10815 8.07345 5.02725 8.07345 5.02725 0.220357 4.10815 0.220357 4.10815 1.0682C3.9153 0.732276 3.67117 0.482493 3.376 0.318854 3.08194 0.155215 2.72816 0.0734522 2.31466 0.0734522 1.63901 0.0734522 1.0886 0.345809 0.663412 0.890524 0.23934 1.43636 0.0272483 2.15336 0.0272483 3.04153 0.0272483 3.92969 0.23934 4.64624 0.663412 5.19096 1.0886 5.73567 1.63901 6.00803 2.31466 6.00803 2.72816 6.00803 3.08194 5.92627 3.376 5.76263 3.67117 5.6 3.9153 5.35078 4.10815 5.01497ZM0.976711 3.04153C0.976711 2.35901 1.11584 1.82339 1.39389 1.43479 1.67204 1.04608 2.05407 0.851776 2.53998 0.851776 3.026 0.851776 3.40859 1.04608 3.68775 1.43479 3.96801 1.82339 4.10815 2.35901 4.10815 3.04153 4.10815 3.72405 3.96801 4.25967 3.68775 4.64838 3.40859 5.03698 3.026 5.23128 2.53998 5.23128 2.05407 5.23128 1.67204 5.03698 1.39389 4.64838 1.11584 4.25967 0.976711 3.72405 0.976711 3.04153Z" fill-rule="evenodd" transform="matrix(1 0 0 -1 570 521)"/><path d="M0.0320668 5.83253 1.03219 5.83253 1.03219 0.0747129 0.0320668 0.0747129ZM0.0320668 8.07483 1.03219 8.07483 1.03219 6.87553 0.0320668 6.87553Z" fill-rule="evenodd" transform="matrix(1 0 0 -1 577 521)"/><path d="M2.47243 3.09595C1.84381 3.09595 1.40822 3.00942 1.16567 2.83637 0.923033 2.66332 0.801807 2.36718 0.801807 1.94818 0.801807 1.61514 0.892821 1.35057 1.07504 1.15469 1.25716 0.959841 1.50432 0.862415 1.81632 0.862415 2.24834 0.862415 2.5946 1.04693 2.85522 1.41597 3.11584 1.7849 3.24619 2.27521 3.24619 2.8869L3.24619 3.09595ZM4.024 3.48452 4.024 0.224035 3.24619 0.224035 3.24619 1.09099C3.0685 0.74489 2.84713 0.489061 2.58199 0.323618 2.31685 0.158176 1.99261 0.075511 1.60936 0.075511 1.12511 0.075511 0.7395 0.239818 0.452717 0.568547 0.166875 0.897275 0.0239064 1.33706 0.0239064 1.88777 0.0239064 2.5299 0.202075 3.01431 0.558319 3.34088 0.91541 3.66734 1.44747 3.83062 2.1545 3.83062L3.24619 3.83062 3.24619 3.92373C3.24619 4.35579 3.12845 4.68997 2.89306 4.92615 2.65776 5.16234 2.32721 5.28043 1.9015 5.28043 1.631 5.28043 1.36719 5.24126 1.11024 5.16291 0.854044 5.08456 0.60792 4.96692 0.371585 4.81022L0.371585 5.67877C0.655639 5.81162 0.931598 5.91064 1.19946 5.97593 1.46733 6.04235 1.72795 6.07551 1.98132 6.07551 2.6667 6.07551 3.17852 5.86113 3.51669 5.43225 3.85487 5.0045 4.024 4.35522 4.024 3.48452Z" fill-rule="evenodd" transform="matrix(1 0 0 -1 579 521)"/><path d="M5.03061 3.61472 5.03061 0.0773127 4.05007 0.0773127 4.05007 3.58293C4.05007 4.13763 3.93972 4.55225 3.71915 4.8268 3.49869 5.10252 3.16837 5.24038 2.72841 5.24038 2.19862 5.24038 1.78085 5.07458 1.47496 4.74309 1.1692 4.41276 1.01626 3.96134 1.01626 3.38872L1.01626 0.0773127 0.0306122 0.0773127 0.0306122 5.93678 1.01626 5.93678 1.01626 5.02602C1.25154 5.3787 1.52788 5.6422 1.84504 5.81627 2.16338 5.99034 2.53061 6.07743 2.94673 6.07743 3.63218 6.07743 4.15069 5.86924 4.5019 5.45299 4.85441 5.03674 5.03061 4.42394 5.03061 3.61472Z" fill-rule="evenodd" transform="matrix(1 0 0 -1 585 521)"/><path d="M610.5 521.5 629.5 521.5 629.5 514.5 610.5 514.5Z" stroke="#000000" stroke-width="0.508031" stroke-miterlimit="8" fill="#CEFF29" fill-rule="evenodd"/><path d="M0.032181 7.06834 4.03228 7.06834 4.03228 6.27025 0.973632 6.27025 0.973632 4.20747 3.73383 4.20747 3.73383 3.41084 0.973632 3.41084 0.973632 0.0683421 0.032181 0.0683421Z" fill-rule="evenodd" transform="matrix(1 0 0 -1 638 521)"/><path d="M0.0363935 7.06834 1.10108 7.06834 1.10108 4.19839 4.97171 4.19839 4.97171 7.06834 6.03639 7.06834 6.03639 0.0683421 4.97171 0.0683421 4.97171 3.40187 1.10108 3.40187 1.10108 0.0683421 0.0363935 0.0683421Z" fill-rule="evenodd" transform="matrix(1 0 0 -1 643 521)"/><path d="M0.0305105 7.06834 1.35302 7.06834 3.02562 2.30516 4.7079 7.06834 6.03051 7.06834 6.03051 0.0683421 5.16468 0.0683421 5.16468 6.21474 3.47389 1.414 2.58283 1.414 0.89204 6.21474 0.89204 0.0683421 0.0305105 0.0683421Z" fill-rule="evenodd" transform="matrix(1 0 0 -1 651 521)"/><path d="M0.0312928 7.06834 1.3538 7.06834 3.0264 2.30516 4.70878 7.06834 6.03129 7.06834 6.03129 0.0683421 5.16556 0.0683421 5.16556 6.21474 3.47477 1.414 2.58361 1.414 0.892822 6.21474 0.892822 0.0683421 0.0312928 0.0683421Z" fill-rule="evenodd" transform="matrix(1 0 0 -1 659 521)"/><path d="M0.0290047 1.09034 2.029 1.09034 2.029 0.090341 0.0290047 0.090341Z" fill-rule="evenodd" transform="matrix(1 0 0 -1 667 519)"/><path d="M3.03317 8.07483 3.03317 7.28685 2.29256 7.28685C2.01515 7.28685 1.82215 7.21832 1.71356 7.08113 1.60582 6.94407 1.55195 6.69727 1.55195 6.34087L1.55195 5.83253 2.82714 5.83253 2.82714 5.09718 1.55195 5.09718 1.55195 0.0747129 0.77368 0.0747129 0.77368 5.09718 0.033072 5.09718 0.033072 5.83253 0.77368 5.83253 0.77368 6.23401C0.77368 6.87439 0.895756 7.34108 1.13991 7.63399 1.38406 7.9278 1.77099 8.07483 2.30062 8.07483Z" fill-rule="evenodd" transform="matrix(1 0 0 -1 670 521)"/><path d="M0.0436834 5.83253 1.0438 5.83253 1.0438 0.0747129 0.0436834 0.0747129ZM0.0436834 8.07483 1.0438 8.07483 1.0438 6.87553 0.0436834 6.87553Z" fill-rule="evenodd" transform="matrix(1 0 0 -1 674 521)"/><path d="M3.03615 5.03778C2.94145 5.10031 2.83851 5.14607 2.72732 5.17506 2.61613 5.20522 2.49364 5.22024 2.35994 5.22024 1.88392 5.22024 1.51848 5.04337 1.26382 4.68953 1.00927 4.3358 0.881886 3.82744 0.881886 3.16446L0.881886 0.0773127 0.0360452 0.0773127 0.0360452 5.93678 0.881886 5.93678 0.881886 5.02602C1.05946 5.38208 1.28969 5.64604 1.57265 5.8179 1.85653 5.99092 2.20141 6.07743 2.60727 6.07743 2.6649 6.07743 2.72874 6.073 2.799 6.06404 2.86926 6.05624 2.94685 6.04343 3.03167 6.0255Z" fill-rule="evenodd" transform="matrix(1 0 0 -1 677 521)"/><path d="M3.75602 5.77017 3.75602 4.8821C3.51381 5.01813 3.26161 5.11987 2.99943 5.18732 2.73818 5.2559 2.46704 5.2902 2.18592 5.2902 1.75925 5.2902 1.43921 5.21889 1.22593 5.07638 1.01254 4.93376 0.905894 4.71938 0.905894 4.43312 0.905894 4.21533 0.982157 4.04455 1.13468 3.92044 1.28721 3.79633 1.59424 3.67824 2.05587 3.56616L2.35041 3.49428C2.96052 3.35167 3.39416 3.15034 3.65135 2.8902 3.90855 2.63005 4.03714 2.26703 4.03714 1.80125 4.03714 1.27006 3.84477 0.849357 3.45992 0.539137 3.07517 0.230053 2.54632 0.075511 1.87338 0.075511 1.5933 0.075511 1.30115 0.105488 0.997139 0.165329 0.693024 0.22517 0.373095 0.314421 0.037143 0.433081L0.037143 1.40291C0.355095 1.22214 0.668158 1.08668 0.976226 0.996291 1.28419 0.90704 1.58976 0.862415 1.89284 0.862415 2.29756 0.862415 2.60865 0.938039 2.82589 1.0894 3.04427 1.24065 3.15341 1.45401 3.15341 1.72937 3.15341 1.98407 3.07465 2.17949 2.91713 2.31552 2.76065 2.45155 2.41565 2.5827 1.88233 2.70897L1.58331 2.78573C1.05093 2.90757 0.666181 3.09538 0.428861 3.34894 0.192582 3.60261 0.0744941 3.9503 0.0744941 4.39224 0.0744941 4.9299 0.248973 5.34459 0.597826 5.6363 0.946782 5.92914 1.44223 6.07551 2.08427 6.07551 2.40129 6.07551 2.69979 6.04996 2.97997 5.99875 3.26109 5.94879 3.51974 5.87248 3.75602 5.77017Z" fill-rule="evenodd" transform="matrix(1 0 0 -1 680 521)"/><path d="M1.40877 7.07117 1.40877 5.52278 3.03517 5.52278 3.03517 4.82653 1.40877 4.82653 1.40877 1.86711C1.40877 1.42262 1.46239 1.13706 1.56953 1.01031 1.67667 0.883667 1.89506 0.820292 2.2247 0.820292L3.03517 0.820292 3.03517 0.071066 2.2247 0.071066C1.61483 0.071066 1.19402 0.199873 0.962344 0.457379 0.73067 0.715968 0.614833 1.18581 0.614833 1.86711L0.614833 4.82653 0.0351716 4.82653 0.0351716 5.52278 0.614833 5.52278 0.614833 7.07117Z" fill-rule="evenodd" transform="matrix(1 0 0 -1 685 521)"/><path d="M708.5 521.5 727.5 521.5 727.5 514.5 708.5 514.5Z" stroke="#000000" stroke-width="0.508031" stroke-miterlimit="8" fill="#FF6800" fill-rule="evenodd"/><path d="M0.0422506 7.06834 4.04235 7.06834 4.04235 6.27025 0.983702 6.27025 0.983702 4.20747 3.7439 4.20747 3.7439 3.41084 0.983702 3.41084 0.983702 0.0683421 0.0422506 0.0683421Z" fill-rule="evenodd" transform="matrix(1 0 0 -1 736 521)"/><path d="M0.0476638 7.06834 1.11235 7.06834 1.11235 4.19839 4.98309 4.19839 4.98309 7.06834 6.04778 7.06834 6.04778 0.0683421 4.98309 0.0683421 4.98309 3.40187 1.11235 3.40187 1.11235 0.0683421 0.0476638 0.0683421Z" fill-rule="evenodd" transform="matrix(1 0 0 -1 741 521)"/><path d="M0.0398983 7.06834 1.36251 7.06834 3.03501 2.30516 4.71739 7.06834 6.04 7.06834 6.04 0.0683421 5.17416 0.0683421 5.17416 6.21474 3.48338 1.414 2.59231 1.414 0.901525 6.21474 0.901525 0.0683421 0.0398983 0.0683421Z" fill-rule="evenodd" transform="matrix(1 0 0 -1 749 521)"/><path d="M0.0407784 7.06834 1.36329 7.06834 3.03579 2.30516 4.71817 7.06834 6.04078 7.06834 6.04078 0.0683421 5.17495 0.0683421 5.17495 6.21474 3.48416 1.414 2.5931 1.414 0.902308 6.21474 0.902308 0.0683421 0.0407784 0.0683421Z" fill-rule="evenodd" transform="matrix(1 0 0 -1 757 521)"/><path d="M0.0369376 1.09034 2.03702 1.09034 2.03702 0.090341 0.0369376 0.090341Z" fill-rule="evenodd" transform="matrix(1 0 0 -1 765 519)"/><path d="M4.34666 4.81178C4.57214 5.2448 4.84141 5.56407 5.15447 5.76934 5.46764 5.97473 5.83604 6.07743 6.25977 6.07743 6.83077 6.07743 7.27116 5.86365 7.58117 5.43622 7.89107 5.00984 8.04608 4.40275 8.04608 3.61472L8.04608 0.0773127 7.14121 0.0773127 7.14121 3.58293C7.14121 4.14438 7.04775 4.56063 6.86094 4.83193 6.67522 5.10415 6.39179 5.24038 6.01087 5.24038 5.54433 5.24038 5.17539 5.07458 4.90405 4.74309 4.63369 4.41276 4.49851 3.96134 4.49851 3.38872L4.49851 0.0773127 3.59364 0.0773127 3.59364 3.58293C3.59364 4.14776 3.50073 4.56517 3.31501 4.83519 3.12917 5.10532 2.84215 5.24038 2.45393 5.24038 1.9936 5.24038 1.62782 5.07411 1.35648 4.74146 1.08612 4.40892 0.950941 3.95797 0.950941 3.38872L0.950941 0.0773127 0.0460765 0.0773127 0.0460765 5.93678 0.950941 5.93678 0.950941 5.02602C1.1566 5.38546 1.40288 5.65046 1.68991 5.82127 1.97693 5.99208 2.31766 6.07743 2.7122 6.07743 3.11088 6.07743 3.44964 5.96914 3.72828 5.75269 4.00692 5.53729 4.21312 5.22361 4.34666 4.81178Z" fill-rule="evenodd" transform="matrix(1 0 0 -1 769 521)"/><path d="M5.04815 3.31635 5.04815 2.85761 0.972889 2.85761C1.01193 2.21105 1.19584 1.71847 1.52464 1.37998 1.85344 1.04148 2.31179 0.872294 2.89958 0.872294 3.23964 0.872294 3.56951 0.916351 3.88909 1.00447 4.20867 1.09269 4.5261 1.22544 4.84161 1.40291L4.84161 0.514724C4.5231 0.372104 4.19677 0.26321 3.86282 0.188153 3.52887 0.113096 3.19031 0.075511 2.84714 0.075511 1.9861 0.075511 1.30426 0.340537 0.80184 0.87059 0.299309 1.40178 0.0481512 2.1201 0.0481512 3.02578 0.0481512 3.96064 0.28644 4.70246 0.763233 5.25102 1.24003 5.80072 1.88326 6.07551 2.69303 6.07551 3.41841 6.07551 3.99236 5.82786 4.41468 5.33266 4.83699 4.83849 5.04815 4.16639 5.04815 3.31635ZM4.16191 3.59228C4.15569 4.10496 4.02014 4.51419 3.75493 4.81998 3.48983 5.12691 3.13894 5.28043 2.70226 5.28043 2.20798 5.28043 1.81237 5.13236 1.51542 4.83634 1.21847 4.54031 1.04742 4.12347 1.00217 3.58569Z" fill-rule="evenodd" transform="matrix(1 0 0 -1 778 521)"/><path d="M2.49135 3.09595C1.86282 3.09595 1.42723 3.00942 1.18459 2.83637 0.942046 2.66332 0.820725 2.36718 0.820725 1.94818 0.820725 1.61514 0.911833 1.35057 1.09396 1.15469 1.27617 0.959841 1.52324 0.862415 1.83524 0.862415 2.26725 0.862415 2.61352 1.04693 2.87423 1.41597 3.13485 1.7849 3.26511 2.27521 3.26511 2.8869L3.26511 3.09595ZM4.04292 3.48452 4.04292 0.224035 3.26511 0.224035 3.26511 1.09099C3.08751 0.74489 2.86604 0.489061 2.60091 0.323618 2.33577 0.158176 2.01162 0.075511 1.62837 0.075511 1.14403 0.075511 0.758512 0.239818 0.471729 0.568547 0.185887 0.897275 0.0429187 1.33706 0.0429187 1.88777 0.0429187 2.5299 0.220993 3.01431 0.577237 3.34088 0.934328 3.66734 1.46648 3.83062 2.17351 3.83062L3.26511 3.83062 3.26511 3.92373C3.26511 4.35579 3.14746 4.68997 2.91207 4.92615 2.67667 5.16234 2.34622 5.28043 1.92052 5.28043 1.64992 5.28043 1.3862 5.24126 1.12916 5.16291 0.873056 5.08456 0.626838 4.96692 0.390597 4.81022L0.390597 5.67877C0.674651 5.81162 0.950611 5.91064 1.21848 5.97593 1.48625 6.04235 1.74696 6.07551 2.00033 6.07551 2.68571 6.07551 3.19753 5.86113 3.53571 5.43225 3.87388 5.0045 4.04292 4.35522 4.04292 3.48452Z" fill-rule="evenodd" transform="matrix(1 0 0 -1 784 521)"/><path d="M4.04357 3.61472 4.04357 0.0773127 3.25914 0.0773127 3.25914 3.58293C3.25914 4.13763 3.17095 4.55225 2.99449 4.8268 2.81804 5.10252 2.55387 5.24038 2.2018 5.24038 1.77798 5.24038 1.44376 5.07458 1.19915 4.74309 0.954437 4.41276 0.832084 3.96134 0.832084 3.38872L0.832084 0.0773127 0.0435691 0.0773127 0.0435691 5.93678 0.832084 5.93678 0.832084 5.02602C1.02041 5.3787 1.24139 5.6422 1.49511 5.81627 1.74979 5.99034 2.04357 6.07743 2.37646 6.07743 2.92492 6.07743 3.33963 5.86924 3.62069 5.45299 3.90261 5.03674 4.04357 4.42394 4.04357 3.61472Z" fill-rule="evenodd" transform="matrix(1 0 0 -1 790 521)"/><path d="M815.5 521.5 834.5 521.5 834.5 514.5 815.5 514.5Z" stroke="#000000" stroke-width="0.508031" stroke-miterlimit="8" fill="#800000" fill-rule="evenodd"/><path d="M0.0531506 7.06834 4.05325 7.06834 4.05325 6.27025 0.994602 6.27025 0.994602 4.20747 3.7548 4.20747 3.7548 3.41084 0.994602 3.41084 0.994602 0.0683421 0.0531506 0.0683421Z" fill-rule="evenodd" transform="matrix(1 0 0 -1 843 521)"/><path d="M0.0599906 7.06834 1.12468 7.06834 1.12468 4.19839 4.99542 4.19839 4.99542 7.06834 6.06011 7.06834 6.06011 0.0683421 4.99542 0.0683421 4.99542 3.40187 1.12468 3.40187 1.12468 0.0683421 0.0599906 0.0683421Z" fill-rule="evenodd" transform="matrix(1 0 0 -1 848 521)"/><path d="M0.0585273 7.06834 1.60157 7.06834 3.55282 2.30516 5.5156 7.06834 7.05853 7.06834 7.05853 0.0683421 6.0485 0.0683421 6.0485 6.21474 4.07592 1.414 3.03635 1.414 1.06376 6.21474 1.06376 0.0683421 0.0585273 0.0683421Z" fill-rule="evenodd" transform="matrix(1 0 0 -1 855 521)"/><path d="M0.0509486 7.06834 1.37356 7.06834 3.04606 2.30516 4.72844 7.06834 6.05105 7.06834 6.05105 0.0683421 5.18521 0.0683421 5.18521 6.21474 3.49443 1.414 2.60336 1.414 0.912576 6.21474 0.912576 0.0683421 0.0509486 0.0683421Z" fill-rule="evenodd" transform="matrix(1 0 0 -1 864 521)"/><path d="M0.0456142 1.09034 2.0457 1.09034 2.0457 0.090341 0.0456142 0.090341Z" fill-rule="evenodd" transform="matrix(1 0 0 -1 872 519)"/><path d="M3.81334 4.81178C4.01063 5.2448 4.24625 5.56407 4.52017 5.76934 4.79419 5.97473 5.11654 6.07743 5.4873 6.07743 5.98683 6.07743 6.37227 5.86365 6.64353 5.43622 6.9147 5.00984 7.05032 4.40275 7.05032 3.61472L7.05032 0.0773127 6.25857 0.0773127 6.25857 3.58293C6.25857 4.14438 6.17679 4.56063 6.01333 4.83193 5.85082 5.10415 5.60282 5.24038 5.26952 5.24038 4.86129 5.24038 4.53847 5.07458 4.30105 4.74309 4.06449 4.41276 3.9462 3.96134 3.9462 3.38872L3.9462 0.0773127 3.15445 0.0773127 3.15445 3.58293C3.15445 4.14776 3.07314 4.56517 2.91064 4.83519 2.74804 5.10532 2.49689 5.24038 2.1572 5.24038 1.75441 5.24038 1.43435 5.07411 1.19693 4.74146 0.960364 4.40892 0.842082 3.95797 0.842082 3.38872L0.842082 0.0773127 0.0503247 0.0773127 0.0503247 5.93678 0.842082 5.93678 0.842082 5.02602C1.02203 5.38546 1.23753 5.65046 1.48868 5.82127 1.73983 5.99208 2.03796 6.07743 2.38318 6.07743 2.73202 6.07743 3.02844 5.96914 3.27225 5.75269 3.51606 5.53729 3.69649 5.22361 3.81334 4.81178Z" fill-rule="evenodd" transform="matrix(1 0 0 -1 876 521)"/><path d="M4.04753 3.31635 4.04753 2.85761 0.78732 2.85761C0.818548 2.21105 0.965683 1.71847 1.22872 1.37998 1.49176 1.04148 1.85844 0.872294 2.32867 0.872294 2.60072 0.872294 2.86462 0.916351 3.12028 1.00447 3.37594 1.09269 3.62989 1.22544 3.88229 1.40291L3.88229 0.514724C3.62749 0.372104 3.36642 0.26321 3.09926 0.188153 2.8321 0.113096 2.56126 0.075511 2.28672 0.075511 1.59789 0.075511 1.05242 0.340537 0.65048 0.87059 0.248456 1.40178 0.0474434 2.1201 0.0474434 3.02578 0.0474434 3.96064 0.238161 4.70246 0.619595 5.25102 1.00103 5.80072 1.51561 6.07551 2.16343 6.07551 2.74374 6.07551 3.2029 5.82786 3.54075 5.33266 3.8786 4.83849 4.04753 4.16639 4.04753 3.31635ZM3.33854 3.59228C3.33356 4.10496 3.22503 4.51419 3.01295 4.81998 2.80088 5.12691 2.52016 5.28043 2.17081 5.28043 1.77539 5.28043 1.45891 5.13236 1.22135 4.83634 0.983785 4.54031 0.846946 4.12347 0.810741 3.58569Z" fill-rule="evenodd" transform="matrix(1 0 0 -1 885 521)"/><path d="M3.31454 5.01497 3.31454 8.07345 4.04983 8.07345 4.04983 0.220357 3.31454 0.220357 3.31454 1.0682C3.16026 0.732276 2.96506 0.482493 2.72892 0.318854 2.49358 0.155215 2.21056 0.0734522 1.87975 0.0734522 1.33924 0.0734522 0.898903 0.345809 0.558756 0.890524 0.219499 1.43636 0.0498254 2.15336 0.0498254 3.04153 0.0498254 3.92969 0.219499 4.64624 0.558756 5.19096 0.898903 5.73567 1.33924 6.00803 1.87975 6.00803 2.21056 6.00803 2.49358 5.92627 2.72892 5.76263 2.96506 5.6 3.16026 5.35078 3.31454 5.01497ZM0.809396 3.04153C0.809396 2.35901 0.920702 1.82339 1.14323 1.43479 1.36575 1.04608 1.67129 0.851776 2.0601 0.851776 2.44883 0.851776 2.7549 1.04608 2.97822 1.43479 3.20244 1.82339 3.31454 2.35901 3.31454 3.04153 3.31454 3.72405 3.20244 4.25967 2.97822 4.64838 2.7549 5.03698 2.44883 5.23128 2.0601 5.23128 1.67129 5.23128 1.36575 5.03698 1.14323 4.64838 0.920702 4.25967 0.809396 3.72405 0.809396 3.04153Z" fill-rule="evenodd" transform="matrix(1 0 0 -1 891 521)"/><path d="M0.0703049 5.83253 1.0703 5.83253 1.0703 0.0747129 0.0703049 0.0747129ZM0.0703049 8.07483 1.0703 8.07483 1.0703 6.87553 0.0703049 6.87553Z" fill-rule="evenodd" transform="matrix(1 0 0 -1 897 521)"/><path d="M3.1276 3.09595C2.34182 3.09595 1.79734 3.00942 1.49415 2.83637 1.19097 2.66332 1.03932 2.36718 1.03932 1.94818 1.03932 1.61514 1.1532 1.35057 1.38086 1.15469 1.60863 0.959841 1.91746 0.862415 2.30747 0.862415 2.84748 0.862415 3.28031 1.04693 3.60608 1.41597 3.93186 1.7849 4.0948 2.27521 4.0948 2.8869L4.0948 3.09595ZM5.06706 3.48452 5.06706 0.224035 4.0948 0.224035 4.0948 1.09099C3.87268 0.74489 3.59597 0.489061 3.26455 0.323618 2.93313 0.158176 2.52782 0.075511 2.04875 0.075511 1.44345 0.075511 0.961552 0.239818 0.603073 0.568547 0.245653 0.897275 0.0670604 1.33706 0.0670604 1.88777 0.0670604 2.5299 0.289654 3.01431 0.734958 3.34088 1.18132 3.66734 1.8464 3.83062 2.73018 3.83062L4.0948 3.83062 4.0948 3.92373C4.0948 4.35579 3.94774 4.68997 3.6535 4.92615 3.35926 5.16234 2.94607 5.28043 2.41406 5.28043 2.07581 5.28043 1.74604 5.24126 1.42486 5.16291 1.10461 5.08456 0.79696 4.96692 0.501541 4.81022L0.501541 5.67877C0.856726 5.81162 1.20168 5.91064 1.53639 5.97593 1.87122 6.04235 2.19699 6.07551 2.51382 6.07551 3.37055 6.07551 4.01021 5.86113 4.43293 5.43225 4.85576 5.0045 5.06706 4.35522 5.06706 3.48452Z" fill-rule="evenodd" transform="matrix(1 0 0 -1 899 521)"/><path d="M4.05439 3.61472 4.05439 0.0773127 3.26996 0.0773127 3.26996 3.58293C3.26996 4.13763 3.18168 4.55225 3.00532 4.8268 2.82886 5.10252 2.56459 5.24038 2.21262 5.24038 1.7888 5.24038 1.45458 5.07458 1.20987 4.74309 0.965259 4.41276 0.842905 3.96134 0.842905 3.38872L0.842905 0.0773127 0.0543901 0.0773127 0.0543901 5.93678 0.842905 5.93678 0.842905 5.02602C1.03113 5.3787 1.25221 5.6422 1.50593 5.81627 1.76061 5.99034 2.05439 6.07743 2.38728 6.07743 2.93574 6.07743 3.35045 5.86924 3.63151 5.45299 3.91343 5.03674 4.05439 4.42394 4.05439 3.61472Z" fill-rule="evenodd" transform="matrix(1 0 0 -1 906 521)"/></g></svg>