<svg width="217" height="218" xmlns="http://www.w3.org/2000/svg" xmlns:xlink="http://www.w3.org/1999/xlink" overflow="hidden"><defs><clipPath id="clip0"><path d="M199 56 416 56 416 274 199 274Z" fill-rule="evenodd" clip-rule="evenodd"/></clipPath><clipPath id="clip1"><path d="M319 197 392 197 392 273 319 273Z" fill-rule="evenodd" clip-rule="evenodd"/></clipPath><clipPath id="clip2"><path d="M319 197 392 197 392 273 319 273Z" fill-rule="evenodd" clip-rule="evenodd"/></clipPath><clipPath id="clip3"><path d="M319 197 392 197 392 273 319 273Z" fill-rule="evenodd" clip-rule="evenodd"/></clipPath><clipPath id="clip4"><path d="M362 93 415 93 415 150 362 150Z" fill-rule="evenodd" clip-rule="evenodd"/></clipPath><clipPath id="clip5"><path d="M362 93 415 93 415 150 362 150Z" fill-rule="evenodd" clip-rule="evenodd"/></clipPath><clipPath id="clip6"><path d="M362 93 415 93 415 150 362 150Z" fill-rule="evenodd" clip-rule="evenodd"/></clipPath><clipPath id="clip7"><path d="M323 63 373 63 373 115 323 115Z" fill-rule="evenodd" clip-rule="evenodd"/></clipPath><clipPath id="clip8"><path d="M323 63 373 63 373 115 323 115Z" fill-rule="evenodd" clip-rule="evenodd"/></clipPath><clipPath id="clip9"><path d="M323 63 373 63 373 115 323 115Z" fill-rule="evenodd" clip-rule="evenodd"/></clipPath><clipPath id="clip10"><path d="M266 87 315 87 315 138 266 138Z" fill-rule="evenodd" clip-rule="evenodd"/></clipPath><clipPath id="clip11"><path d="M266 87 315 87 315 138 266 138Z" fill-rule="evenodd" clip-rule="evenodd"/></clipPath><clipPath id="clip12"><path d="M266 87 315 87 315 138 266 138Z" fill-rule="evenodd" clip-rule="evenodd"/></clipPath></defs><g clip-path="url(#clip0)" transform="translate(-199 -56)"><rect x="200.5" y="58.5001" width="214" height="208" stroke="#000000" stroke-width="1.33333" stroke-miterlimit="8" fill="#F2F2F2"/><g clip-path="url(#clip1)"><g clip-path="url(#clip2)"><g clip-path="url(#clip3)"><path d="M57.7917 13.6875C57.7917 17.0472 48.2591 19.7708 36.5 19.7708 24.7409 19.7708 15.2083 17.0472 15.2083 13.6875 15.2083 10.3278 24.7409 7.60417 36.5 7.60417 48.2591 7.60417 57.7917 10.3278 57.7917 13.6875Z" fill="#404040" transform="matrix(1 0 -0 1.0411 319 197)"/><path d="M51.7083 28.8958C50.7958 28.8958 50.1875 28.2875 50.1875 27.375 50.1875 26.4625 50.7958 25.8542 51.7083 25.8542 52.6208 25.8542 53.2292 26.4625 53.2292 27.375 53.2292 28.2875 52.6208 28.8958 51.7083 28.8958ZM36.5 22.8125C24.7896 22.8125 15.2083 20.075 15.2083 16.7292L15.2083 28.8958C15.2083 32.2417 24.7896 34.9792 36.5 34.9792 48.2104 34.9792 57.7917 32.2417 57.7917 28.8958L57.7917 16.7292C57.7917 20.075 48.2104 22.8125 36.5 22.8125Z" fill="#404040" transform="matrix(1 0 -0 1.0411 319 197)"/><path d="M51.7083 44.1042C50.7958 44.1042 50.1875 43.4958 50.1875 42.5833 50.1875 41.6708 50.7958 41.0625 51.7083 41.0625 52.6208 41.0625 53.2292 41.6708 53.2292 42.5833 53.2292 43.4958 52.6208 44.1042 51.7083 44.1042ZM36.5 38.0208C24.7896 38.0208 15.2083 35.2833 15.2083 31.9375L15.2083 44.1042C15.2083 47.45 24.7896 50.1875 36.5 50.1875 48.2104 50.1875 57.7917 47.45 57.7917 44.1042L57.7917 31.9375C57.7917 35.2833 48.2104 38.0208 36.5 38.0208Z" fill="#404040" transform="matrix(1 0 -0 1.0411 319 197)"/><path d="M51.7083 59.3125C50.7958 59.3125 50.1875 58.7042 50.1875 57.7917 50.1875 56.8792 50.7958 56.2708 51.7083 56.2708 52.6208 56.2708 53.2292 56.8792 53.2292 57.7917 53.2292 58.7042 52.6208 59.3125 51.7083 59.3125ZM36.5 53.2292C24.7896 53.2292 15.2083 50.4917 15.2083 47.1458L15.2083 59.3125C15.2083 62.6583 24.7896 65.3958 36.5 65.3958 48.2104 65.3958 57.7917 62.6583 57.7917 59.3125L57.7917 47.1458C57.7917 50.4917 48.2104 53.2292 36.5 53.2292Z" fill="#404040" transform="matrix(1 0 -0 1.0411 319 197)"/></g></g></g><g clip-path="url(#clip4)"><g clip-path="url(#clip5)"><g clip-path="url(#clip6)"><path d="M26.5 48.5833C28.3788 48.5833 29.9416 47.1384 30.0885 45.2653L22.9115 45.2653C23.0584 47.1384 24.6212 48.5833 26.5 48.5833Z" stroke="#000000" stroke-width="0.552069" fill="#FF0000" transform="matrix(1 0 -0 1.07547 362 93)"/><path d="M37.3727 16.1363C36.9061 15.0098 35.6147 14.4748 34.4881 14.941L16.8214 22.2589C15.6946 22.7256 15.1596 24.0174 15.6263 25.1442 15.8505 25.6853 16.2803 26.1152 16.8214 26.3393L20.9792 28.0618 20.9792 31.4632 18.7708 31.4632 18.7708 40.8486C18.7708 42.0682 19.7596 43.057 20.9792 43.057L32.0208 43.057C33.2404 43.057 34.2292 42.0682 34.2292 40.8486L34.2292 31.4632 32.0208 31.4632 32.0208 28.0618 36.178 26.3393C37.2991 25.8591 37.8186 24.561 37.3384 23.4399 36.8664 22.3381 35.6016 21.8139 34.4886 22.2589L28.9678 24.5456C28.1416 24.8876 27.6032 25.6941 27.6042 26.5883L27.6042 31.4632 25.3958 31.4632 25.3958 26.5861C25.3968 25.6919 24.8584 24.8854 24.0322 24.5434L23.437 24.2972 36.178 19.0193C37.3033 18.5524 37.838 17.2623 37.3727 16.1363Z" stroke="#000000" stroke-width="0.552069" fill="#FF0000" transform="matrix(1 0 -0 1.07547 362 93)"/><path d="M17.6667 19.3113C17.9563 19.3113 18.243 19.2539 18.5103 19.1424L36.1769 11.8245C37.3127 11.38 37.873 10.0989 37.4284 8.96318 36.9838 7.82744 35.7028 7.26713 34.567 7.71172 34.5403 7.72216 34.5138 7.73314 34.4875 7.74462L16.8209 15.0625C15.694 15.5289 15.1584 16.8205 15.6248 17.9475 15.9666 18.7734 16.7727 19.3119 17.6667 19.3113Z" stroke="#000000" stroke-width="0.552069" fill="#FF0000" transform="matrix(1 0 -0 1.07547 362 93)"/><path d="M17.6667 12.1342C17.9563 12.1342 18.243 12.0768 18.5103 11.9653L25.2021 9.19384C26.3232 8.71359 26.8427 7.41547 26.3624 6.29436 25.8904 5.19254 24.6257 4.66842 23.5127 5.1134L16.8214 7.88541C15.6945 8.35181 15.159 9.6434 15.6254 10.7704 15.9671 11.5962 16.773 12.1346 17.6667 12.1342Z" stroke="#000000" stroke-width="0.552069" fill="#FF0000" transform="matrix(1 0 -0 1.07547 362 93)"/></g></g></g><g clip-path="url(#clip7)"><g clip-path="url(#clip8)"><g clip-path="url(#clip9)"><path d="M46.5917 36.65C46.4499 36.2244 46.0517 35.9374 45.6031 35.9375L6.09375 35.9375C5.64479 35.9369 5.24604 36.2241 5.10417 36.65L4.30156 39.0625 47.3958 39.0625Z" stroke="#000000" stroke-width="0.52081" fill="#92D050" transform="matrix(1 0 -0 1.04 323 63)"/><path d="M8.67604 16.5656 2.5401 30.7094 5.74687 33.8542 45.5906 33.8542C42.624 29.0617 38.8259 24.8372 34.375 21.3792L34.375 19.8661C34.375 19.1985 33.9508 18.6046 33.3193 18.388L31.1974 17.6589C30.662 17.4765 30.0791 17.7565 29.887 18.2885 29.4964 18.0521 29.1024 17.821 28.7052 17.5953 26.3829 16.294 23.7636 15.6153 21.1016 15.625L12.888 15.625C13.0998 15.1005 12.8543 14.5028 12.3349 14.2786L3.53646 10.501C3.00776 10.274 2.39507 10.5184 2.16797 11.0471 1.94087 11.5758 2.18536 12.1885 2.71406 12.4156L10.1896 15.625 10.1094 15.625C9.48687 15.6251 8.9238 15.9946 8.67604 16.5656ZM22.012 18.75C23.389 18.7501 24.7474 19.0677 25.9818 19.6781 26.6651 20.0361 27.3311 20.4069 27.9797 20.7906L29.6031 21.7927 28.2547 25.0276 23.7464 25.0276 23.2615 23.899C22.9836 23.2909 22.372 22.9053 21.7036 22.9167L18.3854 22.9167C17.7154 22.9035 17.1015 23.2895 16.8229 23.899L16.338 25.0276 9.86302 25.0276C9.34208 25.0278 8.91963 24.6057 8.91943 24.0847 8.91937 23.9568 8.94536 23.8301 8.99583 23.7125L9.00104 23.6995 10.8693 19.3766C11.0347 18.9958 11.4104 18.7496 11.8255 18.75Z" stroke="#000000" stroke-width="0.52081" fill="#92D050" transform="matrix(1 0 -0 1.04 323 63)"/></g></g></g><g clip-path="url(#clip10)"><g clip-path="url(#clip11)"><g clip-path="url(#clip12)"><path d="M41.3468 6.63542 41.3468 3.57292 7.65931 3.57292 7.65931 5.61458 7.65931 5.61458 7.65931 16.3333 7.65931 16.3333 7.65931 45.4271 41.3468 45.4271 41.3468 12.7604 41.3468 12.7604 41.3468 6.63542ZM24.5031 38.2813C19.0061 38.2813 14.5499 33.8251 14.5499 28.3281 14.5499 22.8311 19.0061 18.375 24.5031 18.375 30 18.375 34.4562 22.8311 34.4562 28.3281 34.4562 33.8251 30 38.2813 24.5031 38.2813ZM38.2843 12.7604 10.7218 12.7604 10.7218 6.63542 38.2843 6.63542Z" stroke="#000000" stroke-width="0.510388" fill="#9933FF" transform="matrix(1 0 -0 1.04082 266 87)"/><path d="M13.7838 8.16667 19.9088 8.16667 19.9088 11.2292 13.7838 11.2292Z" stroke="#000000" stroke-width="0.510388" fill="#9933FF" transform="matrix(1 0 -0 1.04082 266 87)"/><path d="M24.5031 20.4167C20.1337 20.4167 16.5916 23.9588 16.5916 28.3281 16.5916 32.6975 20.1337 36.2396 24.5031 36.2396 28.8724 36.2396 32.4145 32.6975 32.4145 28.3281 32.4097 23.9607 28.8704 20.4215 24.5031 20.4167ZM30.3621 28.5435C29.7541 29.1518 28.7681 29.1519 28.1598 28.5439 28.1307 28.5148 28.1027 28.4845 28.076 28.4532 27.5171 27.7954 26.5308 27.7152 25.873 28.2741 25.8085 28.3288 25.7486 28.3887 25.6939 28.4532 25.1353 29.1109 24.1493 29.1911 23.4916 28.6325 23.4271 28.5777 23.3671 28.5177 23.3123 28.4532 22.7534 27.7954 21.7671 27.7152 21.1093 28.2741 21.0448 28.3288 20.9849 28.3887 20.9301 28.4532 20.372 29.1075 19.389 29.1855 18.7347 28.6273 18.7034 28.6006 18.6731 28.5727 18.644 28.5435 18.6414 28.4716 18.6333 28.4011 18.6333 28.3281 18.6333 25.0863 21.2613 22.4583 24.5031 22.4583 27.7449 22.4583 30.3729 25.0863 30.3729 28.3281 30.3729 28.4011 30.3647 28.4716 30.3621 28.5435Z" stroke="#000000" stroke-width="0.510388" fill="#9933FF" transform="matrix(1 0 -0 1.04082 266 87)"/><path d="M27.0546 9.69792C27.0546 10.5436 26.3691 11.2292 25.5234 11.2292 24.6777 11.2292 23.9921 10.5436 23.9921 9.69792 23.9921 8.85223 24.6777 8.16667 25.5234 8.16667 26.3691 8.16667 27.0546 8.85223 27.0546 9.69792Z" stroke="#000000" stroke-width="0.510388" fill="#9933FF" transform="matrix(1 0 -0 1.04082 266 87)"/><path d="M31.6484 9.69792C31.6484 10.5436 30.9628 11.2292 30.1171 11.2292 29.2715 11.2292 28.5859 10.5436 28.5859 9.69792 28.5859 8.85223 29.2715 8.16667 30.1171 8.16667 30.9628 8.16667 31.6484 8.85223 31.6484 9.69792Z" stroke="#000000" stroke-width="0.510388" fill="#9933FF" transform="matrix(1 0 -0 1.04082 266 87)"/><path d="M36.2421 9.69792C36.2421 10.5436 35.5566 11.2292 34.7109 11.2292 33.8652 11.2292 33.1796 10.5436 33.1796 9.69792 33.1796 8.85223 33.8652 8.16667 34.7109 8.16667 35.5566 8.16667 36.2421 8.85223 36.2421 9.69792Z" stroke="#000000" stroke-width="0.510388" fill="#9933FF" transform="matrix(1 0 -0 1.04082 266 87)"/></g></g></g><rect x="264.5" y="63.5001" width="145" height="111" stroke="#000000" stroke-width="1.33333" stroke-miterlimit="8" stroke-dasharray="5.33333 4" fill="none"/><path d="M263.903 101.348 249.266 101.348 238.578 101.327 238.38 124.953" stroke="#000000" stroke-width="1.33333" stroke-miterlimit="8" stroke-dasharray="5.33333 4" fill="none" fill-rule="evenodd"/><path d="M304.77 163.304 330.678 198.993 330.138 199.384 304.23 163.696ZM332.862 195.76 334.325 204.584 326.388 200.46Z"/><path d="M346.832 143.47 351.26 193.059 350.596 193.119 346.168 143.53ZM354.793 191.405 351.52 199.729 346.825 192.117Z"/><path d="M0.322264-0.0851899 8.77511 31.891 8.13058 32.0613-0.322264 0.0851899ZM11.9792 29.6648 10.1566 38.4214 4.24492 31.7094Z" transform="matrix(-1 -8.74228e-08 -8.74228e-08 1 383.657 161.5)"/><path d="M314.951 146.873 312.174 146.873C311.93 146.93 311.687 147.101 311.541 147.328L309.689 149.661 308.13 143.346C307.984 142.834 307.497 142.492 307.058 142.663 306.814 142.777 306.571 142.947 306.473 143.289L303.55 152.335 301.552 139.818C301.455 139.249 301.016 138.908 300.578 139.022 300.285 139.079 300.042 139.363 299.896 139.705L297.8 146.873 294 146.873 294 149.149 298.434 149.149C298.824 149.092 299.165 148.751 299.262 148.295L300.48 143.971 302.429 156.204C302.478 156.659 302.819 157 303.209 157L303.306 157C303.647 157 303.988 156.772 304.135 156.374L307.253 146.816 308.52 151.937C308.666 152.449 309.104 152.79 309.592 152.619 309.738 152.562 309.884 152.449 309.981 152.335L312.613 149.149 315 149.149 315 146.873Z" fill-rule="evenodd"/><path d="M355.954 118.873 353.309 118.873C353.077 118.93 352.845 119.101 352.705 119.328L350.942 121.661 349.457 115.346C349.318 114.834 348.854 114.492 348.436 114.663 348.204 114.777 347.972 114.947 347.879 115.289L345.095 124.335 343.193 111.818C343.1 111.249 342.682 110.908 342.265 111.022 341.986 111.079 341.754 111.363 341.615 111.705L339.62 118.873 336 118.873 336 121.149 340.223 121.149C340.594 121.092 340.919 120.751 341.012 120.295L342.172 115.971 344.028 128.204C344.074 128.659 344.399 129 344.77 129L344.863 129C345.188 129 345.513 128.772 345.652 128.374L348.622 118.816 349.828 123.937C349.968 124.449 350.385 124.79 350.849 124.619 350.988 124.562 351.128 124.449 351.22 124.335L353.726 121.149 356 121.149 356 118.873Z" fill-rule="evenodd"/><path d="M388.951 150.873 386.174 150.873C385.93 150.93 385.687 151.101 385.541 151.328L383.689 153.661 382.13 147.346C381.984 146.834 381.497 146.492 381.058 146.663 380.814 146.777 380.571 146.947 380.473 147.289L377.55 156.335 375.552 143.818C375.455 143.249 375.016 142.908 374.578 143.022 374.285 143.079 374.042 143.363 373.896 143.705L371.8 150.873 368 150.873 368 153.149 372.434 153.149C372.824 153.092 373.165 152.751 373.262 152.295L374.48 147.971 376.429 160.204C376.478 160.659 376.819 161 377.209 161L377.306 161C377.647 161 377.988 160.772 378.135 160.374L381.253 150.816 382.52 155.937C382.666 156.449 383.104 156.79 383.592 156.619 383.738 156.562 383.884 156.449 383.981 156.335L386.613 153.149 389 153.149 389 150.873Z" fill-rule="evenodd"/><path d="M216.148 208 214 208 214 261 287 261 287 259.441 216.148 259.441 216.148 208Z" fill-rule="evenodd"/><path d="M246.5 236C246.5 234.067 248.067 232.5 250 232.5 251.933 232.5 253.5 234.067 253.5 236 253.5 237.933 251.933 239.5 250 239.5 248.067 239.5 246.5 237.933 246.5 236Z" stroke="#000000" stroke-width="1.33333" stroke-miterlimit="8" fill-rule="evenodd"/><path d="M261.5 211.5C261.5 209.843 263.067 208.5 265 208.5 266.933 208.5 268.5 209.843 268.5 211.5 268.5 213.157 266.933 214.5 265 214.5 263.067 214.5 261.5 213.157 261.5 211.5Z" stroke="#000000" stroke-width="1.33333" stroke-miterlimit="8" fill-rule="evenodd"/><path d="M275.5 246.5C275.5 244.843 277.067 243.5 279 243.5 280.933 243.5 282.5 244.843 282.5 246.5 282.5 248.157 280.933 249.5 279 249.5 277.067 249.5 275.5 248.157 275.5 246.5Z" stroke="#000000" stroke-width="1.33333" stroke-miterlimit="8" fill-rule="evenodd"/><path d="M0 0 11.5426 13.3708" stroke="#000000" stroke-width="2" stroke-miterlimit="8" fill="none" fill-rule="evenodd" transform="matrix(1 0 0 -1 235 251.371)"/><path d="M232.5 250.5C232.5 248.843 234.067 247.5 236 247.5 237.933 247.5 239.5 248.843 239.5 250.5 239.5 252.157 237.933 253.5 236 253.5 234.067 253.5 232.5 252.157 232.5 250.5Z" stroke="#000000" stroke-width="1.33333" stroke-miterlimit="8" fill-rule="evenodd"/><path d="M220.5 236C220.5 234.067 222.067 232.5 224 232.5 225.933 232.5 227.5 234.067 227.5 236 227.5 237.933 225.933 239.5 224 239.5 222.067 239.5 220.5 237.933 220.5 236Z" stroke="#000000" stroke-width="1.33333" stroke-miterlimit="8" fill-rule="evenodd"/><path d="M0 0 14.1188 23.6812" stroke="#000000" stroke-width="2" stroke-miterlimit="8" fill="none" fill-rule="evenodd" transform="matrix(1 0 0 -1 250 233.681)"/><path d="M224 236 234.71 249.262" stroke="#000000" stroke-width="2" stroke-miterlimit="8" fill="none" fill-rule="evenodd"/><path d="M279.872 248.816 264 212" stroke="#000000" stroke-width="2" stroke-miterlimit="8" fill="none" fill-rule="evenodd"/><path d="M293.5 238.167 320.565 238.167 320.565 238.833 293.5 238.833ZM319.232 234.5 327.232 238.5 319.232 242.5Z"/><path d="M0.333333-0.000439602 0.383964 38.3907-0.282703 38.3916-0.333333 0.000439602ZM4.04887 37.0526 0.0594226 45.0578-3.95112 37.0631Z" transform="matrix(-1 -8.74228e-08 -8.74228e-08 1 238.559 169.5)"/><path d="M217.5 147.5C217.5 135.35 226.902 125.5 238.5 125.5 250.098 125.5 259.5 135.35 259.5 147.5 259.5 159.65 250.098 169.5 238.5 169.5 226.902 169.5 217.5 159.65 217.5 147.5Z" stroke="#000000" stroke-width="1.33333" stroke-miterlimit="8" fill="none" fill-rule="evenodd"/><path d="M225.5 137.333C225.5 136.321 226.321 135.5 227.333 135.5L248.667 135.5C249.679 135.5 250.5 136.321 250.5 137.333L250.5 144.667C250.5 145.679 249.679 146.5 248.667 146.5L227.333 146.5C226.321 146.5 225.5 145.679 225.5 144.667Z" stroke="#000000" stroke-width="1.33333" stroke-miterlimit="8" fill="none" fill-rule="evenodd"/><path d="M229.5 138.5 229.5 143.743" stroke="#000000" stroke-width="3" stroke-miterlimit="8" fill="none" fill-rule="evenodd"/><path d="M233.5 138.5 233.5 143.743" stroke="#000000" stroke-width="3" stroke-miterlimit="8" fill="none" fill-rule="evenodd"/><path d="M238.5 138.5 238.5 143.743" stroke="#000000" stroke-width="3" stroke-miterlimit="8" fill="none" fill-rule="evenodd"/><path d="M242.5 138.5 242.5 143.743" stroke="#000000" stroke-width="3" stroke-miterlimit="8" fill="none" fill-rule="evenodd"/><path d="M246.5 138.5 246.5 143.743" stroke="#000000" stroke-width="3" stroke-miterlimit="8" fill="none" fill-rule="evenodd"/><path d="M241.702 148 236.675 148 235 157.38 238.435 157.38 236.061 165.995C236.061 165.997 236.062 165.999 236.064 166 236.066 166.001 236.068 165.999 236.069 165.998L243 155.129 239.482 155.129ZM241.558 155.879 238.318 160.967C238.31 160.98 238.306 160.979 238.31 160.964L239.248 157.56 239.504 156.63 235.982 156.63 237.39 148.75 240.598 148.75 238.675 154.927 238.378 155.879 241.558 155.879Z" fill-rule="evenodd"/></g></svg>