<svg width="234" height="205" xmlns="http://www.w3.org/2000/svg" xmlns:xlink="http://www.w3.org/1999/xlink" overflow="hidden"><defs><clipPath id="clip0"><path d="M47 134 281 134 281 339 47 339Z" fill-rule="evenodd" clip-rule="evenodd"/></clipPath><clipPath id="clip1"><path d="M184 266 251 266 251 335 184 335Z" fill-rule="evenodd" clip-rule="evenodd"/></clipPath><clipPath id="clip2"><path d="M184 266 251 266 251 335 184 335Z" fill-rule="evenodd" clip-rule="evenodd"/></clipPath><clipPath id="clip3"><path d="M184 266 251 266 251 335 184 335Z" fill-rule="evenodd" clip-rule="evenodd"/></clipPath><clipPath id="clip4"><path d="M221 165 274 165 274 222 221 222Z" fill-rule="evenodd" clip-rule="evenodd"/></clipPath><clipPath id="clip5"><path d="M221 165 274 165 274 222 221 222Z" fill-rule="evenodd" clip-rule="evenodd"/></clipPath><clipPath id="clip6"><path d="M221 165 274 165 274 222 221 222Z" fill-rule="evenodd" clip-rule="evenodd"/></clipPath><clipPath id="clip7"><path d="M183 138 233 138 233 190 183 190Z" fill-rule="evenodd" clip-rule="evenodd"/></clipPath><clipPath id="clip8"><path d="M183 138 233 138 233 190 183 190Z" fill-rule="evenodd" clip-rule="evenodd"/></clipPath><clipPath id="clip9"><path d="M183 138 233 138 233 190 183 190Z" fill-rule="evenodd" clip-rule="evenodd"/></clipPath><clipPath id="clip10"><path d="M118 163 167 163 167 213 118 213Z" fill-rule="evenodd" clip-rule="evenodd"/></clipPath><clipPath id="clip11"><path d="M118 163 167 163 167 213 118 213Z" fill-rule="evenodd" clip-rule="evenodd"/></clipPath><clipPath id="clip12"><path d="M118 163 167 163 167 213 118 213Z" fill-rule="evenodd" clip-rule="evenodd"/></clipPath></defs><g clip-path="url(#clip0)" transform="translate(-47 -134)"><rect x="49.5001" y="135.5" width="231" height="202" stroke="#000000" stroke-width="1.33333" stroke-miterlimit="8" fill="#F2F2F2"/><g clip-path="url(#clip1)"><g clip-path="url(#clip2)"><g clip-path="url(#clip3)"><path d="M53.0417 12.5625C53.0417 15.6461 44.2926 18.1458 33.5 18.1458 22.7074 18.1458 13.9583 15.6461 13.9583 12.5625 13.9583 9.47891 22.7074 6.97917 33.5 6.97917 44.2926 6.97917 53.0417 9.47891 53.0417 12.5625Z" fill="#404040" transform="matrix(1 0 -0 1.02985 184 266)"/><path d="M47.4583 26.5208C46.6208 26.5208 46.0625 25.9625 46.0625 25.125 46.0625 24.2875 46.6208 23.7292 47.4583 23.7292 48.2958 23.7292 48.8542 24.2875 48.8542 25.125 48.8542 25.9625 48.2958 26.5208 47.4583 26.5208ZM33.5 20.9375C22.7521 20.9375 13.9583 18.425 13.9583 15.3542L13.9583 26.5208C13.9583 29.5917 22.7521 32.1042 33.5 32.1042 44.2479 32.1042 53.0417 29.5917 53.0417 26.5208L53.0417 15.3542C53.0417 18.425 44.2479 20.9375 33.5 20.9375Z" fill="#404040" transform="matrix(1 0 -0 1.02985 184 266)"/><path d="M47.4583 40.4792C46.6208 40.4792 46.0625 39.9208 46.0625 39.0833 46.0625 38.2458 46.6208 37.6875 47.4583 37.6875 48.2958 37.6875 48.8542 38.2458 48.8542 39.0833 48.8542 39.9208 48.2958 40.4792 47.4583 40.4792ZM33.5 34.8958C22.7521 34.8958 13.9583 32.3833 13.9583 29.3125L13.9583 40.4792C13.9583 43.55 22.7521 46.0625 33.5 46.0625 44.2479 46.0625 53.0417 43.55 53.0417 40.4792L53.0417 29.3125C53.0417 32.3833 44.2479 34.8958 33.5 34.8958Z" fill="#404040" transform="matrix(1 0 -0 1.02985 184 266)"/><path d="M47.4583 54.4375C46.6208 54.4375 46.0625 53.8792 46.0625 53.0417 46.0625 52.2042 46.6208 51.6458 47.4583 51.6458 48.2958 51.6458 48.8542 52.2042 48.8542 53.0417 48.8542 53.8792 48.2958 54.4375 47.4583 54.4375ZM33.5 48.8542C22.7521 48.8542 13.9583 46.3417 13.9583 43.2708L13.9583 54.4375C13.9583 57.5083 22.7521 60.0208 33.5 60.0208 44.2479 60.0208 53.0417 57.5083 53.0417 54.4375L53.0417 43.2708C53.0417 46.3417 44.2479 48.8542 33.5 48.8542Z" fill="#404040" transform="matrix(1 0 -0 1.02985 184 266)"/></g></g></g><g clip-path="url(#clip4)"><g clip-path="url(#clip5)"><g clip-path="url(#clip6)"><path d="M26.5 48.5833C28.3788 48.5833 29.9416 47.1384 30.0885 45.2653L22.9115 45.2653C23.0584 47.1384 24.6212 48.5833 26.5 48.5833Z" stroke="#000000" stroke-width="0.552069" fill="#FF0000" transform="matrix(1 0 -0 1.07547 221 165)"/><path d="M37.3727 16.1363C36.9061 15.0098 35.6147 14.4748 34.4881 14.941L16.8214 22.2589C15.6946 22.7256 15.1596 24.0174 15.6263 25.1442 15.8505 25.6853 16.2803 26.1152 16.8214 26.3393L20.9792 28.0618 20.9792 31.4632 18.7708 31.4632 18.7708 40.8486C18.7708 42.0682 19.7596 43.057 20.9792 43.057L32.0208 43.057C33.2404 43.057 34.2292 42.0682 34.2292 40.8486L34.2292 31.4632 32.0208 31.4632 32.0208 28.0618 36.178 26.3393C37.2991 25.8591 37.8186 24.561 37.3384 23.4399 36.8664 22.3381 35.6016 21.8139 34.4886 22.2589L28.9678 24.5456C28.1416 24.8876 27.6032 25.6941 27.6042 26.5883L27.6042 31.4632 25.3958 31.4632 25.3958 26.5861C25.3968 25.6919 24.8584 24.8854 24.0322 24.5434L23.437 24.2972 36.178 19.0193C37.3033 18.5524 37.838 17.2623 37.3727 16.1363Z" stroke="#000000" stroke-width="0.552069" fill="#FF0000" transform="matrix(1 0 -0 1.07547 221 165)"/><path d="M17.6667 19.3113C17.9563 19.3113 18.243 19.2539 18.5103 19.1424L36.1769 11.8245C37.3127 11.38 37.873 10.0989 37.4284 8.96318 36.9838 7.82744 35.7028 7.26713 34.567 7.71172 34.5403 7.72216 34.5138 7.73314 34.4875 7.74462L16.8209 15.0625C15.694 15.5289 15.1584 16.8205 15.6248 17.9475 15.9666 18.7734 16.7727 19.3119 17.6667 19.3113Z" stroke="#000000" stroke-width="0.552069" fill="#FF0000" transform="matrix(1 0 -0 1.07547 221 165)"/><path d="M17.6667 12.1342C17.9563 12.1342 18.243 12.0768 18.5103 11.9653L25.2021 9.19384C26.3232 8.71359 26.8427 7.41547 26.3624 6.29436 25.8904 5.19254 24.6257 4.66842 23.5127 5.1134L16.8214 7.88541C15.6945 8.35181 15.159 9.6434 15.6254 10.7704 15.9671 11.5962 16.773 12.1346 17.6667 12.1342Z" stroke="#000000" stroke-width="0.552069" fill="#FF0000" transform="matrix(1 0 -0 1.07547 221 165)"/></g></g></g><g clip-path="url(#clip7)"><g clip-path="url(#clip8)"><g clip-path="url(#clip9)"><path d="M46.5917 36.65C46.4499 36.2244 46.0517 35.9374 45.6031 35.9375L6.09375 35.9375C5.64479 35.9369 5.24604 36.2241 5.10417 36.65L4.30156 39.0625 47.3958 39.0625Z" stroke="#000000" stroke-width="0.52081" fill="#92D050" transform="matrix(1 0 -0 1.04 183 138)"/><path d="M8.67604 16.5656 2.5401 30.7094 5.74687 33.8542 45.5906 33.8542C42.624 29.0617 38.8259 24.8372 34.375 21.3792L34.375 19.8661C34.375 19.1985 33.9508 18.6046 33.3193 18.388L31.1974 17.6589C30.662 17.4765 30.0791 17.7565 29.887 18.2885 29.4964 18.0521 29.1024 17.821 28.7052 17.5953 26.3829 16.294 23.7636 15.6153 21.1016 15.625L12.888 15.625C13.0998 15.1005 12.8543 14.5028 12.3349 14.2786L3.53646 10.501C3.00776 10.274 2.39507 10.5184 2.16797 11.0471 1.94087 11.5758 2.18536 12.1885 2.71406 12.4156L10.1896 15.625 10.1094 15.625C9.48687 15.6251 8.9238 15.9946 8.67604 16.5656ZM22.012 18.75C23.389 18.7501 24.7474 19.0677 25.9818 19.6781 26.6651 20.0361 27.3311 20.4069 27.9797 20.7906L29.6031 21.7927 28.2547 25.0276 23.7464 25.0276 23.2615 23.899C22.9836 23.2909 22.372 22.9053 21.7036 22.9167L18.3854 22.9167C17.7154 22.9035 17.1015 23.2895 16.8229 23.899L16.338 25.0276 9.86302 25.0276C9.34208 25.0278 8.91963 24.6057 8.91943 24.0847 8.91937 23.9568 8.94536 23.8301 8.99583 23.7125L9.00104 23.6995 10.8693 19.3766C11.0347 18.9958 11.4104 18.7496 11.8255 18.75Z" stroke="#000000" stroke-width="0.52081" fill="#92D050" transform="matrix(1 0 -0 1.04 183 138)"/></g></g></g><g clip-path="url(#clip10)"><g clip-path="url(#clip11)"><g clip-path="url(#clip12)"><path d="M41.3468 6.63542 41.3468 3.57292 7.65931 3.57292 7.65931 5.61458 7.65931 5.61458 7.65931 16.3333 7.65931 16.3333 7.65931 45.4271 41.3468 45.4271 41.3468 12.7604 41.3468 12.7604 41.3468 6.63542ZM24.5031 38.2813C19.0061 38.2813 14.5499 33.8251 14.5499 28.3281 14.5499 22.8311 19.0061 18.375 24.5031 18.375 30 18.375 34.4562 22.8311 34.4562 28.3281 34.4562 33.8251 30 38.2813 24.5031 38.2813ZM38.2843 12.7604 10.7218 12.7604 10.7218 6.63542 38.2843 6.63542Z" stroke="#000000" stroke-width="0.510388" fill="#9933FF" transform="matrix(1 0 -0 1.02041 118 163)"/><path d="M13.7838 8.16667 19.9088 8.16667 19.9088 11.2292 13.7838 11.2292Z" stroke="#000000" stroke-width="0.510388" fill="#9933FF" transform="matrix(1 0 -0 1.02041 118 163)"/><path d="M24.5031 20.4167C20.1337 20.4167 16.5916 23.9588 16.5916 28.3281 16.5916 32.6975 20.1337 36.2396 24.5031 36.2396 28.8724 36.2396 32.4145 32.6975 32.4145 28.3281 32.4097 23.9607 28.8704 20.4215 24.5031 20.4167ZM30.3621 28.5435C29.7541 29.1518 28.7681 29.1519 28.1598 28.5439 28.1307 28.5148 28.1027 28.4845 28.076 28.4532 27.5171 27.7954 26.5308 27.7152 25.873 28.2741 25.8085 28.3288 25.7486 28.3887 25.6939 28.4532 25.1353 29.1109 24.1493 29.1911 23.4916 28.6325 23.4271 28.5777 23.3671 28.5177 23.3123 28.4532 22.7534 27.7954 21.7671 27.7152 21.1093 28.2741 21.0448 28.3288 20.9849 28.3887 20.9301 28.4532 20.372 29.1075 19.389 29.1855 18.7347 28.6273 18.7034 28.6006 18.6731 28.5727 18.644 28.5435 18.6414 28.4716 18.6333 28.4011 18.6333 28.3281 18.6333 25.0863 21.2613 22.4583 24.5031 22.4583 27.7449 22.4583 30.3729 25.0863 30.3729 28.3281 30.3729 28.4011 30.3647 28.4716 30.3621 28.5435Z" stroke="#000000" stroke-width="0.510388" fill="#9933FF" transform="matrix(1 0 -0 1.02041 118 163)"/><path d="M27.0546 9.69792C27.0546 10.5436 26.3691 11.2292 25.5234 11.2292 24.6777 11.2292 23.9921 10.5436 23.9921 9.69792 23.9921 8.85223 24.6777 8.16667 25.5234 8.16667 26.3691 8.16667 27.0546 8.85223 27.0546 9.69792Z" stroke="#000000" stroke-width="0.510388" fill="#9933FF" transform="matrix(1 0 -0 1.02041 118 163)"/><path d="M31.6484 9.69792C31.6484 10.5436 30.9628 11.2292 30.1171 11.2292 29.2715 11.2292 28.5859 10.5436 28.5859 9.69792 28.5859 8.85223 29.2715 8.16667 30.1171 8.16667 30.9628 8.16667 31.6484 8.85223 31.6484 9.69792Z" stroke="#000000" stroke-width="0.510388" fill="#9933FF" transform="matrix(1 0 -0 1.02041 118 163)"/><path d="M36.2421 9.69792C36.2421 10.5436 35.5566 11.2292 34.7109 11.2292 33.8652 11.2292 33.1796 10.5436 33.1796 9.69792 33.1796 8.85223 33.8652 8.16667 34.7109 8.16667 35.5566 8.16667 36.2421 8.85223 36.2421 9.69792Z" stroke="#000000" stroke-width="0.510388" fill="#9933FF" transform="matrix(1 0 -0 1.02041 118 163)"/></g></g></g><rect x="116.5" y="141.5" width="156" height="109" stroke="#000000" stroke-width="1.33333" stroke-miterlimit="8" stroke-dasharray="5.33333 4" fill="none"/><path d="M115.857 178.666 100.111 178.666 94.8145 179.083 85.74 204.254" stroke="#000000" stroke-width="1.33333" stroke-miterlimit="8" stroke-dasharray="5.33333 4" fill="none" fill-rule="evenodd"/><path d="M163.738 236.267 193.51 266.669 193.034 267.135 163.262 236.733ZM195.197 263.151 197.937 271.665 189.481 268.748Z"/><path d="M204.825 218.428 214.531 261.999 213.88 262.144 204.175 218.573ZM217.82 259.901 215.655 268.579 210.012 261.64Z"/><path d="M0.323523-0.0802728 8.24048 31.8274 7.59343 31.988-0.323523 0.0802728ZM11.4781 29.6503 9.52241 38.3782 3.71359 31.5769Z" transform="matrix(-1 -8.74228e-08 -8.74228e-08 1 247.022 232.5)"/><path d="M166.951 222.873 164.174 222.873C163.93 222.93 163.687 223.101 163.541 223.328L161.689 225.661 160.13 219.346C159.984 218.834 159.497 218.492 159.058 218.663 158.814 218.777 158.571 218.947 158.473 219.289L155.55 228.335 153.552 215.818C153.455 215.249 153.016 214.908 152.578 215.022 152.285 215.079 152.042 215.363 151.896 215.705L149.8 222.873 146 222.873 146 225.149 150.434 225.149C150.824 225.092 151.165 224.751 151.262 224.295L152.48 219.971 154.429 232.204C154.478 232.659 154.819 233 155.209 233L155.306 233C155.647 233 155.988 232.772 156.135 232.374L159.253 222.816 160.52 227.937C160.666 228.449 161.104 228.79 161.592 228.619 161.738 228.562 161.884 228.449 161.981 228.335L164.613 225.149 167 225.149 167 222.873Z" fill-rule="evenodd"/><path d="M213.951 189.873 211.174 189.873C210.93 189.93 210.687 190.101 210.541 190.328L208.689 192.661 207.13 186.346C206.984 185.834 206.497 185.492 206.058 185.663 205.814 185.777 205.571 185.947 205.473 186.289L202.55 195.335 200.552 182.818C200.455 182.249 200.016 181.908 199.578 182.022 199.285 182.079 199.042 182.363 198.896 182.705L196.8 189.873 193 189.873 193 192.149 197.434 192.149C197.824 192.092 198.165 191.751 198.262 191.295L199.48 186.971 201.429 199.204C201.478 199.659 201.819 200 202.209 200L202.306 200C202.647 200 202.988 199.772 203.135 199.374L206.253 189.816 207.52 194.937C207.666 195.449 208.104 195.79 208.592 195.619 208.738 195.562 208.884 195.449 208.981 195.335L211.613 192.149 214 192.149 214 189.873Z" fill-rule="evenodd"/><path d="M247.951 221.873 245.174 221.873C244.93 221.93 244.687 222.101 244.541 222.328L242.689 224.661 241.13 218.346C240.984 217.834 240.497 217.492 240.058 217.663 239.814 217.777 239.571 217.947 239.473 218.289L236.55 227.335 234.552 214.818C234.455 214.249 234.016 213.908 233.578 214.022 233.285 214.079 233.042 214.363 232.896 214.705L230.8 221.873 227 221.873 227 224.149 231.434 224.149C231.824 224.092 232.165 223.751 232.262 223.295L233.48 218.971 235.429 231.204C235.478 231.659 235.819 232 236.209 232L236.306 232C236.647 232 236.988 231.772 237.135 231.374L240.253 221.816 241.52 226.937C241.666 227.449 242.104 227.79 242.592 227.619 242.738 227.562 242.884 227.449 242.981 227.335L245.613 224.149 248 224.149 248 221.873Z" fill-rule="evenodd"/><path d="M71.148 277 69 277 69 330 142 330 142 328.441 71.148 328.441 71.148 277Z" fill-rule="evenodd"/><path d="M100.5 304.5C100.5 302.843 102.067 301.5 104 301.5 105.933 301.5 107.5 302.843 107.5 304.5 107.5 306.157 105.933 307.5 104 307.5 102.067 307.5 100.5 306.157 100.5 304.5Z" stroke="#000000" stroke-width="1.33333" stroke-miterlimit="8" fill-rule="evenodd"/><path d="M116.5 280.5C116.5 278.843 118.067 277.5 120 277.5 121.933 277.5 123.5 278.843 123.5 280.5 123.5 282.157 121.933 283.5 120 283.5 118.067 283.5 116.5 282.157 116.5 280.5Z" stroke="#000000" stroke-width="1.33333" stroke-miterlimit="8" fill-rule="evenodd"/><path d="M130.5 315.5C130.5 313.843 132.067 312.5 134 312.5 135.933 312.5 137.5 313.843 137.5 315.5 137.5 317.157 135.933 318.5 134 318.5 132.067 318.5 130.5 317.157 130.5 315.5Z" stroke="#000000" stroke-width="1.33333" stroke-miterlimit="8" fill-rule="evenodd"/><path d="M0 0 11.5426 13.3708" stroke="#000000" stroke-width="2" stroke-miterlimit="8" fill="none" fill-rule="evenodd" transform="matrix(1 0 0 -1 90 319.371)"/><path d="M87.5001 319C87.5001 317.067 89.0671 315.5 91.0001 315.5 92.9331 315.5 94.5001 317.067 94.5001 319 94.5001 320.933 92.9331 322.5 91.0001 322.5 89.0671 322.5 87.5001 320.933 87.5001 319Z" stroke="#000000" stroke-width="1.33333" stroke-miterlimit="8" fill-rule="evenodd"/><path d="M75.5001 304.5C75.5001 302.843 77.0671 301.5 79.0001 301.5 80.9331 301.5 82.5001 302.843 82.5001 304.5 82.5001 306.157 80.9331 307.5 79.0001 307.5 77.0671 307.5 75.5001 306.157 75.5001 304.5Z" stroke="#000000" stroke-width="1.33333" stroke-miterlimit="8" fill-rule="evenodd"/><path d="M0 0 14.1188 23.6812" stroke="#000000" stroke-width="2" stroke-miterlimit="8" fill="none" fill-rule="evenodd" transform="matrix(1 0 0 -1 105 302.681)"/><path d="M79 305 89.7097 318.262" stroke="#000000" stroke-width="2" stroke-miterlimit="8" fill="none" fill-rule="evenodd"/><path d="M134.872 316.816 119 280" stroke="#000000" stroke-width="2" stroke-miterlimit="8" fill="none" fill-rule="evenodd"/><path d="M146.502 306.167 184.034 306.429 184.029 307.095 146.498 306.833ZM182.726 302.753 190.698 306.809 182.67 310.753Z"/><path d="M0.333333-0.000439602 0.383964 38.3907-0.282703 38.3916-0.333333 0.000439602ZM4.04887 37.0526 0.0594226 45.0578-3.95112 37.0631Z" transform="matrix(-1 -8.74228e-08 -8.74228e-08 1 84.5595 247.5)"/><path d="M63.5001 225.5C63.5001 213.35 72.9021 203.5 84.5001 203.5 96.098 203.5 105.5 213.35 105.5 225.5 105.5 237.65 96.098 247.5 84.5001 247.5 72.9021 247.5 63.5001 237.65 63.5001 225.5Z" stroke="#000000" stroke-width="1.33333" stroke-miterlimit="8" fill="none" fill-rule="evenodd"/><path d="M71.5001 216.167C71.5001 215.246 72.2463 214.5 73.1667 214.5L94.8334 214.5C95.7538 214.5 96.5001 215.246 96.5001 216.167L96.5001 222.833C96.5001 223.754 95.7538 224.5 94.8334 224.5L73.1667 224.5C72.2463 224.5 71.5001 223.754 71.5001 222.833Z" stroke="#000000" stroke-width="1.33333" stroke-miterlimit="8" fill="none" fill-rule="evenodd"/><path d="M75.5001 217.5 75.5002 222.743" stroke="#000000" stroke-width="3" stroke-miterlimit="8" fill="none" fill-rule="evenodd"/><path d="M79.5001 217.5 79.5002 222.743" stroke="#000000" stroke-width="3" stroke-miterlimit="8" fill="none" fill-rule="evenodd"/><path d="M84.5001 217.5 84.5002 222.743" stroke="#000000" stroke-width="3" stroke-miterlimit="8" fill="none" fill-rule="evenodd"/><path d="M88.5001 216.5 88.5002 221.743" stroke="#000000" stroke-width="3" stroke-miterlimit="8" fill="none" fill-rule="evenodd"/><path d="M92.5001 216.5 92.5002 221.743" stroke="#000000" stroke-width="3" stroke-miterlimit="8" fill="none" fill-rule="evenodd"/><path d="M87.864 226 83.466 226 82 235.901 85.0053 235.901 82.9287 244.995C82.928 244.997 82.929 244.999 82.9309 245 82.9328 245.001 82.9349 244.999 82.9356 244.997L89.0001 233.525 85.9215 233.525ZM87.7382 234.317 84.903 239.687C84.8961 239.701 84.8928 239.7 84.8964 239.684L85.7171 236.091 85.9414 235.109 82.8594 235.109 84.0908 226.792 86.8986 226.792 85.2156 233.312 84.9561 234.317 87.7382 234.317Z" fill-rule="evenodd"/></g></svg>