<?xml version="1.0" encoding="UTF-8" standalone="no"?>
<!-- Created with Inkscape (http://www.inkscape.org/) -->

<svg
   xmlns:dc="http://purl.org/dc/elements/1.1/"
   xmlns:cc="http://creativecommons.org/ns#"
   xmlns:rdf="http://www.w3.org/1999/02/22-rdf-syntax-ns#"
   xmlns:svg="http://www.w3.org/2000/svg"
   xmlns="http://www.w3.org/2000/svg"
   xmlns:sodipodi="http://sodipodi.sourceforge.net/DTD/sodipodi-0.dtd"
   xmlns:inkscape="http://www.inkscape.org/namespaces/inkscape"
   id="svg3004"
   version="1.1"
   inkscape:version="0.48.4 r9939"
   width="722.84747"
   height="169.00392"
   xml:space="preserve"
   sodipodi:docname="pipeline2.svg"
   inkscape:export-filename="/home/dk3810/Dropbox/MyWork/imperial/PhD/writing/posters/NILMTK_BuildSys2014/pipeline2.png"
   inkscape:export-xdpi="131.23"
   inkscape:export-ydpi="131.23"><metadata
     id="metadata3010"><rdf:RDF><cc:Work
         rdf:about=""><dc:format>image/svg+xml</dc:format><dc:type
           rdf:resource="http://purl.org/dc/dcmitype/StillImage" /><dc:title></dc:title></cc:Work></rdf:RDF></metadata><defs
     id="defs3008"><marker
       inkscape:stockid="Arrow1Lstart"
       orient="auto"
       refY="0"
       refX="0"
       id="Arrow1Lstart"
       style="overflow:visible"><path
         id="path4216"
         d="M 0,0 5,-5 -12.5,0 5,5 0,0 z"
         style="fill-rule:evenodd;stroke:#000000;stroke-width:1pt"
         transform="matrix(0.8,0,0,0.8,10,0)"
         inkscape:connector-curvature="0" /></marker><marker
       inkscape:stockid="Arrow1Send"
       orient="auto"
       refY="0"
       refX="0"
       id="Arrow1Send"
       style="overflow:visible"><path
         id="path4231"
         d="M 0,0 5,-5 -12.5,0 5,5 0,0 z"
         style="fill-rule:evenodd;stroke:#000000;stroke-width:1pt"
         transform="matrix(-0.2,0,0,-0.2,-1.2,0)"
         inkscape:connector-curvature="0" /></marker><marker
       inkscape:stockid="Arrow1Lend"
       orient="auto"
       refY="0"
       refX="0"
       id="Arrow1Lend"
       style="overflow:visible"><path
         id="path4219"
         d="M 0,0 5,-5 -12.5,0 5,5 0,0 z"
         style="fill-rule:evenodd;stroke:#000000;stroke-width:1pt"
         transform="matrix(-0.8,0,0,-0.8,-10,0)"
         inkscape:connector-curvature="0" /></marker><clipPath
       clipPathUnits="userSpaceOnUse"
       id="clipPath3020"><path
         d="m 0,0 418579,0 0,73777 L 0,73777 0,0 z"
         id="path3022"
         inkscape:connector-curvature="0" /></clipPath><marker
       inkscape:stockid="Arrow1Lend"
       orient="auto"
       refY="0"
       refX="0"
       id="Arrow1Lend-6"
       style="overflow:visible"><path
         inkscape:connector-curvature="0"
         id="path4219-5"
         d="M 0,0 5,-5 -12.5,0 5,5 0,0 z"
         style="fill-rule:evenodd;stroke:#000000;stroke-width:1pt"
         transform="matrix(-0.8,0,0,-0.8,-10,0)" /></marker><marker
       inkscape:stockid="Arrow1Lend"
       orient="auto"
       refY="0"
       refX="0"
       id="Arrow1Lend-67"
       style="overflow:visible"><path
         inkscape:connector-curvature="0"
         id="path4219-6"
         d="M 0,0 5,-5 -12.5,0 5,5 0,0 z"
         style="fill-rule:evenodd;stroke:#000000;stroke-width:1pt"
         transform="matrix(-0.8,0,0,-0.8,-10,0)" /></marker><marker
       inkscape:stockid="Arrow1Lend"
       orient="auto"
       refY="0"
       refX="0"
       id="Arrow1Lend-7"
       style="overflow:visible"><path
         inkscape:connector-curvature="0"
         id="path4219-7"
         d="M 0,0 5,-5 -12.5,0 5,5 0,0 z"
         style="fill-rule:evenodd;stroke:#000000;stroke-width:1pt"
         transform="matrix(-0.8,0,0,-0.8,-10,0)" /></marker><marker
       inkscape:stockid="Arrow1Lend"
       orient="auto"
       refY="0"
       refX="0"
       id="Arrow1Lend-4"
       style="overflow:visible"><path
         inkscape:connector-curvature="0"
         id="path4219-3"
         d="M 0,0 5,-5 -12.5,0 5,5 0,0 z"
         style="fill-rule:evenodd;stroke:#000000;stroke-width:1pt"
         transform="matrix(-0.8,0,0,-0.8,-10,0)" /></marker><marker
       inkscape:stockid="Arrow1Lend"
       orient="auto"
       refY="0"
       refX="0"
       id="Arrow1Lend-2"
       style="overflow:visible"><path
         inkscape:connector-curvature="0"
         id="path4219-8"
         d="M 0,0 5,-5 -12.5,0 5,5 0,0 z"
         style="fill-rule:evenodd;stroke:#000000;stroke-width:1pt"
         transform="matrix(-0.8,0,0,-0.8,-10,0)" /></marker><marker
       inkscape:stockid="Arrow1Lend"
       orient="auto"
       refY="0"
       refX="0"
       id="Arrow1Lend-5"
       style="overflow:visible"><path
         inkscape:connector-curvature="0"
         id="path4219-61"
         d="M 0,0 5,-5 -12.5,0 5,5 0,0 z"
         style="fill-rule:evenodd;stroke:#000000;stroke-width:1pt"
         transform="matrix(-0.8,0,0,-0.8,-10,0)" /></marker></defs><sodipodi:namedview
     pagecolor="#ffffff"
     bordercolor="#666666"
     borderopacity="1"
     objecttolerance="10"
     gridtolerance="10"
     guidetolerance="10"
     inkscape:pageopacity="0"
     inkscape:pageshadow="2"
     inkscape:window-width="1920"
     inkscape:window-height="1056"
     id="namedview3006"
     showgrid="false"
     inkscape:zoom="1.2062915"
     inkscape:cx="453.57213"
     inkscape:cy="31.300415"
     inkscape:window-x="0"
     inkscape:window-y="24"
     inkscape:window-maximized="1"
     inkscape:current-layer="g3018"
     showguides="false"
     inkscape:guide-bbox="true"
     fit-margin-top="0"
     fit-margin-left="0"
     fit-margin-right="0"
     fit-margin-bottom="0"><sodipodi:guide
       orientation="0,1"
       position="404.10258,25.448817"
       id="guide5425" /><sodipodi:guide
       orientation="0,1"
       position="392.37894,1.4153411"
       id="guide5427" /><sodipodi:guide
       orientation="0,1"
       position="428.72224,16.656082"
       id="guide5429" /><sodipodi:guide
       orientation="0,1"
       position="549.4758,45.965199"
       id="guide5431" /></sodipodi:namedview><g
     id="g3012"
     inkscape:groupmode="layer"
     inkscape:label="pipeline2"
     transform="matrix(1.25,0,0,-1.25,-5.6388672,175.79512)"><g
       id="g7893"><g
         transform="matrix(1,0,0,-1,0,145)"
         id="g3014"><g
           transform="scale(0.0019685,0.0019685)"
           id="g3016"><g
             clip-path="url(#clipPath3020)"
             id="g3018"><g
               id="g3024"><g
                 id="g3026"><path
                   inkscape:connector-curvature="0"
                   id="path3028"
                   style="fill:#000000;fill-opacity:0;fill-rule:nonzero;stroke:none"
                   d="m 0,0 418579,0 0,73777 L 0,73777 0,0 z" /></g></g><g
               transform="matrix(1,0,0,1.0986614,3502.7493,-6586.9582)"
               id="g3044"><path
                 inkscape:connector-curvature="0"
                 id="path3046"
                 style="fill:#ffffff;fill-opacity:1;fill-rule:nonzero;stroke:none"
                 d="m 66678,53657 43692,0 0,16140 -43692,0 0,-16140 z" /><path
                 inkscape:connector-curvature="0"
                 id="path3048"
                 style="fill:none;stroke:#000000;stroke-width:762;stroke-linecap:butt;stroke-linejoin:round;stroke-miterlimit:14.3355875;stroke-opacity:1;stroke-dasharray:none"
                 d="m 66678,53657 43692,0 0,16140 -43692,0 0,-16140 z" /></g><g
               transform="scale(381,381)"
               id="g3058" /><g
               transform="translate(3502.7493,336.90099)"
               id="g3060"><g
                 id="g3062"><path
                   inkscape:connector-curvature="0"
                   id="path3064"
                   style="fill:#000000;fill-opacity:0;fill-rule:nonzero;stroke:none"
                   d="m 134568,52592 53760,0 0,17532 -53760,0 0,-17532 z" /></g><path
                 inkscape:connector-curvature="0"
                 id="path3066"
                 style="fill:none;stroke:#000000;stroke-width:762;stroke-linecap:butt;stroke-linejoin:round;stroke-miterlimit:14.3355875;stroke-opacity:1;stroke-dasharray:none"
                 d="m 134568,52592 53760,0 0,17532 -53760,0 0,-17532 z" /></g><g
               transform="scale(381,381)"
               id="g3076" /><g
               transform="translate(-1261.7497,2004.4758)"
               id="g3078"><g
                 id="g3080"><path
                   inkscape:connector-curvature="0"
                   id="path3082"
                   style="fill:#000000;fill-opacity:0;fill-rule:nonzero;stroke:none"
                   d="m 145992,11841.706 37008,0 0,16140.001 -37008,0 0,-16140.001 z" /></g><path
                 inkscape:connector-curvature="0"
                 id="path3084"
                 style="fill:none;stroke:#000000;stroke-width:762;stroke-linecap:butt;stroke-linejoin:round;stroke-miterlimit:14.3355875;stroke-opacity:1;stroke-dasharray:none"
                 d="m 145992,11841.706 37008,0 0,16140.001 -37008,0 0,-16140.001 z" /></g><g
               transform="scale(381,381)"
               id="g3094" /><g
               transform="matrix(1,0,0,1.0986614,3502.7493,-5731.9788)"
               id="g3096"><g
                 id="g3098"><path
                   inkscape:connector-curvature="0"
                   id="path3100"
                   style="fill:#000000;fill-opacity:0;fill-rule:nonzero;stroke:none"
                   d="m 212594,53229.5 25620,0 0,16140 -25620,0 0,-16140 z" /></g><path
                 inkscape:connector-curvature="0"
                 id="path3102"
                 style="fill:none;stroke:#000000;stroke-width:762;stroke-linecap:butt;stroke-linejoin:round;stroke-miterlimit:14.3355875;stroke-opacity:1;stroke-dasharray:none"
                 d="m 212594,53229.5 25620,0 0,16140 -25620,0 0,-16140 z" /></g><g
               transform="scale(381,381)"
               id="g3112" /><g
               transform="scale(381,381)"
               id="g3130" /><g
               transform="scale(381,381)"
               id="g3148" /><g
               id="g3150"><g
                 id="g3152"><path
                   inkscape:connector-curvature="0"
                   id="path3154"
                   style="fill:#000000;fill-opacity:0;fill-rule:nonzero;stroke:none"
                   d="m 40237,39293 53076,0 0,13092 -53076,0 0,-13092 z" /></g></g><g
               transform="scale(381,381)"
               id="g3164" /><g
               transform="matrix(1.2025389,0,0,1,-671.41654,12192.025)"
               id="g3166"><g
                 id="g3168"><path
                   inkscape:connector-curvature="0"
                   id="path3170"
                   style="fill:#000000;fill-opacity:0;fill-rule:nonzero;stroke:none"
                   d="m 3696,5467.088 35700,0 0,11802.872 -35700,0 0,-11802.872 z" /></g><path
                 inkscape:connector-curvature="0"
                 id="path3172"
                 style="fill:none;stroke:#000000;stroke-width:741.19927979;stroke-linecap:butt;stroke-linejoin:round;stroke-miterlimit:14.3355875;stroke-opacity:1;stroke-dasharray:none"
                 d="m 3696,5467.088 35700,0 0,11802.872 -35700,0 0,-11802.872 z" /></g><g
               transform="matrix(381,0,0,381,4288.0496,11715.575)"
               id="g3174"><g
                 transform="translate(9.700788,14.349312)"
                 id="g3176"><text
                   id="text3178"
                   transform="translate(23.26535,21.629335)"><tspan
                     id="tspan3180"
                     sodipodi:role="line"
                     y="0"
                     x="0 11.544001 22.117334 34.632"
                     style="font-size:17.33333397px;font-variant:normal;font-weight:normal;writing-mode:lr-tb;fill:#000000;fill-opacity:1;fill-rule:nonzero;stroke:none;font-family:TimesNewRomanPSMT;-inkscape-font-specification:TimesNewRomanPSMT">REDD</tspan></text>
</g></g><g
               transform="scale(381,381)"
               id="g3182" /><g
               transform="matrix(1.1839753,0,0,0.59885776,-509.67145,20466.359)"
               id="g3184"><g
                 id="g3186"><path
                   inkscape:connector-curvature="0"
                   id="path3188"
                   style="fill:#000000;fill-opacity:0;fill-rule:nonzero;stroke:none"
                   d="m 3042,21007.924 37008,0 0,11802.873 -37008,0 0,-11802.873 z" /></g><path
                 inkscape:connector-curvature="0"
                 id="path3190"
                 style="fill:none;stroke:#000000;stroke-width:965.27575684;stroke-linecap:butt;stroke-linejoin:round;stroke-miterlimit:14.3355875;stroke-opacity:1;stroke-dasharray:none"
                 d="m 3160.0622,21125.986 36771.8758,0 0,20381.073 -36771.8758,0 0,-20381.073 z" /></g><g
               transform="matrix(381,0,0,381,-1905.7998,11953.8)"
               id="g3192"><g
                 transform="translate(7.984252,55.138905)"
                 id="g3194"><text
                   id="text3196"
                   transform="translate(14.38448,21.629335)"><tspan
                     y="0"
                     id="tspan3198"
                     sodipodi:role="line"
                     x="0"
                     style="font-size:17.33333397px;font-variant:normal;font-weight:normal;writing-mode:lr-tb;fill:#000000;fill-opacity:1;fill-rule:nonzero;stroke:none;font-family:TimesNewRomanPSMT;-inkscape-font-specification:TimesNewRomanPSMT">WikiEnergy</tspan></text>
</g></g><g
               transform="scale(381,381)"
               id="g3200" /><g
               transform="translate(3502.7493,336.90099)"
               id="g3202"><g
                 id="g3204"><path
                   inkscape:connector-curvature="0"
                   id="path3206"
                   style="fill:#000000;fill-opacity:0;fill-rule:nonzero;stroke:none"
                   d="m 67721,13299 59616,0 0,22584 -59616,0 0,-22584 z" /></g></g><g
               transform="scale(381,381)"
               id="g3220" /><g
               transform="matrix(1,0,0,1.0563779,-119659.56,-2673.8201)"
               id="g3222"><g
                 id="g3224"><path
                   inkscape:connector-curvature="0"
                   id="path3226"
                   style="fill:#000000;fill-opacity:0;fill-rule:nonzero;stroke:none"
                   d="m 385696,53039 29640,0 0,16140 -29640,0 0,-16140 z" /></g><path
                 inkscape:connector-curvature="0"
                 id="path3228"
                 style="fill:none;stroke:#000000;stroke-width:762;stroke-linecap:butt;stroke-linejoin:round;stroke-miterlimit:14.3355875;stroke-opacity:1;stroke-dasharray:none"
                 d="m 385696,53039 29640,0 0,16140 -29640,0 0,-16140 z" /></g><g
               transform="scale(381,381)"
               id="g3238" /><g
               transform="matrix(1.164774,0,0,0.58329511,-416.38653,29243.933)"
               id="g3240"><g
                 id="g3242"><path
                   inkscape:connector-curvature="0"
                   id="path3244"
                   style="fill:#000000;fill-opacity:0;fill-rule:nonzero;stroke:none"
                   d="m 2818,52266 37008,0 0,17532 -37008,0 0,-17532 z" /></g><path
                 inkscape:connector-curvature="0"
                 id="path3246"
                 style="fill:none;stroke:#000000;stroke-width:986.09680176;stroke-linecap:butt;stroke-linejoin:round;stroke-miterlimit:14.3355875;stroke-opacity:1;stroke-dasharray:none"
                 d="m 2818,52266 37008,0 0,17532 -37008,0 0,-17532 z" /></g><g
               transform="matrix(381,0,0,381,2144.0248,0)"
               id="g3248"><g
                 transform="translate(7.3963256,137.1811)"
                 id="g3250"><text
                   id="text3252"
                   transform="translate(32.689854,18.647873)"><tspan
                     y="0"
                     id="tspan3254"
                     sodipodi:role="line"
                     x="0"
                     style="font-size:17.33333397px;font-variant:normal;font-weight:normal;writing-mode:lr-tb;fill:#000000;fill-opacity:1;fill-rule:nonzero;stroke:none;font-family:TimesNewRomanPSMT;-inkscape-font-specification:TimesNewRomanPSMT"> </tspan></text>
<text
                   style="font-size:12px"
                   y="39.647873"
                   x="21.721039"
                   id="text3256"><tspan
                     y="39.647873"
                     x="21.721039"
                     id="tspan3258"
                     sodipodi:role="line"
                     style="font-size:17.33333397px;font-variant:normal;font-weight:normal;writing-mode:lr-tb;fill:#000000;fill-opacity:1;fill-rule:nonzero;stroke:none;font-family:TimesNewRomanPSMT;-inkscape-font-specification:TimesNewRomanPSMT">AMPds</tspan></text>
</g></g><g
               transform="scale(381,381)"
               id="g3260" /><g
               transform="translate(4526.2746,10524.449)"
               id="g3262"><path
                 inkscape:connector-curvature="0"
                 id="path3264"
                 style="fill:#000000;fill-opacity:1;fill-rule:nonzero;stroke:none"
                 d="m 19588,37618 0,0 c 0,-410.9 333.1,-744 744,-744 l 0,0 c 197.32,0 386.56,78.387 526.088,217.914 139.527,139.526 217.912,328.766 217.912,526.086 l 0,0 c 0,410.9 -333.1,744 -744,744 l 0,0 c -410.9,0 -744,-333.1 -744,-744 z" /><path
                 inkscape:connector-curvature="0"
                 id="path3266"
                 style="fill:none;stroke:#000000;stroke-width:762;stroke-linecap:butt;stroke-linejoin:round;stroke-miterlimit:14.3355875;stroke-opacity:1;stroke-dasharray:none"
                 d="m 19588,37618 0,0 c 0,-410.9 333.1,-744 744,-744 l 0,0 c 197.32,0 386.56,78.387 526.088,217.914 139.527,139.526 217.912,328.766 217.912,526.086 l 0,0 c 0,410.9 -333.1,744 -744,744 l 0,0 c -410.9,0 -744,-333.1 -744,-744 z" /></g><g
               transform="translate(4526.2746,10524.449)"
               id="g3268"><path
                 inkscape:connector-curvature="0"
                 id="path3270"
                 style="fill:#000000;fill-opacity:1;fill-rule:nonzero;stroke:none"
                 d="m 19588,41631 0,0 c 0,-410.9 333.1,-744 744,-744 l 0,0 c 197.32,0 386.56,78.387 526.088,217.914 139.527,139.526 217.912,328.766 217.912,526.086 l 0,0 c 0,410.9 -333.1,744 -744,744 l 0,0 c -410.9,0 -744,-333.1 -744,-744 z" /><path
                 inkscape:connector-curvature="0"
                 id="path3272"
                 style="fill:none;stroke:#000000;stroke-width:762;stroke-linecap:butt;stroke-linejoin:round;stroke-miterlimit:14.3355875;stroke-opacity:1;stroke-dasharray:none"
                 d="m 19588,41631 0,0 c 0,-410.9 333.1,-744 744,-744 l 0,0 c 197.32,0 386.56,78.387 526.088,217.914 139.527,139.526 217.912,328.766 217.912,526.086 l 0,0 c 0,410.9 -333.1,744 -744,744 l 0,0 c -410.9,0 -744,-333.1 -744,-744 z" /></g><g
               transform="translate(4526.2746,10524.449)"
               id="g3274"><path
                 inkscape:connector-curvature="0"
                 id="path3276"
                 style="fill:#000000;fill-opacity:1;fill-rule:nonzero;stroke:none"
                 d="m 19588,45839 0,0 c 0,-410.9 333.1,-744 744,-744 l 0,0 c 197.32,0 386.56,78.387 526.088,217.914 139.527,139.526 217.912,328.766 217.912,526.086 l 0,0 c 0,410.9 -333.1,744 -744,744 l 0,0 c -410.9,0 -744,-333.1 -744,-744 z" /><path
                 inkscape:connector-curvature="0"
                 id="path3278"
                 style="fill:none;stroke:#000000;stroke-width:762;stroke-linecap:butt;stroke-linejoin:round;stroke-miterlimit:14.3355875;stroke-opacity:1;stroke-dasharray:none"
                 d="m 19588,45839 0,0 c 0,-410.9 333.1,-744 744,-744 l 0,0 c 197.32,0 386.56,78.387 526.088,217.914 139.527,139.526 217.912,328.766 217.912,526.086 l 0,0 c 0,410.9 -333.1,744 -744,744 l 0,0 c -410.9,0 -744,-333.1 -744,-744 z" /></g><text
               sodipodi:linespacing="125%"
               id="text3412"
               y="6957.1538"
               x="24537.174"
               style="font-size:6502.41308594px;font-style:normal;font-variant:normal;font-weight:normal;font-stretch:normal;text-indent:0;text-align:center;text-decoration:none;line-height:125%;letter-spacing:0px;word-spacing:0px;text-transform:none;direction:ltr;block-progression:tb;writing-mode:lr-tb;text-anchor:middle;baseline-shift:baseline;color:#000000;fill:#000000;fill-opacity:1;fill-rule:nonzero;stroke:none;stroke-width:0.93749815px;marker:none;visibility:visible;display:inline;overflow:visible;enable-background:accumulate;font-family:Sans;-inkscape-font-specification:Sans"
               xml:space="preserve"><tspan
                 y="6957.1538"
                 x="24537.174"
                 id="tspan3414"
                 sodipodi:role="line">Data set</tspan><tspan
                 id="tspan3416"
                 y="15085.17"
                 x="24537.172"
                 sodipodi:role="line">converters</tspan></text>
<text
               sodipodi:linespacing="125%"
               id="text3418"
               y="64468.047"
               x="92598.898"
               style="font-size:6502.41308594px;font-style:normal;font-variant:normal;font-weight:normal;font-stretch:normal;text-indent:0;text-align:center;text-decoration:none;line-height:125%;letter-spacing:0px;word-spacing:0px;text-transform:none;direction:ltr;block-progression:tb;writing-mode:lr-tb;text-anchor:middle;baseline-shift:baseline;color:#000000;fill:#000000;fill-opacity:1;fill-rule:nonzero;stroke:none;stroke-width:0.93749815px;marker:none;visibility:visible;display:inline;overflow:visible;enable-background:accumulate;font-family:Sans;-inkscape-font-specification:Sans"
               xml:space="preserve"><tspan
                 y="64468.047"
                 x="92598.898"
                 id="tspan3420"
                 sodipodi:role="line">NILMTK-DF</tspan></text>
<text
               sodipodi:linespacing="125%"
               id="text3422"
               y="63991.598"
               x="165257.48"
               style="font-size:6502.41308594px;font-style:normal;font-variant:normal;font-weight:normal;font-stretch:normal;text-indent:0;text-align:center;text-decoration:none;line-height:125%;letter-spacing:0px;word-spacing:0px;text-transform:none;direction:ltr;block-progression:tb;writing-mode:lr-tb;text-anchor:middle;baseline-shift:baseline;color:#000000;fill:#000000;fill-opacity:1;fill-rule:nonzero;stroke:none;stroke-width:0.93749815px;marker:none;visibility:visible;display:inline;overflow:visible;enable-background:accumulate;font-family:Sans;-inkscape-font-specification:Sans"
               xml:space="preserve"><tspan
                 y="63991.598"
                 x="165257.48"
                 id="tspan3424"
                 sodipodi:role="line">Preprocessing</tspan></text>
<text
               sodipodi:linespacing="125%"
               id="text3426"
               y="23731.576"
               x="162637.03"
               style="font-size:6502.41308594px;font-style:normal;font-variant:normal;font-weight:normal;font-stretch:normal;text-indent:0;text-align:center;text-decoration:none;line-height:125%;letter-spacing:0px;word-spacing:0px;text-transform:none;direction:ltr;block-progression:tb;writing-mode:lr-tb;text-anchor:middle;baseline-shift:baseline;color:#000000;fill:#000000;fill-opacity:1;fill-rule:nonzero;stroke:none;stroke-width:0.93749815px;marker:none;visibility:visible;display:inline;overflow:visible;enable-background:accumulate;font-family:Sans;-inkscape-font-specification:Sans"
               xml:space="preserve"><tspan
                 y="23731.576"
                 x="162637.03"
                 id="tspan3428"
                 sodipodi:role="line">Statistics</tspan></text>
<text
               sodipodi:linespacing="125%"
               id="text3434"
               y="64089.723"
               x="228148.89"
               style="font-size:6502.41308594px;font-style:normal;font-variant:normal;font-weight:normal;font-stretch:normal;text-indent:0;text-align:center;text-decoration:none;line-height:125%;letter-spacing:0px;word-spacing:0px;text-transform:none;direction:ltr;block-progression:tb;writing-mode:lr-tb;text-anchor:middle;baseline-shift:baseline;color:#000000;fill:#000000;fill-opacity:1;fill-rule:nonzero;stroke:none;stroke-width:0.93749815px;marker:none;visibility:visible;display:inline;overflow:visible;enable-background:accumulate;font-family:Sans;-inkscape-font-specification:Sans"
               xml:space="preserve"><tspan
                 y="64089.723"
                 x="228148.89"
                 id="tspan3436"
                 sodipodi:role="line">NILM</tspan></text>
<text
               sodipodi:linespacing="125%"
               id="text3438"
               y="64902.527"
               x="281273.06"
               style="font-size:6502.41308594px;font-style:normal;font-variant:normal;font-weight:normal;font-stretch:normal;text-indent:0;text-align:center;text-decoration:none;line-height:125%;letter-spacing:0px;word-spacing:0px;text-transform:none;direction:ltr;block-progression:tb;writing-mode:lr-tb;text-anchor:middle;baseline-shift:baseline;color:#000000;fill:#000000;fill-opacity:1;fill-rule:nonzero;stroke:none;stroke-width:0.93749815px;marker:none;visibility:visible;display:inline;overflow:visible;enable-background:accumulate;font-family:Sans;-inkscape-font-specification:Sans"
               xml:space="preserve"><tspan
                 y="64902.527"
                 x="281273.06"
                 id="tspan3440"
                 sodipodi:role="line">Metrics</tspan></text>
<path
               inkscape:connector-curvature="0"
               id="path3442"
               d="m 113557.12,61132.899 23595.41,0 0,0"
               style="fill:none;stroke:#000000;stroke-width:812.80163574;stroke-linecap:butt;stroke-linejoin:miter;stroke-miterlimit:4;stroke-opacity:1;stroke-dasharray:none;marker-end:url(#Arrow1Lend)" /><path
               inkscape:connector-curvature="0"
               id="path3442-5"
               d="m 191575.78,61609.35 23595.46,0 0,0"
               style="fill:none;stroke:#000000;stroke-width:812.80328369;stroke-linecap:butt;stroke-linejoin:miter;stroke-miterlimit:4;stroke-opacity:1;stroke-dasharray:none;marker-end:url(#Arrow1Lend)" /><path
               inkscape:connector-curvature="0"
               id="path3442-6"
               d="m 241841.25,61609.349 23595.46,0 0,0"
               style="fill:none;stroke:#000000;stroke-width:812.80328369;stroke-linecap:butt;stroke-linejoin:miter;stroke-miterlimit:4;stroke-opacity:1;stroke-dasharray:none;marker-end:url(#Arrow1Lend)" /><path
               sodipodi:nodetypes="cc"
               inkscape:connector-curvature="0"
               id="path3442-9"
               d="m 90806.611,52318.575 c 17.33,-15304.83 6598.04,-28690.183 52658.909,-30969.247"
               style="fill:none;stroke:#000000;stroke-width:812.80328369;stroke-linecap:butt;stroke-linejoin:miter;stroke-miterlimit:4;stroke-opacity:1;stroke-dasharray:none;marker-end:url(#Arrow1Lend)" /><path
               inkscape:connector-curvature="0"
               id="path6699"
               d="m 162160.58,29687.202 c 0,22393.15 0,23107.822 0,23107.822"
               style="fill:none;stroke:#000000;stroke-width:812.80163574;stroke-linecap:butt;stroke-linejoin:miter;stroke-miterlimit:4;stroke-opacity:1;stroke-dasharray:none;marker-end:url(#Arrow1Lend-5)" /><path
               sodipodi:nodetypes="cssssc"
               transform="scale(406.40081,406.40081)"
               inkscape:connector-curvature="0"
               id="path7493"
               d="m 120.20311,42.394676 c 11.60582,14.09278 12.84931,11.605818 15.75077,46.00878 3.13812,37.209144 -8.05294,49.085614 2.07246,51.811684 10.77683,2.90146 11.19132,10.77684 2.07246,14.09278 -7.18273,2.6119 -9.94784,7.04639 -10.77683,10.36234 -0.82898,3.31595 -10.77683,5.80291 -10.77683,5.80291"
               style="fill:none;stroke:#000000;stroke-width:2;stroke-linecap:butt;stroke-linejoin:miter;stroke-miterlimit:4;stroke-opacity:1;stroke-dasharray:none" /></g><path
             sodipodi:nodetypes="cc"
             inkscape:connector-curvature="0"
             id="path7495"
             d="m 63799.171,59987.995 3495.35,0"
             style="fill:none;stroke:#000000;stroke-width:812.80163574;stroke-linecap:butt;stroke-linejoin:miter;stroke-miterlimit:4;stroke-opacity:1;stroke-dasharray:none;marker-start:none;marker-end:url(#Arrow1Lend-5)" /></g></g></g></g></svg>